<svg width="70" height="70" viewBox="0 0 70 70" fill="none" xmlns="http://www.w3.org/2000/svg">
<g clip-path="url(#clip0_237_9081)">
<path d="M51.2351 0.136719C51.3995 0.205484 51.5224 0.300742 51.661 0.339107C54.465 1.11518 56.139 3.2745 56.1665 6.19966C56.1849 8.15805 56.1707 10.1167 56.1711 12.0753C56.1712 12.3229 56.1711 12.5704 56.1711 12.9061C58.4654 12.2166 60.4216 12.6027 61.5223 14.7956C62.7906 17.3225 61.5247 19.1951 59.4568 20.7699C61.0862 21.6671 61.9892 22.8978 61.987 24.7006C61.9848 26.5213 60.7578 27.5963 59.4842 28.718C61.0995 29.6037 61.9946 30.8407 61.9883 32.644C61.9818 34.461 60.7567 35.5384 59.4873 36.6374C59.7093 36.7818 59.8355 36.8681 59.9657 36.948C62.3426 38.4083 62.7124 41.4819 60.7094 43.4344C59.3889 44.7216 58.0215 45.9614 56.6534 47.1984C56.3022 47.5159 56.159 47.8426 56.1614 48.3179C56.1793 51.9388 56.1735 55.5599 56.1704 59.181C56.167 63.1095 53.7517 65.5199 49.8164 65.5229C46.0815 65.5258 42.3465 65.5116 38.6118 65.5431C38.2543 65.5461 37.8244 65.7379 37.5565 65.9826C36.6829 66.7803 35.9064 67.6858 35.0196 68.4671C34.3496 69.0575 33.5681 69.5212 32.8242 70.089C25.1076 70.1367 17.4029 70.1367 9.63416 70.1367C9.49034 70.0365 9.42627 69.9165 9.32845 69.8392C8.17616 68.9284 7.9955 67.7418 8.88262 66.5542C10.4577 64.4455 11.4544 62.0977 11.7421 59.4852C11.9959 57.181 11.7708 54.8803 11.2856 52.6272C10.3678 48.3661 10.5204 44.1859 11.8579 40.0267C12.6781 37.4763 13.0147 34.8348 13.0037 32.1508C12.9925 29.4181 12.9985 26.6853 13.0021 23.9526C13.0061 20.8903 15.3764 19.2811 18.2535 20.3826C18.3976 20.4378 18.5439 20.4869 18.7916 20.5754C18.8068 20.2505 18.8294 19.9921 18.8295 19.7336C18.8318 15.3612 18.8293 10.9888 18.8318 6.61635C18.8337 3.28776 20.1832 1.40704 23.3246 0.338998C23.387 0.3178 23.4409 0.271958 23.5071 0.187166C23.5762 0.136719 23.6369 0.136719 23.7764 0.185492C23.966 0.252479 24.0769 0.286646 24.1879 0.286636C32.9825 0.285885 41.7772 0.283339 50.5718 0.273298C50.7588 0.273084 50.9457 0.184225 51.1326 0.136719C51.1326 0.136719 51.201 0.136719 51.2351 0.136719ZM53.8324 49.9707C53.8324 35.6156 53.8325 21.2605 53.8321 6.90542C53.8321 6.58646 53.8417 6.26663 53.8226 5.94867C53.7019 3.94285 52.2838 2.56993 50.2744 2.52397C49.4545 2.50521 48.6339 2.51769 47.8136 2.51904C46.6957 2.52087 46.8387 2.46292 46.8208 3.51694C46.7827 5.76293 45.3715 7.16463 43.1154 7.1853C41.7028 7.19824 40.29 7.18917 38.8773 7.18852C36.462 7.1874 34.0462 7.21536 31.6316 7.17397C29.6387 7.13982 28.2057 5.65655 28.1675 3.68427C28.1606 3.32602 28.1665 2.96753 28.1665 2.51876C27.09 2.51876 26.0944 2.51677 25.0988 2.51914C22.5606 2.52521 21.1722 3.91133 21.1719 6.45571C21.17 24.0692 21.1699 41.6827 21.1721 59.2962C21.1724 61.7991 22.5634 63.1857 25.0691 63.1866C33.3404 63.1892 41.6117 63.1889 49.8829 63.1867C52.4321 63.1861 53.8264 61.8024 53.8309 59.2674C53.8363 56.2141 53.8323 53.1608 53.8324 49.9707ZM13.0597 45.8068C13.0636 46.739 12.9797 47.6816 13.0887 48.6013C13.3486 50.792 13.7291 52.9682 14.0075 55.157C14.5754 59.6223 13.7492 63.7699 11.0961 67.4807C11.0368 67.5637 11.0105 67.6704 10.9313 67.8519C11.2569 67.8519 11.5019 67.8519 11.7469 67.8519C18.1701 67.8518 24.5938 67.812 31.0163 67.8778C32.7768 67.8958 33.468 66.6247 34.4493 65.6037C34.1764 65.522 33.9323 65.522 33.6882 65.522C30.6816 65.5212 27.6744 65.557 24.6685 65.5081C22.1832 65.4676 20.3319 64.2866 19.3509 62.0037C18.9787 61.1374 18.8576 60.1048 18.8548 59.1473C18.8221 47.8954 18.8344 36.6433 18.831 25.3913C18.8309 25.0056 18.8252 24.614 18.761 24.2355C18.63 23.4633 18.1767 22.9105 17.4727 22.5787C16.2334 21.9946 15.3368 22.5599 15.3351 23.9227C15.3316 26.656 15.3241 29.3893 15.3366 32.1225C15.3498 35.0128 14.8975 37.8276 14.1455 40.6158C13.6968 42.2797 13.427 43.9918 13.0597 45.8068ZM35.615 2.51509C33.9219 2.51509 32.2287 2.51509 30.5507 2.51509C30.358 4.5031 30.6629 4.85155 32.4746 4.85177C34.9311 4.85207 37.3876 4.85195 39.8441 4.85181C40.9358 4.85175 42.0277 4.86056 43.1194 4.84809C44.0576 4.83737 44.4544 4.44518 44.4826 3.53015C44.4922 3.21801 44.4841 2.90533 44.4841 2.5151C41.519 2.5151 38.6354 2.5151 35.615 2.51509ZM56.1683 16.3958C56.1683 17.7483 56.1683 19.1009 56.1683 20.4535C56.2278 20.4805 56.2873 20.5075 56.3467 20.5345C57.3553 19.5648 58.3988 18.6283 59.3573 17.6114C59.8233 17.1169 59.7542 16.2544 59.3596 15.6924C58.9416 15.097 58.359 14.845 57.6398 14.9527C56.9603 15.0544 56.3028 15.6587 56.1683 16.3958ZM56.1679 26.8606C56.1679 27.37 56.1679 27.8793 56.1679 28.3887C56.2284 28.416 56.2889 28.4433 56.3494 28.4706C57.3517 27.5018 58.3959 26.5716 59.3393 25.5485C59.8397 25.0058 59.7259 24.1044 59.2707 23.5224C58.8226 22.9494 58.0607 22.7225 57.3742 22.9574C56.587 23.2268 56.1688 23.8005 56.1681 24.6137C56.1675 25.3177 56.1679 26.0216 56.1679 26.8606ZM56.8683 35.8923C57.5026 35.3038 58.1411 34.7196 58.7691 34.1244C58.9826 33.922 59.2007 33.7124 59.363 33.47C59.7818 32.8444 59.725 32.0049 59.2588 31.4296C58.7997 30.8632 58.0409 30.6542 57.3459 30.9028C56.5717 31.1798 56.1689 31.7304 56.1683 32.5164C56.1675 33.6323 56.1655 34.7481 56.1715 35.864C56.1723 36.0247 56.2148 36.1852 56.2509 36.4349C56.4899 36.2253 56.642 36.0919 56.8683 35.8923ZM59.283 41.5416C59.3198 41.484 59.362 41.4292 59.3924 41.3685C59.7786 40.5997 59.7002 39.8395 59.1787 39.277C58.7002 38.761 57.9567 38.5915 57.2984 38.8486C56.514 39.1548 56.1686 39.6792 56.1682 40.5653C56.168 41.2257 56.1682 41.8861 56.1682 42.5464C56.1682 43.1199 56.1682 43.6933 56.1682 44.2668C56.2268 44.2838 56.2855 44.3009 56.3442 44.318C57.3019 43.4187 58.2596 42.5194 59.283 41.5416Z" fill="#050505"/>
<path d="M51.0688 0.136719C50.946 0.184225 50.7591 0.273084 50.5721 0.273297C41.7775 0.283339 32.9828 0.285885 24.1882 0.286636C24.0772 0.286645 23.9663 0.252479 23.8223 0.185492C32.861 0.136719 41.9329 0.136719 51.0688 0.136719Z" fill="#050505"/>
<path d="M49.6525 27.5976C51.9673 34.787 47.9264 42.2047 40.6982 44.1137C33.6681 45.9703 26.4468 41.4786 24.9258 34.3031C23.5592 27.8563 27.4001 21.377 33.7492 19.4186C40.0661 17.47 46.8847 20.7102 49.3721 26.8434C49.4661 27.0753 49.5493 27.3115 49.6525 27.5976ZM40.2708 21.5705C32.414 19.5787 25.339 26.4853 27.3119 34.2211C28.5896 39.2307 33.127 42.4982 38.3189 42.1475C43.3694 41.8064 47.4034 37.8091 47.9543 32.5999C48.4705 27.7191 45.2533 23.0492 40.2708 21.5705Z" fill="#050505"/>
<path d="M29.4628 60.2166C29.1957 59.1141 29.6309 58.529 30.7098 58.527C35.2404 58.5184 39.771 58.5199 44.3017 58.5263C45.1461 58.5275 45.6782 59.0176 45.6566 59.7245C45.6358 60.4074 45.1248 60.8545 44.301 60.8557C39.7703 60.8625 35.2395 60.8743 30.7093 60.833C30.3003 60.8293 29.8946 60.4606 29.4628 60.2166Z" fill="#050505"/>
<path d="M38.5859 33.5287C37.7029 34.6645 36.8549 35.7656 35.9943 36.8569C35.3195 37.7126 34.6566 37.7463 33.8723 36.9741C33.2715 36.3828 32.6696 35.7919 32.0873 35.1826C31.5674 34.6385 31.5573 33.944 32.0302 33.4775C32.5152 32.999 33.1847 33.0022 33.7296 33.5485C34.0639 33.8835 34.3226 34.2941 34.6602 34.7287C34.9886 34.3269 35.1492 34.1385 35.301 33.9434C37.1764 31.5343 39.0504 29.124 40.9254 26.7146C41.0513 26.5529 41.1719 26.3848 41.3147 26.2389C41.759 25.7848 42.3888 25.7212 42.8621 26.0705C43.3628 26.4399 43.4981 27.0982 43.1311 27.6513C42.8043 28.1436 42.4203 28.5983 42.057 29.066C40.911 30.5415 39.7628 32.0153 38.5859 33.5287Z" fill="#050505"/>
</g>
<defs>
<clipPath id="clip0_237_9081">
<rect width="70" height="70" fill="white"/>
</clipPath>
</defs>
</svg>
