<svg width="70" height="70" viewBox="0 0 70 70" fill="none" xmlns="http://www.w3.org/2000/svg">
<g clip-path="url(#clip0_237_9073)">
<path d="M14.4283 0.136719C16.2802 0.662498 17.4932 1.97109 18.7401 3.24028C19.8415 4.36132 20.9736 5.45225 22.0695 6.5785C22.4187 6.93739 22.6721 6.96586 23.0171 6.58245C23.4584 6.09207 23.9408 5.63815 24.4133 5.17649C26.071 3.55687 28.3031 3.56684 29.9504 5.20506C31.2749 6.52235 32.5951 7.84401 33.9105 9.17043C34.7166 9.98328 34.713 10.5155 33.9113 11.3201C32.4641 12.7724 31.0127 14.2205 29.5668 15.6741C29.3933 15.8485 29.1732 15.9893 29.092 16.2553C29.1584 16.5384 29.4064 16.6868 29.5942 16.8749C35.1486 22.4355 40.7065 27.9926 46.2633 33.5507C47.3412 34.6288 47.3372 35.0519 46.2446 36.142C45.5031 36.8818 44.7635 37.6236 44.0199 38.3613C43.0811 39.2927 42.5854 39.2947 41.6678 38.3779C36.0593 32.7747 30.4456 27.1768 24.8524 21.5585C24.387 21.091 24.1181 21.0818 23.658 21.5578C22.1065 23.1626 20.5122 24.7262 18.9296 26.3009C18.176 27.0508 17.6271 27.0557 16.8824 26.3156C15.509 24.9507 14.1337 23.5875 12.7767 22.2063C11.2591 20.6618 11.2417 18.4511 12.7238 16.8667C13.1748 16.3845 13.632 15.9029 14.1299 15.4712C14.5938 15.069 14.6243 14.7737 14.162 14.3209C12.502 12.6956 10.8507 11.0594 9.25028 9.37592C7.48793 7.52206 7.24184 4.86501 8.56181 2.68611C9.34648 1.39085 10.5496 0.652233 11.9913 0.162606C12.809 0.136719 13.5867 0.136719 14.4283 0.136719ZM25.8746 16.099C27.8163 14.1605 29.758 12.2219 31.7294 10.2538C30.4678 8.99407 29.3127 7.7998 28.1088 6.65693C27.5598 6.13575 26.7515 6.18924 26.1889 6.72497C25.3482 7.52563 24.5397 8.36014 23.7147 9.17741C22.7869 10.0965 22.3017 10.0947 21.3657 9.16211C19.4131 7.2167 17.4839 5.24725 15.5057 3.32833C14.1727 2.03535 12.2255 2.08254 10.9659 3.35908C9.70099 4.64092 9.70602 6.57485 11.0091 7.89729C12.5918 9.5036 14.2076 11.0774 15.786 12.6879C16.1961 13.1063 16.4907 13.1447 16.9011 12.6957C17.4535 12.0913 18.0405 11.514 18.6535 10.9711C19.1422 10.5384 19.7769 10.5799 20.2041 10.991C20.6221 11.3934 20.6739 12.0426 20.3091 12.5505C20.1774 12.7339 20.0081 12.8915 19.8475 13.0525C18.0621 14.8417 16.2698 16.6243 14.491 18.4201C13.8553 19.0618 13.7497 19.8387 14.3127 20.4384C15.4475 21.647 16.6476 22.7942 17.9117 24.0576C20.5655 21.4052 23.1858 18.7863 25.8746 16.099ZM35.5677 29.032C35.777 29.2414 35.9864 29.4509 36.1957 29.6604C38.2401 31.707 40.2824 33.7558 42.333 35.7963C42.5072 35.9697 42.6884 36.3266 42.9984 36.0565C43.4344 35.6766 43.8974 35.3064 44.0877 34.9613C38.4299 29.2891 32.8408 23.6858 27.2181 18.0488C26.8258 18.4229 26.3404 18.8256 25.93 19.3926C29.1288 22.5918 32.3142 25.7776 35.5677 29.032Z" fill="#050505"/>
<path d="M44.4977 70.1366C44.215 69.8842 43.8927 69.9271 43.6131 69.8519C40.0234 68.887 37.2443 65.5579 36.8587 61.8228C36.6452 59.7539 37.0858 57.847 38.1126 56.0619C40.3944 52.0946 42.6834 48.1315 44.971 44.1676C45.6491 42.9924 46.6354 42.9782 47.3189 44.1553C49.663 48.1922 52.0345 52.2141 54.3201 56.284C57.2607 61.52 54.5923 68.0382 48.8464 69.7924C48.4998 69.8982 48.1478 69.9862 47.7566 70.1095C46.6639 70.1366 45.6128 70.1366 44.4977 70.1366ZM51.9131 56.7033C50.0208 53.4257 48.1286 50.1482 46.2035 46.8138C45.6669 47.4427 45.3902 48.0716 45.0519 48.6594C43.2917 51.7175 41.4515 54.7343 39.8168 57.8585C38.1549 61.0348 39.403 64.9256 42.5036 66.8515C45.4787 68.6994 49.4749 67.9726 51.6626 65.2152C53.445 62.9687 53.8011 59.625 51.9131 56.7033Z" fill="#050505"/>
<path d="M57.472 21.9626C57.949 22.4041 58.4681 22.6837 59.0226 22.9022C59.7848 23.2026 60.5523 23.4898 61.3108 23.7989C61.8047 24.0002 62.0658 24.4024 62.0559 24.9218C62.0466 25.4159 61.7687 25.7824 61.3047 25.9709C60.6512 26.2363 59.9971 26.5035 59.3307 26.7336C57.7828 27.2682 56.7472 28.29 56.2217 29.8489C55.9968 30.516 55.7044 31.1607 55.4345 31.8122C55.2334 32.2972 54.8848 32.5872 54.3368 32.5794C53.7873 32.5715 53.4568 32.2642 53.2625 31.7779C52.9502 30.996 52.6361 30.2148 52.3271 29.4316C51.8693 28.2712 51.0806 27.4326 49.919 26.963C49.1384 26.6473 48.3556 26.3359 47.5659 26.0441C47.0163 25.841 46.6615 25.4673 46.6539 24.8911C46.6463 24.3093 47.0027 23.9409 47.5556 23.7402C48.2613 23.484 48.9519 23.1864 49.6544 22.9209C50.9658 22.4252 51.8781 21.543 52.3644 20.216C52.6383 19.4687 52.9514 18.7357 53.2503 17.9976C53.4574 17.4863 53.8133 17.173 54.3915 17.1896C54.9346 17.2052 55.2671 17.5034 55.4599 17.9972C55.7661 18.7814 56.0888 19.5592 56.3973 20.3425C56.6344 20.9444 56.9725 21.4776 57.472 21.9626ZM52.0824 24.2718C51.8083 24.4886 51.424 24.5686 51.2165 24.937C51.865 25.3775 52.5062 25.766 53.0401 26.3014C53.5717 26.8343 53.9163 27.4987 54.3828 28.1931C55.0839 26.6856 56.1905 25.656 57.6614 24.8548C56.126 24.1548 55.1786 23.0175 54.3508 21.6449C53.7134 22.6943 53.0876 23.5876 52.0824 24.2718Z" fill="#050505"/>
<path d="M29.1157 54.6783C28.7923 55.4865 28.4878 56.2465 28.1868 57.0078C27.9751 57.5433 27.6184 57.8859 27.0111 57.8707C26.4279 57.856 26.1198 57.489 25.923 56.986C25.6248 56.2235 25.3183 55.4642 25.0184 54.7024C24.551 53.5155 23.7273 52.6842 22.5413 52.2145C21.801 51.9214 21.0624 51.6235 20.3163 51.3457C19.756 51.137 19.3661 50.8098 19.3716 50.1614C19.3769 49.5468 19.7419 49.2261 20.2801 49.0239C21.0466 48.736 21.805 48.4266 22.565 48.1216C23.7255 47.6559 24.5289 46.8287 25.0019 45.679C25.2788 45.0059 25.5387 44.3258 25.8051 43.6484C26.0366 43.0595 26.2949 42.4874 27.0571 42.4854C27.8205 42.4834 28.0808 43.0517 28.3094 43.6442C28.5632 44.3019 28.828 44.9554 29.0759 45.6153C29.555 46.8907 30.4552 47.7292 31.7176 48.2053C32.4411 48.4781 33.1598 48.7637 33.8809 49.0429C34.3906 49.2403 34.7387 49.5859 34.7495 50.1506C34.7609 50.7474 34.4105 51.1099 33.8688 51.316C33.1036 51.6073 32.341 51.9055 31.5798 52.207C30.4208 52.666 29.5851 53.4541 29.1157 54.6783ZM25.7911 51.6639C26.2906 52.1857 26.6408 52.8183 27.0719 53.4956C27.7985 52.0126 28.8583 50.9594 30.3907 50.1635C28.8664 49.4163 27.8448 48.3279 27.0432 46.8367C26.271 48.358 25.2341 49.4051 23.7716 50.1659C24.5318 50.6369 25.1933 51.031 25.7911 51.6639Z" fill="#050505"/>
</g>
<defs>
<clipPath id="clip0_237_9073">
<rect width="70" height="70" fill="white"/>
</clipPath>
</defs>
</svg>
