<svg width="71" height="70" viewBox="0 0 71 70" fill="none" xmlns="http://www.w3.org/2000/svg">
<path d="M51.4992 47.8086C52.2947 46.1952 53.0902 44.5818 53.9295 42.9042C53.9947 42.7569 54.0162 42.6738 54.0378 42.5906C54.4826 41.0175 54.9274 39.4444 55.4431 37.8014C55.5863 37.6269 55.6585 37.5221 55.7308 37.4174C55.982 37.2668 56.2331 37.1162 56.58 36.9481C57.072 36.7625 57.6185 36.7555 57.5637 36.1032C58.5013 35.1433 59.3436 34.1245 59.6 32.752C59.6468 32.5012 59.6681 32.2456 59.7156 31.898C59.7228 31.6896 59.7155 31.5754 59.7082 31.4612C59.7067 30.2778 59.4958 29.1898 58.3127 28.4631C58.125 28.3817 57.9931 28.3561 57.8613 28.3306C57.4672 28.2914 57.0673 28.1886 56.6799 28.2235C54.3932 28.4295 52.7085 27.3932 51.5413 25.5635C49.9698 23.0998 47.6972 21.9726 44.8954 21.7238C43.4527 21.5957 42.0052 21.4954 40.5578 21.4512C36.6297 21.3313 33.1792 20.0684 30.6584 16.9758C29.0507 15.0033 28.181 12.6499 28.2468 10.0335C28.2613 9.45739 28.5302 9.10979 29.1192 9.04036C29.9008 8.94821 30.3346 9.1722 30.4824 9.80862C30.6085 10.3518 30.6521 10.9137 30.7679 11.4597C31.5827 15.302 33.9399 17.6504 37.7181 18.6255C39.7092 19.1394 41.7478 19.0883 43.7768 19.1994C46.1772 19.3308 48.577 19.6783 50.5545 21.1468C51.714 22.0079 52.6341 23.1946 53.6438 24.252C53.8972 24.5174 54.0811 24.8491 54.3313 25.2292C54.4988 25.3784 54.632 25.4487 54.7651 25.519C55.1029 25.6205 55.4406 25.7221 55.8515 25.8634C56.1035 25.9128 56.2824 25.9225 56.4612 25.9321C56.9323 25.9434 57.4034 25.9547 57.9674 25.9995C58.2311 26.0498 58.402 26.0664 58.5728 26.083C60.2828 26.4332 61.3293 27.565 61.7759 29.1483C62.5753 31.9822 62.1402 34.6323 60.1132 36.8754C59.4496 37.6097 58.7149 38.3075 57.9103 38.8771C57.3242 39.292 57.4548 39.9046 57.1441 40.4582C57.072 40.6055 57.0504 40.6887 57.0289 40.7718C57.0216 40.8333 57.0143 40.8948 56.9797 41.0214C56.9309 41.1696 56.9094 41.2528 56.8878 41.3359C55.7472 45.4162 53.9472 49.145 50.9746 52.3199C50.8289 52.4413 50.7557 52.5298 50.6826 52.6184C49.6004 53.4119 49.766 54.4925 49.9723 55.6013C50.4963 58.4188 51.3715 61.1187 52.6778 63.6694C53.0366 64.3699 53.4968 65.02 53.9305 65.6802C54.2727 66.2009 54.3788 66.8061 54.0074 67.2516C53.7674 67.5395 53.2062 67.6325 52.7786 67.6619C52.5468 67.6778 52.2265 67.429 52.0596 67.2123C50.3778 65.028 49.3816 62.5034 48.5751 59.9051C48.1132 58.4174 47.7966 56.8846 47.4006 55.3165C41.4379 58.4154 35.3804 58.4153 29.3043 55.2706C28.8869 58.1232 28.0594 60.8119 26.8499 63.4755C26.7064 63.686 26.6338 63.8288 26.5611 63.9717C25.9795 65.0126 25.3978 66.0534 24.7291 67.1302C24.4797 67.3366 24.3172 67.507 24.1547 67.6774C23.8489 67.6668 23.543 67.6562 23.2002 67.5697C22.9844 67.3278 22.8056 67.1619 22.6268 66.9959C22.636 66.6933 22.6452 66.3906 22.7135 66.0281C22.805 65.8851 22.8375 65.8021 22.87 65.719C23.0805 65.4104 23.2911 65.1018 23.5592 64.7442C23.64 64.6078 23.6633 64.5204 23.6866 64.433C24.4445 62.6851 25.2025 60.9372 26.0051 59.1238C26.0711 58.9752 26.0927 58.892 26.1142 58.8089C26.1585 58.6522 26.2028 58.4955 26.3007 58.2729C26.381 58.0343 26.4078 57.8617 26.4345 57.689C26.6146 56.5198 26.7976 55.351 26.9735 54.1811C27.0446 53.7087 26.8692 53.3734 26.5048 53.0312C23.932 50.6148 22.1878 47.6441 20.9336 44.382C20.3568 42.8816 19.9571 41.3139 19.4225 39.7959C19.2884 39.4152 19.0096 39.0181 18.6854 38.7827C16.7223 37.3574 15.2581 35.5652 14.8097 33.1526C14.4767 31.3607 14.5341 29.5069 15.5658 27.9188C16.2431 26.8763 17.2412 26.065 18.5789 25.9704C20.6277 25.8255 22.0658 24.7104 23.341 23.2196C24.3267 22.0672 25.1515 20.8357 25.65 19.4063C25.8249 18.9048 25.8696 18.3588 25.9857 17.8358C26.1519 17.0867 26.5488 16.8345 27.3783 16.9387C28.055 17.0238 28.2259 17.466 28.2509 18.0801C28.3208 19.7985 27.6241 21.2685 26.7636 22.6685C25.5488 24.6451 24.0459 26.3732 21.9682 27.4796C21.2873 27.8422 20.4992 28.0908 19.734 28.1893C18.1902 28.3882 17.2721 29.0214 17.1019 30.9756C16.8487 33.8831 18.4688 35.7229 20.6936 37.1662C21.2278 37.5127 21.4813 37.9136 21.6133 38.4754C22.3881 41.772 23.4958 44.9408 25.3475 47.801C27.7574 51.5237 30.9874 54.2048 35.4455 54.9534C39.843 55.6919 44.0042 54.9893 47.6077 52.1139C47.6426 52.0861 47.6926 52.0773 47.8308 52.0374C48.0853 51.831 48.2446 51.6467 48.404 51.4624C48.9569 50.887 49.5097 50.3117 50.1043 49.6641C50.1748 49.5517 50.2037 49.5115 50.2326 49.4714C50.5798 49.0279 50.927 48.5844 51.3378 48.0993C51.434 47.9747 51.4666 47.8916 51.4992 47.8086Z" fill="#050505"/>
<path d="M56.5043 5.59726C58.9597 7.60303 60.8961 9.96545 62.3859 12.7124C64.4077 16.4403 65.5437 20.4469 66.1423 24.6104C66.4077 26.4565 66.6254 28.3388 66.569 30.1957C66.4511 34.0779 67.4694 37.6713 68.8575 41.2276C70.1195 44.4609 70.4877 47.81 69.5335 51.1923C68.8757 53.5239 67.1749 54.945 64.998 55.8528C62.9942 56.6884 60.8923 57.0982 58.7401 57.2673C57.2723 57.3826 55.8021 57.4752 54.3312 57.5385C53.5039 57.5742 53.0883 57.1897 53.0675 56.4828C53.0426 55.6383 53.4044 55.2157 54.2599 55.1599C55.3107 55.0913 56.3666 55.0911 57.4152 55.0018C59.9108 54.7891 62.3764 54.4562 64.6656 53.3132C66.6121 52.3413 67.4391 50.7318 67.5983 48.6428C67.8196 45.7394 67.0432 43.0474 66.0107 40.3862C65.1051 38.0522 64.282 35.6947 64.3315 33.1263C64.3554 31.8875 64.2857 30.6439 64.2005 29.4065C63.8862 24.8441 63.1785 20.371 61.3504 16.1228C60.0138 13.0168 58.1791 10.2751 55.6494 8.04334C52.7873 5.51826 49.4194 3.9477 45.7038 3.11411C43.5526 2.63149 41.3783 2.42235 39.1684 2.38222C35.9187 2.3232 32.7272 2.55986 29.6946 3.80699C28.7335 4.20225 27.8736 4.8377 26.9401 5.30902C26.4945 5.53397 25.9913 5.74026 25.5033 5.76875C23.5102 5.88511 21.8675 6.74818 20.4256 8.04525C17.0959 11.0405 15.4086 14.9645 14.2276 19.1594C13.3964 22.1116 12.8778 25.1202 12.729 28.1873C12.6293 30.2443 12.6734 32.3193 12.4056 34.3537C12.1824 36.0495 11.6386 37.7092 11.1654 39.3645C10.5636 41.4692 9.71185 43.5194 9.30538 45.6573C9.00135 47.2564 8.93112 48.9955 9.62227 50.5761C9.93209 51.2847 10.427 51.9278 10.9161 52.538C11.3871 53.1256 11.4972 53.927 11.0464 54.3591C10.5311 54.853 9.8279 54.8023 9.2299 54.2609C7.55989 52.7489 6.94411 50.8049 6.79854 48.6227C6.58425 45.4103 7.35808 42.4105 8.56891 39.4777C9.68692 36.7697 10.2073 33.9477 10.2055 31.0062C10.2023 25.6563 11.0593 20.434 12.8924 15.4022C14.0622 12.1913 15.6953 9.22327 18.1562 6.796C19.8514 5.12396 21.8227 3.84495 24.2229 3.5266C25.2529 3.38998 26.0497 2.92628 26.887 2.44362C28.9615 1.24777 31.2214 0.547979 33.576 0.32241C36.0194 0.0883214 38.4969 -0.0869284 40.9414 0.0457811C46.6316 0.354702 51.9348 1.91381 56.5043 5.59726Z" fill="#050505"/>
<path d="M13.8989 66.8943C13.016 67.7768 12.1764 68.6324 11.3181 69.4687C10.5963 70.1721 9.78843 70.179 9.08448 69.4779C6.22008 66.6251 3.36164 63.7662 0.508275 60.9024C-0.183175 60.2084 -0.165642 59.3841 0.539449 58.6715C1.49821 57.7024 2.46474 56.741 3.43494 55.7834C4.15063 55.077 4.94948 55.0721 5.65986 55.7756C6.99563 57.0986 8.32158 58.4315 9.65383 59.758C9.81587 59.9193 9.99154 60.067 10.3928 60.432C10.5901 60.1175 10.7216 59.7928 10.949 59.563C13.2798 57.2071 15.6245 54.8651 17.969 52.5227C18.8482 51.6443 19.5814 51.6377 20.4555 52.5027C21.3742 53.4118 22.2906 54.3237 23.1927 55.2493C23.984 56.0611 23.9668 56.8231 23.1561 57.6349C20.0837 60.7112 17.0084 63.7846 13.8989 66.8943ZM9.68368 63.1403C9.42636 62.9407 9.14576 62.7646 8.91558 62.5375C7.67795 61.3161 6.45401 60.0809 5.22232 58.8535C5.01221 58.6441 4.78746 58.4494 4.69841 58.3671C4.0947 58.8895 3.55464 59.3568 3.17391 59.6862C5.56055 62.1097 7.92353 64.5091 10.2022 66.8229C13.6754 63.3605 17.1801 59.8665 20.6201 56.4372C20.1904 55.9348 19.7259 55.3917 19.2361 54.819C18.8587 55.1778 18.5478 55.4605 18.2512 55.7574C16.0093 58.001 13.7597 60.2372 11.5383 62.501C11.037 63.0119 10.5109 63.2983 9.68368 63.1403Z" fill="#050505"/>
<path d="M35.6823 46.7367C38.3868 47.7533 40.8216 47.4003 42.9977 45.5415C43.5319 45.0851 44.4396 44.9844 44.8698 45.3658C45.2144 45.6712 45.3187 46.6142 44.9862 47.0033C44.6861 47.3544 44.3237 47.6642 43.9488 47.9375C40.7967 50.2354 36.0915 50.3029 32.9067 47.9535C32.5501 47.6905 32.1966 47.4161 31.8804 47.1073C31.5146 46.7502 31.5403 45.7598 31.8872 45.4056C32.2695 45.0152 33.1863 45.0688 33.7115 45.4482C34.3325 45.8969 34.9926 46.2914 35.6823 46.7367Z" fill="#050505"/>
<path d="M24.7435 33.8357C24.0702 33.6758 23.7381 33.3154 23.7245 32.6423C23.7109 31.9644 24.0596 31.6092 24.6505 31.4189C25.0685 31.2842 25.4966 31.0483 25.9095 31.0692C26.2921 31.0886 26.7441 31.3053 27.0195 31.581C27.8779 32.4402 28.8973 32.78 30.0619 32.6377C30.8879 32.5369 31.6993 32.3141 32.5156 32.1386C33.1297 32.0065 33.7301 32.3193 33.9188 32.9664C34.0834 33.5307 33.8906 34.0604 33.3507 34.306C32.7629 34.5733 32.1315 34.8101 31.4969 34.8961C29.8785 35.1156 28.2506 35.2194 26.7398 34.3726C26.6378 34.3154 26.5128 34.2813 26.4356 34.2008C25.9668 33.712 25.4229 33.5998 24.7435 33.8357Z" fill="#050505"/>
<path d="M48.5022 32.4354C48.9884 32.0827 49.4091 31.726 49.8554 31.405C50.0726 31.2488 50.3648 31.0225 50.576 31.0645C51.269 31.2021 51.9808 31.3667 52.6076 31.6776C53.1322 31.9378 53.2301 32.6834 52.9385 33.2259C52.6451 33.7717 52.1914 33.9067 51.5836 33.7677C51.3341 33.7107 50.9838 33.7916 50.7676 33.9391C48.472 35.5047 46.0602 35.2399 43.6232 34.4054C42.9855 34.187 42.6737 33.4746 42.8704 32.9574C43.1381 32.2533 43.7603 31.9425 44.4924 32.1893C45.7909 32.6269 47.0956 32.8713 48.5022 32.4354Z" fill="#050505"/>
<path d="M57.5236 36.1267C57.6185 36.7555 57.072 36.7625 56.6253 36.9409C56.8778 36.6841 57.1806 36.4171 57.5236 36.1267Z" fill="#050505"/>
<path d="M22.6381 67.0408C22.8056 67.1619 22.9844 67.3278 23.1585 67.5311C22.9858 67.4075 22.8176 67.2465 22.6381 67.0408Z" fill="#050505"/>
<path d="M24.1999 67.6658C24.3172 67.507 24.4797 67.3366 24.6886 67.1544C24.5717 67.3132 24.4084 67.4837 24.1999 67.6658Z" fill="#050505"/>
<path d="M56.4258 25.8957C56.2824 25.9225 56.1035 25.9128 55.9058 25.8711C56.0547 25.8458 56.2225 25.8526 56.4258 25.8957Z" fill="#050505"/>
<path d="M48.3651 51.4862C48.2446 51.6467 48.0853 51.831 47.8784 52.0281C47.9961 51.864 48.1612 51.687 48.3651 51.4862Z" fill="#050505"/>
<path d="M26.411 57.733C26.4078 57.8617 26.381 58.0343 26.3239 58.2289C26.3248 58.0929 26.3561 57.9349 26.411 57.733Z" fill="#050505"/>
<path d="M58.5371 26.0473C58.402 26.0664 58.2311 26.0498 58.0315 26.0066C58.169 25.9906 58.3352 26.0011 58.5371 26.0473Z" fill="#050505"/>
<path d="M54.7422 25.4808C54.632 25.4487 54.4988 25.3784 54.353 25.2716C54.4667 25.3043 54.593 25.3735 54.7422 25.4808Z" fill="#050505"/>
<path d="M57.9048 28.3413C57.9931 28.3561 58.125 28.3817 58.27 28.4394C58.1715 28.4317 58.0599 28.3919 57.9048 28.3413Z" fill="#050505"/>
<path d="M50.7183 52.5987C50.7557 52.5298 50.8289 52.4413 50.9341 52.3437C50.8955 52.4161 50.8247 52.4976 50.7183 52.5987Z" fill="#050505"/>
<path d="M26.603 63.9449C26.6338 63.8288 26.7064 63.686 26.813 63.5085C26.7795 63.622 26.7122 63.7701 26.603 63.9449Z" fill="#050505"/>
<path d="M51.4667 47.8341C51.4666 47.8916 51.434 47.9747 51.3787 48.0752C51.3822 48.015 51.4082 47.9373 51.4667 47.8341Z" fill="#050505"/>
<path d="M54.0062 42.6165C54.0162 42.6738 53.9947 42.7569 53.9541 42.8594C53.9482 42.8 53.9614 42.7212 54.0062 42.6165Z" fill="#050505"/>
<path d="M56.9194 41.31C56.9094 41.2528 56.9309 41.1696 56.9715 41.0672C56.9774 41.1266 56.9642 41.2053 56.9194 41.31Z" fill="#050505"/>
<path d="M57.0605 40.7459C57.0504 40.6887 57.072 40.6055 57.1126 40.503C57.1185 40.5625 57.1053 40.6413 57.0605 40.7459Z" fill="#050505"/>
<path d="M26.0826 58.8348C26.0927 58.892 26.0711 58.9752 26.0305 59.0777C26.0246 59.0182 26.0378 58.9395 26.0826 58.8348Z" fill="#050505"/>
<path d="M23.6519 64.4583C23.6633 64.5204 23.64 64.6078 23.5951 64.7146C23.5881 64.6505 23.6026 64.567 23.6519 64.4583Z" fill="#050505"/>
<path d="M22.8376 65.7446C22.8375 65.8021 22.805 65.8852 22.75 65.9857C22.7534 65.9256 22.7794 65.8479 22.8376 65.7446Z" fill="#050505"/>
<path d="M55.6843 37.4379C55.6585 37.5221 55.5863 37.6269 55.4799 37.7647C55.5098 37.6846 55.5738 37.5715 55.6843 37.4379Z" fill="#050505"/>
<path d="M59.7029 31.5123C59.7155 31.5754 59.7228 31.6895 59.7214 31.8375C59.7077 31.7687 59.7026 31.6661 59.7029 31.5123Z" fill="#050505"/>
<path d="M50.1956 49.4887C50.2037 49.5115 50.1748 49.5517 50.1232 49.6211C50.1199 49.6023 50.1393 49.5541 50.1956 49.4887Z" fill="#050505"/>
</svg>
