<svg width="70" height="70" viewBox="0 0 70 70" fill="none" xmlns="http://www.w3.org/2000/svg">
<path d="M32.7831 30.1023C34.6609 30.1025 36.4691 30.0958 38.2772 30.1049C40.0261 30.1138 40.9578 31.0843 40.967 32.8877C40.9705 33.5858 41.0011 34.286 40.9578 34.9812C40.9222 35.5535 41.121 35.7315 41.6735 35.7271C44.4208 35.7053 47.1686 35.6965 49.9156 35.7334C50.5833 35.7424 51.2981 35.8195 51.9053 36.0777C53.4545 36.7368 54.3052 38.0051 54.3361 39.7274C54.3839 42.3984 54.3704 45.0713 54.3319 47.7426C54.3239 48.3021 54.0915 48.8576 53.9679 49.4163C53.8261 50.0572 53.5817 50.6977 53.5708 51.3417C53.5253 54.0128 53.5618 56.6852 53.548 59.357C53.532 62.4662 51.644 64.3928 48.6033 64.395C39.6095 64.4016 30.6157 64.4022 21.6218 64.3943C18.5986 64.3917 16.7062 62.4323 16.7006 59.3301C16.6956 56.4897 16.7088 53.6493 16.6876 50.809C16.6848 50.4445 16.5248 50.0808 16.4348 49.7175C16.2522 48.9798 15.9288 48.2465 15.9091 47.5046C15.8426 45.003 15.8697 42.4984 15.8877 39.9951C15.9058 37.4791 17.6157 35.7361 20.0749 35.7227C22.8693 35.7074 25.664 35.6992 28.458 35.7317C29.1097 35.7393 29.3302 35.5336 29.2782 34.8735C29.2272 34.2278 29.2647 33.5746 29.268 32.9247C29.2773 31.0959 30.2282 30.1179 32.009 30.103C32.2437 30.101 32.4786 30.1024 32.7831 30.1023ZM24.2393 50.3246C26.3088 50.7234 28.3783 51.1222 30.5268 51.5362C30.5512 51.1699 30.5806 50.9132 30.583 50.6561C30.5913 49.7654 30.5613 48.8732 30.5987 47.9839C30.6724 46.2338 31.8367 45.083 33.5445 45.0491C34.4368 45.0314 35.3296 45.0424 36.2221 45.0438C38.5929 45.0476 39.6698 46.148 39.6722 48.5678C39.6732 49.5242 39.6724 50.4807 39.6724 51.4796C39.9598 51.4588 40.1473 51.4641 40.3275 51.4295C43.7434 50.7717 47.1606 50.12 50.5726 49.441C51.6049 49.2356 52.0849 48.5945 52.0896 47.4951C52.1002 45.0393 52.0984 42.5834 52.0915 40.1275C52.0876 38.7327 51.4225 38.0307 50.058 38.0297C40.0989 38.0224 30.1398 38.0223 20.1808 38.0302C18.8292 38.0313 18.1514 38.7476 18.1455 40.14C18.1353 42.5476 18.1361 44.9554 18.1454 47.3631C18.1502 48.6242 18.6321 49.2317 19.8275 49.4748C21.2556 49.7651 22.6891 50.0276 24.2393 50.3246ZM33.8359 62.0942C38.7665 62.0938 43.6971 62.0996 48.6276 62.0899C50.382 62.0865 51.2804 61.1628 51.288 59.3785C51.2976 57.0921 51.2924 54.8057 51.2884 52.5193C51.2879 52.2675 51.2536 52.0157 51.2289 51.681C47.337 52.4334 43.5379 53.1678 39.7225 53.9055C39.7024 54.1539 39.6792 54.3424 39.673 54.5314C39.6069 56.5374 38.4698 57.6881 36.5151 57.7099C35.5761 57.7203 34.6367 57.722 33.6977 57.7088C31.8107 57.6822 30.6593 56.5618 30.6048 54.6306C30.5885 54.0524 30.3925 53.8515 29.8578 53.752C26.578 53.1421 23.3044 52.4972 20.028 51.8674C19.7099 51.8062 19.3874 51.7686 18.9582 51.7035C18.9582 52.0337 18.9582 52.2903 18.9582 52.5469C18.9582 54.7612 18.9568 56.9754 18.9586 59.1896C18.9602 61.2109 19.8129 62.09 21.7911 62.0924C25.7591 62.0971 29.727 62.094 33.8359 62.0942ZM32.8374 50.3833C32.8381 51.7308 32.8466 53.0784 32.8361 54.4259C32.831 55.0757 33.0844 55.4158 33.7539 55.4026C34.6691 55.3847 35.585 55.3876 36.5004 55.4014C37.1625 55.4115 37.423 55.0811 37.4192 54.4244C37.4073 52.3791 37.4103 50.3336 37.4175 48.2883C37.4196 47.6665 37.1658 47.3472 36.5339 47.3563C35.5951 47.3698 34.6558 47.3723 33.7171 47.3553C33.0766 47.3437 32.8315 47.6759 32.8378 48.2899C32.8444 48.9395 32.8381 49.5893 32.8374 50.3833ZM38.7106 34.8973C38.7089 34.2723 38.6911 33.6469 38.7112 33.0227C38.7245 32.6085 38.6036 32.3999 38.1625 32.4033C36.1461 32.4185 34.1295 32.4225 32.113 32.4159C31.6508 32.4143 31.4985 32.622 31.5159 33.0758C31.5406 33.7238 31.5512 34.3754 31.5127 35.0219C31.4806 35.5603 31.6716 35.7355 32.1927 35.7293C34.1386 35.7062 36.0852 35.707 38.0311 35.7293C38.5404 35.7352 38.7911 35.5833 38.7106 34.8973Z" fill="#050505"/>
<path d="M26.7066 10.7265C28.1747 10.5232 29.5803 10.309 30.9913 10.1421C31.4693 10.0856 31.7225 9.86654 31.919 9.43841C32.5853 7.98694 33.2915 6.55421 33.9715 5.10909C34.2046 4.61375 34.4936 4.20971 35.098 4.20037C35.7326 4.19056 36.0431 4.5997 36.2887 5.1225C36.9779 6.58928 37.6611 8.05991 38.4016 9.50023C38.5431 9.77549 38.9137 10.0508 39.2156 10.1015C40.8003 10.3676 42.3964 10.5651 43.9896 10.7784C44.5233 10.8499 45.0084 10.9931 45.201 11.5717C45.4004 12.1708 45.1216 12.605 44.7027 13.0043C43.5504 14.1027 42.4234 15.2284 41.2608 16.3154C40.9102 16.6432 40.8119 16.9642 40.9041 17.4323C41.1952 18.9085 41.4582 20.3907 41.7061 21.875C41.7706 22.2613 41.8286 22.6867 41.7352 23.0541C41.5517 23.7756 40.7884 23.999 40.0153 23.5887C38.5717 22.8225 37.1325 22.0471 35.7077 21.246C35.2939 21.0134 34.9636 21.0139 34.5486 21.248C33.1656 22.028 31.7579 22.7632 30.3665 23.5283C29.864 23.8046 29.3719 23.9499 28.8643 23.5707C28.373 23.2036 28.3996 22.6841 28.4918 22.1584C28.7682 20.5835 29.0241 19.004 29.3464 17.4386C29.4528 16.922 29.3151 16.6121 28.955 16.2752C27.8439 15.236 26.7637 14.1631 25.6679 13.1071C25.239 12.6937 24.7964 12.2923 25.0327 11.5959C25.2648 10.9118 25.8432 10.8212 26.4378 10.7581C26.5073 10.7507 26.5767 10.7422 26.7066 10.7265ZM29.6772 13.8642C30.0804 14.2555 30.4515 14.6898 30.8939 15.0289C31.7117 15.6557 31.8759 16.4161 31.6311 17.3939C31.3881 18.3649 31.2686 19.3674 31.067 20.515C31.4355 20.3458 31.6637 20.2546 31.8795 20.1397C32.7038 19.7006 33.534 19.2715 34.3425 18.8041C34.8856 18.49 35.3888 18.4897 35.9239 18.8047C36.4066 19.0889 36.9077 19.3413 37.4008 19.6075C37.9437 19.9007 38.4868 20.1936 39.1968 20.5768C39.0164 19.5476 38.943 18.7002 38.7107 17.9C38.3265 16.5764 38.5322 15.5189 39.7043 14.6969C40.139 14.3921 40.4885 13.9618 40.8705 13.5821C41.1066 13.3474 41.3307 13.1001 41.6617 12.7515C40.507 12.5881 39.5226 12.3911 38.5297 12.3244C37.53 12.2572 36.9052 11.8391 36.5315 10.879C36.1538 9.90876 35.6425 8.9917 35.1251 7.9171C34.7351 8.72594 34.4224 9.37968 34.1054 10.0313C32.9332 12.4406 33.4613 12.0387 30.7695 12.4441C30.098 12.5452 29.4265 12.6471 28.755 12.7487C28.7159 12.8339 28.6769 12.919 28.6378 13.0042C28.9606 13.2678 29.2834 13.5314 29.6772 13.8642Z" fill="#050505"/>
<path d="M51.7051 21.275C52.1139 21.0302 52.4797 20.7317 52.8866 20.6572C54.0492 20.4441 55.2346 20.3556 56.397 20.1417C56.7059 20.0848 57.0765 19.8137 57.226 19.5368C57.8101 18.4549 58.3213 17.3333 58.8502 16.222C59.081 15.737 59.4069 15.3908 59.9804 15.4001C60.5469 15.4092 60.8735 15.7476 61.103 16.2375C61.6051 17.309 62.155 18.359 62.6286 19.4426C62.85 19.9493 63.178 20.1358 63.6991 20.1924C64.8514 20.3176 65.9977 20.4974 67.1474 20.6476C67.6706 20.716 68.1234 20.8843 68.3022 21.4378C68.4859 22.0063 68.2576 22.4396 67.8429 22.8278C66.9788 23.6365 66.1453 24.4784 65.2706 25.2752C64.9129 25.6011 64.8049 25.9345 64.8986 26.4019C65.1311 27.5616 65.3186 28.7303 65.5442 29.8916C65.6518 30.4452 65.6062 30.9338 65.1149 31.2878C64.6465 31.6252 64.1793 31.5166 63.7139 31.2641C62.6529 30.6885 61.5792 30.1353 60.532 29.5356C60.131 29.306 59.8149 29.3182 59.4196 29.5431C58.4119 30.1165 57.3759 30.6398 56.3594 31.1982C55.8577 31.4739 55.3637 31.6624 54.8315 31.2952C54.2603 30.9012 54.3175 30.3317 54.4216 29.7567C54.6241 28.6393 54.8155 27.5194 55.0459 26.4076C55.1429 25.939 55.0427 25.6071 54.6835 25.279C53.7749 24.4491 52.9009 23.5814 52.0123 22.7296C51.5975 22.332 51.4212 21.8795 51.7051 21.275ZM62.3449 27.9435C62.5047 27.9987 62.6645 28.0539 62.9082 28.1381C62.7814 27.4066 62.7182 26.7694 62.5537 26.1595C62.3222 25.3013 62.5308 24.6454 63.2224 24.0891C63.7216 23.6875 64.1672 23.2192 64.6367 22.7807C63.9224 22.5078 63.321 22.3781 62.7143 22.3451C61.8121 22.2961 61.214 21.9168 60.888 21.0475C60.6605 20.4405 60.3264 19.8735 59.9681 19.142C59.6205 19.8571 59.2993 20.4087 59.0785 20.998C58.7471 21.8823 58.1594 22.309 57.2148 22.3517C56.604 22.3793 55.9986 22.5286 55.3296 22.633C55.8974 23.2295 56.3412 23.7508 56.8431 24.2083C57.386 24.7033 57.6028 25.2382 57.4178 25.9766C57.2461 26.662 57.1762 27.3731 57.0416 28.194C57.3729 28.0438 57.5463 27.9752 57.7105 27.8892C60.3622 26.5011 59.5604 26.4956 62.3449 27.9435Z" fill="#050505"/>
<path d="M2.00317 21.2506C2.39534 21.0145 2.74326 20.7298 3.12989 20.6602C4.27082 20.4551 5.42516 20.318 6.5782 20.1897C7.07605 20.1343 7.37982 19.9375 7.59048 19.4619C8.06956 18.3803 8.61659 17.329 9.12203 16.2588C9.34957 15.777 9.65308 15.4085 10.2289 15.4001C10.8326 15.3912 11.1662 15.7581 11.4067 16.2674C11.9122 17.3376 12.4592 18.3889 12.9379 19.4707C13.1501 19.9504 13.4614 20.1316 13.9578 20.1865C15.0871 20.3115 16.2104 20.4907 17.338 20.633C17.9095 20.7052 18.4168 20.8578 18.6104 21.477C18.8035 22.0944 18.4707 22.5086 18.0529 22.9013C17.2073 23.6959 16.3869 24.5175 15.5333 25.3032C15.2037 25.6065 15.0847 25.8939 15.183 26.3568C15.4383 27.5597 15.6214 28.7778 15.843 29.988C15.9406 30.5211 15.8884 31.0717 15.37 31.2746C14.9857 31.425 14.4258 31.4243 14.0536 31.2531C12.9154 30.7296 11.8411 30.0688 10.7156 29.5151C10.4697 29.3941 10.0635 29.3925 9.81777 29.5129C8.71257 30.0542 7.63556 30.6537 6.55473 31.2438C6.06534 31.511 5.57857 31.6389 5.09089 31.2759C4.60595 30.9148 4.58695 30.4208 4.69389 29.8689C4.92341 28.6844 5.09195 27.4876 5.34146 26.3077C5.4348 25.8663 5.30599 25.6021 5.00272 25.3197C4.10172 24.4804 3.22633 23.6137 2.33022 22.7691C1.88464 22.3491 1.72817 21.8782 2.00317 21.2506ZM14.5164 23.142C14.6352 23.0028 14.7539 22.8636 14.9627 22.619C14.1821 22.5067 13.5138 22.3764 12.8395 22.3225C12.0445 22.2591 11.5292 21.9015 11.2278 21.1521C10.9702 20.5117 10.6273 19.9056 10.2538 19.1453C9.87652 19.9189 9.54361 20.4956 9.30837 21.1098C8.99606 21.9251 8.43035 22.2793 7.5835 22.338C6.94114 22.3825 6.30518 22.5192 5.59172 22.6261C6.12423 23.1823 6.52496 23.6849 7.0094 24.0867C7.69742 24.6573 7.88826 25.3191 7.67657 26.1684C7.52113 26.792 7.4445 27.4353 7.29923 28.2601C8.08898 27.8386 8.70793 27.548 9.28498 27.1899C9.9422 26.7821 10.5525 26.772 11.215 27.1722C11.7935 27.5216 12.4076 27.812 13.147 28.203C13.1113 27.7932 13.1074 27.5639 13.0695 27.3404C12.5928 24.5273 12.3404 25.2859 14.5164 23.142Z" fill="#050505"/>
</svg>
