<svg width="72" height="70" viewBox="0 0 72 70" fill="none" xmlns="http://www.w3.org/2000/svg">
<path d="M27.566 19.225C27.566 29.8197 37.334 38.4412 49.333 38.4412C53.306 38.4412 57.1723 37.4902 60.5587 35.6859C62.3275 36.6191 64.3362 37.0902 66.5404 37.0902C67.2337 37.0902 67.927 37.0458 68.6114 36.948C69.2958 36.8502 69.8379 36.3525 69.9979 35.677C70.149 34.9926 69.8735 34.3082 69.278 33.9171C68.1492 33.1705 67.2782 32.1395 66.6738 30.8241C69.5269 27.4999 71.0912 23.4025 71.0912 19.2162C71.0912 8.62149 61.3231 0 49.3241 0C37.3251 0 27.566 8.63038 27.566 19.225ZM29.7436 19.225C29.7436 9.83028 38.5339 2.18648 49.333 2.18648C60.1321 2.18648 68.9225 9.83028 68.9225 19.225C68.9225 23.1447 67.4293 26.8244 64.6117 29.8819C64.3362 30.1841 64.2473 30.6107 64.3895 31.0018C64.9761 32.575 65.8472 33.8905 66.9937 34.9126C64.7984 34.9926 62.7985 34.5126 61.1276 33.5083C60.9587 33.4016 60.7632 33.3572 60.5676 33.3572C60.381 33.3572 60.1943 33.4016 60.0254 33.4994C56.8346 35.3126 53.1371 36.2725 49.333 36.2725C38.5339 36.2636 29.7436 28.6198 29.7436 19.225Z" fill="#050505"/>
<path d="M49.3419 20.6205C50.1126 20.6205 50.7373 19.9957 50.7373 19.225C50.7373 18.4544 50.1126 17.8296 49.3419 17.8296C48.5712 17.8296 47.9465 18.4544 47.9465 19.225C47.9465 19.9957 48.5712 20.6205 49.3419 20.6205Z" fill="#050505"/>
<path d="M55.3503 20.6205C56.121 20.6205 56.7457 19.9957 56.7457 19.225C56.7457 18.4544 56.121 17.8296 55.3503 17.8296C54.5796 17.8296 53.9548 18.4544 53.9548 19.225C53.9548 19.9957 54.5796 20.6205 55.3503 20.6205Z" fill="#050505"/>
<path d="M43.3335 20.6205C44.1042 20.6205 44.729 19.9957 44.729 19.225C44.729 18.4544 44.1042 17.8296 43.3335 17.8296C42.5628 17.8296 41.9381 18.4544 41.9381 19.225C41.9381 19.9957 42.5628 20.6205 43.3335 20.6205Z" fill="#050505"/>
<path d="M43.5252 48.2418C43.5252 58.8365 33.7571 67.458 21.7582 67.458C17.7852 67.458 13.9188 66.507 10.5324 64.7027C8.7637 65.6359 6.75499 66.107 4.55073 66.107C3.85745 66.107 3.16418 66.0626 2.47979 65.9648C1.79541 65.867 1.25323 65.3693 1.09324 64.6938C0.942144 64.0094 1.21768 63.325 1.81318 62.9339C2.94198 62.1873 3.81301 61.1563 4.41741 59.8409C1.56431 56.5167 0 52.4193 0 48.233C0 37.6383 9.76806 29.0168 21.767 29.0168C33.766 29.0168 43.5252 37.6472 43.5252 48.2418ZM41.3476 48.2418C41.3476 38.8471 32.5572 31.2033 21.7582 31.2033C10.9591 31.2033 2.16871 38.8471 2.16871 48.2418C2.16871 52.1615 3.66191 55.8412 6.47945 58.8987C6.75499 59.2009 6.84387 59.6275 6.70166 60.0186C6.11504 61.5918 5.244 62.9073 4.09743 63.9294C6.2928 64.0094 8.29263 63.5294 9.9636 62.5251C10.1325 62.4184 10.328 62.374 10.5236 62.374C10.7102 62.374 10.8969 62.4184 11.0657 62.5162C14.2566 64.3294 17.954 65.2893 21.7582 65.2893C32.5572 65.2804 41.3476 57.6366 41.3476 48.2418Z" fill="#050505"/>
<path d="M21.7493 49.6373C20.9786 49.6373 20.3538 49.0125 20.3538 48.2418C20.3538 47.4712 20.9786 46.8464 21.7493 46.8464C22.52 46.8464 23.1447 47.4712 23.1447 48.2418C23.1447 49.0125 22.52 49.6373 21.7493 49.6373Z" fill="#050505"/>
<path d="M15.7409 49.6373C14.9702 49.6373 14.3455 49.0125 14.3455 48.2418C14.3455 47.4712 14.9702 46.8464 15.7409 46.8464C16.5116 46.8464 17.1363 47.4712 17.1363 48.2418C17.1363 49.0125 16.5116 49.6373 15.7409 49.6373Z" fill="#050505"/>
<path d="M27.7577 49.6373C26.987 49.6373 26.3622 49.0125 26.3622 48.2418C26.3622 47.4712 26.987 46.8464 27.7577 46.8464C28.5283 46.8464 29.1531 47.4712 29.1531 48.2418C29.1531 49.0125 28.5283 49.6373 27.7577 49.6373Z" fill="#050505"/>
</svg>
