<svg width="70" height="70" viewBox="0 0 70 70" fill="none" xmlns="http://www.w3.org/2000/svg">
<path d="M20.827 66.4194C19.8498 67.4908 18.9232 68.5401 17.9595 69.5541C17.4272 70.1142 16.3957 70.1402 15.9993 69.6633C15.5892 69.17 15.7892 68.2756 16.364 67.7596C18.9163 65.4682 20.6995 62.7009 21.1204 59.2551C21.3749 57.1723 21.3403 55.0533 21.406 52.9496C21.4129 52.7273 21.2755 52.4437 21.1126 52.2812C17.0598 48.2393 14.7928 43.2389 13.4421 37.7849C13.2077 36.8384 12.5953 36.455 11.9795 35.9653C9.96226 34.3615 8.37508 32.4487 7.99266 29.8284C7.66259 27.5668 7.7358 25.3057 9.39049 23.4711C10.1919 22.5826 11.2599 22.0091 12.4636 21.9574C13.9354 21.8942 15.1276 21.2638 16.1904 20.3648C18.2806 18.5968 19.9 16.485 20.6221 13.7869C20.7417 13.34 20.756 12.8649 20.8776 12.4187C21.0378 11.8306 21.592 11.5135 22.2521 11.6432C22.824 11.7555 23.0927 12.1395 23.1196 12.7405C23.2138 14.8425 22.3025 16.6195 21.2326 18.2993C19.9912 20.2483 18.4027 21.904 16.4411 23.1661C15.401 23.8353 14.2687 24.2415 13.0262 24.3156C11.5019 24.4065 10.3988 25.747 10.2747 27.4257C10.0133 30.9603 11.9331 33.1498 14.6696 34.9056C14.9782 35.1036 15.2685 35.4913 15.3581 35.8441C16.1887 39.1168 17.2162 42.3139 18.8748 45.2729C21.3269 49.6473 24.6512 53.0796 29.6094 54.4689C34.9342 55.9609 40.0828 55.4879 44.7822 52.3609C47.5415 50.5248 49.5841 48.0015 51.1333 45.0877C52.6551 42.2255 53.7796 39.2133 54.4319 36.0296C54.5344 35.5292 54.7643 35.1466 55.2797 34.8391C57.3449 33.6069 59.0576 31.9943 59.5137 29.5216C59.7965 27.9882 59.9183 26.3428 58.6162 25.1097C58.217 24.7317 57.6061 24.3636 57.0892 24.3595C54.3647 24.3376 52.5653 22.9341 51.1386 20.7685C49.5026 18.2853 47.017 17.1755 44.1643 16.8619C42.378 16.6656 40.5702 16.6717 38.774 16.5565C35.2027 16.3272 31.8319 15.4583 29.0502 13.0799C26.8662 11.2125 25.5542 8.77854 24.9582 5.97144C24.8134 5.28982 24.7032 4.59009 24.6828 3.89558C24.6577 3.04036 25.0776 2.62628 25.8261 2.61136C26.6206 2.59552 26.9872 3.00826 27.0662 3.88756C27.4698 8.38131 30.1969 12.06 34.5812 13.3635C36.558 13.9513 38.5519 14.1568 40.596 14.1755C43.1509 14.1989 45.6723 14.4739 48.0967 15.3723C49.9069 16.0431 51.3392 17.2014 52.566 18.6558C53.3139 19.5423 54.0059 20.492 54.8508 21.2757C55.5629 21.9361 56.5631 21.969 57.5109 21.9019C57.6548 21.8917 57.8765 21.6799 57.9038 21.532C58.0772 20.5933 58.2547 19.6507 58.341 18.7013C58.7135 14.6036 57.5742 10.9332 55.1368 7.64448C53.6818 5.68123 52.0169 3.92132 50.0924 2.40897C49.8574 2.22435 49.63 1.99761 49.4815 1.74244C49.1852 1.23345 49.2929 0.734988 49.7127 0.338849C50.1671 -0.0899116 50.7839 -0.0988978 51.197 0.239157C52.3839 1.21037 53.5486 2.22362 54.6118 3.32655C55.6137 4.36589 56.5498 5.48778 57.3834 6.66631C59.0608 9.03787 60.2567 11.6337 60.6113 14.5571C60.9383 17.2539 60.7703 19.9226 60.1481 22.5673C60.0976 22.7821 60.114 23.1255 60.2479 23.2528C61.2585 24.2132 61.8377 25.409 61.9739 26.7517C62.1615 28.6015 62.0819 30.4538 61.188 32.1605C60.3027 33.8507 59.0414 35.2218 57.4718 36.2871C56.9253 36.658 56.6613 37.0947 56.5026 37.7217C55.428 41.9674 53.8434 45.9938 51.1669 49.5128C50.4621 50.4394 49.6449 51.2801 48.896 52.1743C48.7252 52.3782 48.5101 52.6387 48.5075 52.8754C48.4782 55.4941 48.3424 58.1249 49.0513 60.6914C49.8342 63.5262 51.3825 65.8796 53.5936 67.8016C54.1299 68.2678 54.309 69.174 53.9115 69.6589C53.5674 70.0786 52.5866 70.1306 52.103 69.7049C49.9346 67.7959 48.2277 65.5709 47.1922 62.8303C46.3193 60.5199 46.139 58.1485 46.2277 55.7238C46.2421 55.3293 46.2297 54.9338 46.2297 54.3671C42.7128 56.5832 39.0185 57.6104 34.977 57.6079C30.9347 57.6053 27.2256 56.6321 23.6103 54.3015C24.004 58.7674 23.3668 62.8061 20.827 66.4194Z" fill="#050505"/>
<path d="M6.24906 63.0356C5.32273 60.7699 3.41825 59.9211 1.28807 59.4148C0.332753 59.1877 0.0237633 58.9558 0.00143535 58.222C-0.024483 57.3701 0.296986 57.1616 1.26095 56.8519C2.40189 56.4854 3.54253 56.0308 4.57155 55.4246C5.90513 54.6391 6.35668 53.2002 6.75696 51.7971C6.97995 51.0154 7.13369 50.2135 7.30721 49.4183C7.44571 48.7835 7.84291 48.5482 8.47254 48.5503C9.11294 48.5524 9.4788 48.8242 9.61236 49.4506C9.77727 50.224 9.9745 50.9905 10.1418 51.7634C10.7837 54.729 12.7641 56.2669 15.6044 56.8696C16.627 57.0866 16.9113 57.351 16.9151 58.1823C16.9177 58.7484 16.695 59.1139 16.1328 59.2717C15.4816 59.4545 14.8394 59.6694 14.1898 59.8586C12.3103 60.4061 11.1067 61.6775 10.4712 63.4718C10.1316 64.4307 9.92098 65.4421 9.72863 66.4444C9.5469 67.3914 9.23259 67.7329 8.38679 67.7277C7.81396 67.7242 7.45273 67.4802 7.32298 66.9168C7.13504 66.1006 6.96841 65.2789 6.75641 64.4691C6.63287 63.9971 6.43858 63.5437 6.24906 63.0356ZM8.90056 61.1807C9.55562 59.8202 10.6611 58.8941 11.9201 58.1859C11.1996 57.6038 10.4869 57.1378 9.91699 56.5365C9.35422 55.9427 8.93576 55.2122 8.4508 54.5372C7.945 55.2409 7.52262 55.9798 6.95284 56.5784C6.38491 57.1751 5.66916 57.6311 4.95134 58.2019C6.5273 59.0314 7.67592 60.2674 8.47039 61.9591C8.65907 61.6326 8.76289 61.4529 8.90056 61.1807Z" fill="#050505"/>
<path d="M69.1701 49.6948C69.8706 49.9231 69.9377 50.4376 69.9058 51.0118C69.875 51.5687 69.55 51.8209 69.0429 51.9662C68.4167 52.1457 67.7918 52.3486 67.1947 52.6069C65.7264 53.2422 65.0712 54.508 64.7064 55.9683C64.5767 56.4874 64.4965 57.0189 64.3928 57.5445C64.2144 58.4488 63.8661 58.7423 63.0207 58.702C62.3252 58.669 62.0151 58.2913 61.8717 57.445C61.7517 56.7365 61.5946 56.0293 61.3873 55.3416C60.8237 53.4717 59.4572 52.5055 57.6255 52.0753C57.0844 51.9482 56.4989 51.8478 56.3878 51.1312C56.2579 50.2935 56.5172 49.8867 57.3521 49.6227C57.9076 49.447 58.4742 49.2934 59.0087 49.0661C60.5007 48.4316 61.2001 47.1701 61.5777 45.6826C61.738 45.0511 61.8647 44.4109 61.9986 43.7729C62.1332 43.1321 62.5429 42.9071 63.1693 42.9132C63.7704 42.919 64.1506 43.1528 64.2827 43.755C64.4123 44.3462 64.5683 44.9319 64.6833 45.5258C65.1137 47.7476 66.4653 49.0521 68.6454 49.5459C68.8044 49.582 68.9592 49.6369 69.1701 49.6948ZM62.6013 52.4094C62.7813 52.6608 62.9612 52.9122 63.0818 53.0808C63.8441 52.2718 64.5678 51.5036 65.1271 50.9101C64.395 50.2057 63.6393 49.4785 63.2561 49.1099C62.636 49.6127 61.8305 50.2657 61.3587 50.6482C61.7092 51.1333 62.1365 51.7246 62.6013 52.4094Z" fill="#050505"/>
<path d="M42.4819 44.3094C40.478 46.343 38.0745 47.331 35.2932 47.4275C32.3971 47.528 29.8776 46.5814 27.7361 44.6408C27.223 44.1758 27.1953 43.3383 27.615 42.8756C28.0486 42.3976 28.7818 42.4122 29.3765 42.9107C32.7285 45.7205 36.9833 45.791 40.3565 43.0567C40.8961 42.6193 41.41 42.3248 42.0569 42.6977C42.678 43.0556 42.6037 43.6707 42.4819 44.3094Z" fill="#050505"/>
<path d="M27.6075 31.0818C25.1028 31.5714 22.7248 31.6706 20.6264 29.9606C20.4612 29.8259 20.1108 29.8433 19.8677 29.8934C19.0532 30.0611 18.5374 29.8655 18.3089 29.2425C18.0542 28.548 18.2749 28.0236 19.0086 27.644C19.339 27.4731 19.6773 27.2821 20.0344 27.2065C20.5482 27.0979 21.1092 26.9569 21.5331 27.4562C23.1055 29.3084 25.1125 29.175 27.1937 28.6988C27.5786 28.6108 27.9541 28.4722 28.3424 28.4115C28.9625 28.3147 29.4286 28.6059 29.5641 29.1947C29.6997 29.7839 29.6289 30.384 28.921 30.6422C28.5054 30.7939 28.0845 30.931 27.6075 31.0818Z" fill="#050505"/>
<path d="M40.5578 30.3818C40.2499 29.812 40.1485 29.2883 40.5699 28.7793C41.0094 28.2483 41.5604 28.3362 42.1083 28.5234C43.4849 28.9937 44.906 29.2077 46.3008 28.7919C46.9987 28.5839 47.6592 28.0879 48.2061 27.5813C48.7612 27.067 49.3085 27.0457 49.9361 27.2379C50.2686 27.3397 50.5849 27.4988 50.9016 27.647C51.5785 27.9637 51.8313 28.5132 51.6186 29.1793C51.4191 29.8041 50.8942 30.1321 50.1843 29.9077C49.6519 29.7394 49.3387 29.9047 48.9398 30.2084C47.2966 31.46 45.3788 31.5493 43.4518 31.2777C42.4792 31.1405 41.547 30.716 40.5578 30.3818Z" fill="#050505"/>
</svg>
