<svg width="500" height="500" viewBox="0 0 500 500" fill="none" xmlns="http://www.w3.org/2000/svg">
<mask id="mask0_1_366" style="mask-type:luminance" maskUnits="userSpaceOnUse" x="62" y="224" width="404" height="124">
<path d="M62.0566 224.766H465.057V347.703H62.0566V224.766Z" fill="white"/>
</mask>
<g mask="url(#mask0_1_366)">
<path d="M450.4 347.703H268.613C267.65 347.703 266.697 347.609 265.754 347.422C264.806 347.234 263.889 346.953 262.999 346.589C262.108 346.219 261.264 345.766 260.462 345.229C259.66 344.693 258.921 344.089 258.238 343.406C257.556 342.724 256.952 341.984 256.415 341.182C255.879 340.38 255.426 339.536 255.061 338.646C254.691 337.755 254.41 336.839 254.223 335.891C254.035 334.948 253.941 333.995 253.941 333.031C253.941 332.068 254.035 331.115 254.223 330.167C254.41 329.224 254.691 328.307 255.061 327.417C255.426 326.526 255.879 325.677 256.415 324.88C256.952 324.078 257.556 323.333 258.238 322.656C258.921 321.974 259.66 321.365 260.462 320.828C261.264 320.297 262.108 319.844 262.999 319.474C263.889 319.104 264.806 318.828 265.754 318.641C266.697 318.453 267.65 318.359 268.613 318.359H301.827C302.4 318.359 302.967 318.302 303.53 318.188C304.092 318.078 304.639 317.911 305.165 317.693C305.697 317.474 306.197 317.203 306.676 316.885C307.15 316.568 307.592 316.208 307.999 315.802C308.405 315.396 308.764 314.958 309.082 314.479C309.4 314.005 309.671 313.5 309.889 312.969C310.108 312.443 310.275 311.896 310.384 311.333C310.499 310.771 310.551 310.203 310.551 309.63C310.551 309.057 310.499 308.49 310.384 307.932C310.275 307.37 310.108 306.823 309.889 306.292C309.671 305.766 309.4 305.26 309.082 304.786C308.764 304.307 308.405 303.87 307.999 303.464C307.592 303.057 307.15 302.698 306.676 302.38C306.197 302.057 305.697 301.792 305.165 301.573C304.639 301.354 304.092 301.188 303.53 301.073C302.967 300.964 302.4 300.906 301.827 300.906H144.879C143.915 300.906 142.962 300.812 142.02 300.625C141.072 300.438 140.155 300.161 139.264 299.792C138.374 299.422 137.53 298.969 136.728 298.438C135.926 297.901 135.186 297.292 134.504 296.609C133.822 295.927 133.217 295.188 132.681 294.385C132.145 293.583 131.691 292.74 131.327 291.849C130.957 290.958 130.676 290.042 130.488 289.099C130.301 288.151 130.207 287.198 130.207 286.234C130.207 285.271 130.301 284.318 130.488 283.37C130.676 282.427 130.957 281.51 131.327 280.62C131.691 279.729 132.145 278.885 132.681 278.083C133.217 277.281 133.822 276.542 134.504 275.859C135.186 275.177 135.926 274.568 136.728 274.036C137.53 273.5 138.374 273.047 139.264 272.677C140.155 272.307 141.072 272.031 142.02 271.844C142.962 271.656 143.915 271.562 144.879 271.562H178.092C178.665 271.562 179.233 271.505 179.796 271.396C180.358 271.281 180.905 271.115 181.431 270.896C181.962 270.677 182.462 270.411 182.941 270.089C183.415 269.771 183.858 269.411 184.264 269.005C184.665 268.599 185.03 268.161 185.348 267.682C185.665 267.208 185.936 266.703 186.155 266.177C186.374 265.646 186.54 265.099 186.65 264.536C186.764 263.979 186.816 263.411 186.816 262.839C186.816 262.266 186.764 261.698 186.65 261.135C186.54 260.573 186.374 260.026 186.155 259.5C185.936 258.969 185.665 258.464 185.348 257.99C185.03 257.516 184.665 257.073 184.264 256.667C183.858 256.26 183.415 255.901 182.941 255.583C182.462 255.266 181.962 254.995 181.431 254.776C180.905 254.557 180.358 254.391 179.796 254.281C179.233 254.167 178.665 254.115 178.092 254.115H76.7852C75.8216 254.115 74.8685 254.021 73.9206 253.828C72.9779 253.641 72.0612 253.365 71.1706 252.995C70.2799 252.625 69.4362 252.177 68.6341 251.641C67.832 251.104 67.0924 250.495 66.4102 249.812C65.7279 249.135 65.1185 248.391 64.5872 247.589C64.0508 246.792 63.5977 245.943 63.2279 245.052C62.8581 244.167 62.582 243.245 62.3945 242.302C62.207 241.354 62.1133 240.401 62.1133 239.438C62.1133 238.474 62.207 237.521 62.3945 236.578C62.582 235.63 62.8581 234.714 63.2279 233.823C63.5977 232.932 64.0508 232.089 64.5872 231.286C65.1185 230.484 65.7279 229.745 66.4102 229.062C67.0924 228.38 67.832 227.776 68.6341 227.24C69.4362 226.703 70.2799 226.25 71.1706 225.88C72.0612 225.516 72.9779 225.234 73.9206 225.047C74.8685 224.859 75.8216 224.766 76.7852 224.766H258.572C259.535 224.766 260.493 224.859 261.436 225.047C262.379 225.234 263.301 225.516 264.191 225.88C265.077 226.25 265.926 226.703 266.728 227.24C267.525 227.776 268.27 228.38 268.952 229.062C269.629 229.745 270.238 230.484 270.775 231.286C271.311 232.089 271.759 232.932 272.129 233.823C272.499 234.714 272.775 235.63 272.967 236.578C273.155 237.521 273.249 238.474 273.249 239.438C273.249 240.401 273.155 241.354 272.967 242.302C272.775 243.245 272.499 244.167 272.129 245.052C271.759 245.943 271.311 246.792 270.775 247.589C270.238 248.391 269.629 249.135 268.952 249.812C268.27 250.495 267.525 251.104 266.728 251.641C265.926 252.177 265.077 252.625 264.191 252.995C263.301 253.365 262.379 253.641 261.436 253.828C260.493 254.021 259.535 254.115 258.572 254.115H224.191C223.618 254.115 223.051 254.167 222.488 254.281C221.926 254.391 221.384 254.557 220.853 254.776C220.322 254.995 219.822 255.266 219.342 255.583C218.868 255.901 218.426 256.26 218.02 256.667C217.618 257.073 217.254 257.516 216.936 257.99C216.618 258.464 216.348 258.969 216.129 259.5C215.91 260.026 215.743 260.573 215.634 261.135C215.525 261.698 215.467 262.266 215.467 262.839C215.467 263.411 215.525 263.974 215.639 264.536C215.754 265.099 215.921 265.641 216.139 266.172C216.358 266.698 216.629 267.198 216.947 267.677C217.264 268.151 217.629 268.589 218.03 268.995C218.436 269.401 218.879 269.76 219.353 270.078C219.827 270.401 220.332 270.667 220.858 270.885C221.384 271.109 221.931 271.276 222.493 271.385C223.051 271.5 223.618 271.557 224.191 271.562H382.306C383.27 271.562 384.228 271.656 385.171 271.844C386.118 272.031 387.035 272.307 387.926 272.677C388.811 273.047 389.66 273.5 390.462 274.036C391.259 274.568 392.004 275.177 392.686 275.859C393.363 276.542 393.973 277.281 394.509 278.083C395.046 278.885 395.493 279.729 395.863 280.62C396.233 281.51 396.514 282.427 396.702 283.37C396.889 284.318 396.983 285.271 396.983 286.234C396.983 287.198 396.889 288.151 396.702 289.099C396.514 290.042 396.233 290.958 395.863 291.849C395.493 292.74 395.046 293.583 394.509 294.385C393.973 295.188 393.363 295.927 392.686 296.609C392.004 297.292 391.259 297.901 390.462 298.438C389.66 298.969 388.811 299.422 387.926 299.792C387.035 300.161 386.118 300.438 385.171 300.625C384.228 300.812 383.27 300.906 382.306 300.906H347.926C347.353 300.906 346.785 300.964 346.223 301.073C345.66 301.188 345.118 301.354 344.587 301.573C344.056 301.792 343.556 302.057 343.077 302.38C342.603 302.698 342.16 303.057 341.754 303.464C341.353 303.87 340.988 304.307 340.671 304.786C340.353 305.26 340.082 305.766 339.863 306.292C339.645 306.823 339.478 307.37 339.368 307.932C339.259 308.49 339.202 309.057 339.202 309.63C339.202 310.203 339.259 310.771 339.374 311.333C339.488 311.896 339.655 312.438 339.874 312.969C340.092 313.495 340.363 313.995 340.681 314.474C340.999 314.948 341.358 315.391 341.764 315.792C342.171 316.198 342.608 316.557 343.087 316.88C343.561 317.198 344.061 317.464 344.592 317.688C345.118 317.906 345.665 318.073 346.228 318.182C346.785 318.297 347.353 318.354 347.926 318.359H450.4C451.363 318.359 452.316 318.453 453.264 318.641C454.207 318.828 455.124 319.104 456.014 319.474C456.905 319.844 457.749 320.297 458.551 320.828C459.353 321.365 460.092 321.974 460.775 322.656C461.457 323.333 462.066 324.078 462.598 324.88C463.134 325.677 463.587 326.526 463.957 327.417C464.327 328.307 464.603 329.224 464.79 330.167C464.978 331.115 465.072 332.068 465.072 333.031C465.072 333.995 464.978 334.948 464.79 335.891C464.603 336.839 464.327 337.755 463.957 338.646C463.587 339.536 463.134 340.38 462.598 341.182C462.066 341.984 461.457 342.724 460.775 343.406C460.092 344.089 459.353 344.693 458.551 345.229C457.749 345.766 456.905 346.219 456.014 346.589C455.124 346.953 454.207 347.234 453.264 347.422C452.316 347.609 451.363 347.703 450.4 347.703ZM450.4 322.12H347.926C347.108 322.12 346.296 322.036 345.488 321.875C344.686 321.714 343.905 321.474 343.15 321.161C342.389 320.849 341.671 320.464 340.988 320.005C340.306 319.552 339.676 319.036 339.098 318.453C338.52 317.875 337.999 317.245 337.54 316.562C337.087 315.885 336.702 315.167 336.384 314.406C336.066 313.651 335.827 312.87 335.665 312.068C335.504 311.266 335.421 310.453 335.415 309.63C335.421 308.812 335.499 308 335.66 307.193C335.822 306.385 336.061 305.604 336.374 304.849C336.686 304.089 337.072 303.37 337.53 302.688C337.988 302.005 338.504 301.37 339.087 300.792C339.665 300.208 340.296 299.693 340.978 299.234C341.66 298.781 342.384 298.391 343.139 298.078C343.9 297.766 344.681 297.526 345.488 297.365C346.29 297.203 347.103 297.12 347.926 297.12H382.306C383.025 297.12 383.733 297.052 384.436 296.911C385.139 296.771 385.822 296.562 386.483 296.292C387.145 296.016 387.77 295.682 388.368 295.281C388.962 294.885 389.514 294.432 390.02 293.927C390.525 293.422 390.978 292.87 391.374 292.276C391.775 291.677 392.108 291.052 392.384 290.391C392.66 289.729 392.863 289.047 393.004 288.344C393.145 287.641 393.212 286.932 393.212 286.214C393.212 285.5 393.145 284.792 393.004 284.089C392.863 283.385 392.66 282.703 392.384 282.042C392.108 281.38 391.775 280.75 391.374 280.156C390.978 279.562 390.525 279.01 390.02 278.505C389.514 277.995 388.962 277.547 388.368 277.146C387.77 276.75 387.145 276.411 386.483 276.141C385.822 275.865 385.139 275.656 384.436 275.521C383.733 275.38 383.025 275.307 382.306 275.307H224.191C223.368 275.307 222.556 275.224 221.754 275.062C220.947 274.901 220.165 274.661 219.41 274.349C218.65 274.031 217.931 273.646 217.249 273.193C216.566 272.734 215.936 272.214 215.353 271.635C214.775 271.052 214.254 270.422 213.801 269.74C213.342 269.057 212.957 268.339 212.645 267.578C212.327 266.823 212.087 266.042 211.926 265.234C211.764 264.432 211.686 263.62 211.681 262.797C211.686 261.974 211.764 261.161 211.926 260.359C212.087 259.552 212.327 258.771 212.639 258.016C212.952 257.255 213.337 256.536 213.796 255.854C214.254 255.172 214.77 254.542 215.353 253.958C215.931 253.38 216.561 252.859 217.243 252.406C217.931 251.948 218.65 251.562 219.405 251.25C220.165 250.932 220.947 250.698 221.754 250.536C222.556 250.375 223.368 250.292 224.191 250.292H258.572C259.29 250.292 259.999 250.224 260.702 250.083C261.405 249.943 262.087 249.74 262.749 249.464C263.41 249.188 264.035 248.854 264.634 248.453C265.228 248.057 265.78 247.604 266.285 247.099C266.79 246.594 267.243 246.042 267.639 245.448C268.04 244.849 268.374 244.224 268.65 243.562C268.926 242.901 269.129 242.219 269.27 241.516C269.41 240.812 269.478 240.104 269.478 239.385C269.478 238.672 269.41 237.964 269.27 237.26C269.129 236.557 268.926 235.875 268.65 235.214C268.374 234.552 268.04 233.922 267.639 233.328C267.243 232.734 266.79 232.182 266.285 231.677C265.78 231.172 265.228 230.719 264.634 230.318C264.035 229.922 263.41 229.589 262.749 229.312C262.087 229.036 261.405 228.833 260.702 228.693C259.999 228.552 259.29 228.479 258.572 228.479H76.7852C76.0664 228.479 75.3581 228.552 74.6549 228.693C73.957 228.833 73.2747 229.036 72.6133 229.312C71.9518 229.589 71.3216 229.922 70.7279 230.318C70.1289 230.719 69.582 231.172 69.0716 231.677C68.5664 232.182 68.1133 232.734 67.7174 233.328C67.3216 233.922 66.9831 234.552 66.707 235.214C66.4362 235.875 66.2279 236.557 66.0872 237.26C65.9466 237.964 65.8789 238.672 65.8789 239.385C65.8789 240.104 65.9466 240.812 66.0872 241.516C66.2279 242.219 66.4362 242.901 66.707 243.562C66.9831 244.224 67.3216 244.849 67.7174 245.448C68.1133 246.042 68.5664 246.594 69.0716 247.099C69.582 247.604 70.1289 248.057 70.7279 248.453C71.3216 248.854 71.9518 249.188 72.6133 249.464C73.2747 249.74 73.957 249.943 74.6549 250.083C75.3581 250.224 76.0664 250.292 76.7852 250.292H178.092C178.915 250.292 179.728 250.375 180.535 250.531C181.337 250.693 182.124 250.932 182.879 251.245C183.639 251.557 184.358 251.943 185.04 252.401C185.728 252.859 186.358 253.375 186.936 253.958C187.52 254.536 188.035 255.167 188.493 255.854C188.952 256.536 189.337 257.255 189.65 258.016C189.962 258.771 190.202 259.557 190.363 260.359C190.52 261.167 190.603 261.979 190.603 262.802C190.603 263.625 190.52 264.438 190.363 265.24C190.202 266.047 189.962 266.828 189.65 267.589C189.337 268.349 188.952 269.068 188.493 269.75C188.035 270.432 187.52 271.062 186.936 271.646C186.358 272.224 185.728 272.745 185.04 273.203C184.358 273.656 183.639 274.042 182.879 274.359C182.124 274.672 181.337 274.906 180.535 275.068C179.728 275.229 178.915 275.307 178.092 275.307H144.879C144.165 275.307 143.457 275.38 142.754 275.521C142.051 275.656 141.368 275.865 140.707 276.141C140.046 276.411 139.415 276.75 138.822 277.146C138.228 277.547 137.676 277.995 137.171 278.505C136.66 279.01 136.212 279.562 135.811 280.156C135.415 280.75 135.077 281.38 134.806 282.042C134.53 282.703 134.322 283.385 134.186 284.089C134.046 284.792 133.973 285.5 133.973 286.214C133.973 286.932 134.046 287.641 134.186 288.344C134.322 289.047 134.53 289.729 134.806 290.391C135.077 291.052 135.415 291.677 135.811 292.276C136.212 292.87 136.66 293.422 137.171 293.927C137.676 294.432 138.228 294.885 138.822 295.281C139.415 295.682 140.046 296.016 140.707 296.292C141.368 296.562 142.051 296.771 142.754 296.911C143.457 297.052 144.165 297.12 144.879 297.12H301.827C302.65 297.12 303.462 297.203 304.27 297.359C305.072 297.521 305.858 297.76 306.613 298.073C307.374 298.385 308.092 298.771 308.775 299.229C309.462 299.682 310.092 300.203 310.671 300.786C311.254 301.365 311.77 301.995 312.228 302.677C312.686 303.365 313.072 304.083 313.384 304.844C313.697 305.599 313.936 306.38 314.098 307.188C314.254 307.995 314.337 308.807 314.337 309.63C314.337 310.448 314.254 311.266 314.098 312.068C313.936 312.875 313.697 313.656 313.384 314.417C313.072 315.172 312.686 315.896 312.228 316.578C311.77 317.26 311.254 317.891 310.671 318.474C310.092 319.052 309.462 319.573 308.775 320.026C308.092 320.484 307.374 320.87 306.613 321.182C305.858 321.5 305.072 321.734 304.27 321.896C303.462 322.057 302.65 322.135 301.827 322.135H268.613C267.9 322.135 267.191 322.208 266.488 322.344C265.785 322.484 265.103 322.693 264.441 322.969C263.78 323.24 263.15 323.578 262.556 323.974C261.962 324.37 261.41 324.823 260.905 325.328C260.4 325.839 259.947 326.385 259.546 326.984C259.15 327.578 258.811 328.208 258.54 328.87C258.264 329.531 258.061 330.214 257.921 330.917C257.78 331.615 257.707 332.328 257.707 333.042C257.707 333.76 257.78 334.469 257.921 335.172C258.061 335.87 258.264 336.552 258.54 337.214C258.811 337.875 259.15 338.505 259.546 339.099C259.947 339.698 260.4 340.245 260.905 340.755C261.41 341.26 261.962 341.714 262.556 342.109C263.15 342.505 263.78 342.844 264.441 343.12C265.103 343.391 265.785 343.599 266.488 343.74C267.191 343.88 267.9 343.948 268.613 343.948H450.4C451.118 343.948 451.827 343.88 452.53 343.74C453.228 343.599 453.91 343.391 454.572 343.12C455.233 342.844 455.863 342.505 456.457 342.109C457.056 341.714 457.603 341.26 458.113 340.755C458.618 340.245 459.072 339.698 459.467 339.099C459.863 338.505 460.202 337.875 460.478 337.214C460.749 336.552 460.957 335.87 461.098 335.172C461.238 334.469 461.306 333.76 461.306 333.042C461.306 332.328 461.238 331.615 461.098 330.917C460.957 330.214 460.749 329.531 460.478 328.87C460.202 328.208 459.863 327.578 459.467 326.984C459.072 326.385 458.618 325.839 458.113 325.328C457.603 324.823 457.056 324.37 456.457 323.974C455.863 323.578 455.233 323.24 454.572 322.969C453.91 322.693 453.228 322.484 452.53 322.344C451.827 322.208 451.118 322.135 450.4 322.135V322.12ZM168.65 319.589H222.848C223.738 319.573 224.624 319.646 225.499 319.807C226.379 319.969 227.233 320.214 228.061 320.547C228.889 320.875 229.676 321.286 230.421 321.771C231.171 322.26 231.858 322.818 232.499 323.443C233.134 324.068 233.702 324.75 234.202 325.49C234.702 326.224 235.124 327.005 235.467 327.828C235.811 328.651 236.072 329.5 236.249 330.375C236.426 331.25 236.514 332.13 236.514 333.026C236.514 333.917 236.426 334.797 236.249 335.672C236.072 336.547 235.811 337.396 235.467 338.219C235.124 339.042 234.702 339.823 234.202 340.562C233.702 341.297 233.134 341.979 232.499 342.604C231.858 343.229 231.171 343.786 230.421 344.276C229.676 344.76 228.889 345.172 228.061 345.5C227.233 345.833 226.379 346.078 225.499 346.24C224.624 346.401 223.738 346.474 222.848 346.458H168.65C167.759 346.474 166.874 346.401 165.999 346.24C165.118 346.078 164.27 345.833 163.441 345.5C162.608 345.172 161.822 344.76 161.077 344.276C160.327 343.786 159.639 343.229 159.004 342.604C158.363 341.979 157.796 341.297 157.296 340.562C156.796 339.823 156.374 339.042 156.03 338.219C155.686 337.396 155.426 336.547 155.249 335.672C155.072 334.797 154.983 333.917 154.983 333.026C154.983 332.13 155.072 331.25 155.249 330.375C155.426 329.5 155.686 328.651 156.03 327.828C156.374 327.005 156.796 326.224 157.296 325.49C157.796 324.75 158.363 324.068 159.004 323.443C159.639 322.818 160.327 322.26 161.077 321.771C161.822 321.286 162.608 320.875 163.441 320.547C164.27 320.214 165.118 319.969 165.999 319.807C166.874 319.646 167.759 319.573 168.65 319.589ZM161.827 339.859C162.728 340.766 163.775 341.464 164.957 341.953C166.139 342.443 167.368 342.682 168.65 342.677H222.848C223.488 342.693 224.124 342.641 224.759 342.526C225.389 342.411 226.004 342.24 226.603 342C227.197 341.766 227.764 341.469 228.306 341.12C228.842 340.771 229.342 340.37 229.801 339.922C230.259 339.474 230.671 338.979 231.03 338.448C231.389 337.917 231.697 337.359 231.947 336.766C232.191 336.172 232.384 335.562 232.509 334.932C232.634 334.302 232.697 333.667 232.697 333.026C232.697 332.38 232.634 331.745 232.509 331.115C232.384 330.484 232.191 329.875 231.947 329.281C231.697 328.693 231.389 328.13 231.03 327.599C230.671 327.068 230.259 326.578 229.801 326.125C229.342 325.677 228.842 325.276 228.306 324.927C227.764 324.578 227.197 324.286 226.603 324.047C226.004 323.812 225.389 323.635 224.759 323.521C224.124 323.406 223.488 323.354 222.848 323.37H168.65C167.697 323.37 166.759 323.505 165.842 323.781C164.926 324.057 164.072 324.458 163.28 324.99C162.483 325.521 161.78 326.156 161.176 326.896C160.566 327.635 160.082 328.443 159.717 329.328C159.348 330.214 159.118 331.13 159.03 332.083C158.936 333.031 158.983 333.979 159.171 334.917C159.358 335.854 159.676 336.74 160.129 337.583C160.582 338.427 161.15 339.182 161.827 339.859Z" fill="#6794B6"/>
</g>
<mask id="mask1_1_366" style="mask-type:luminance" maskUnits="userSpaceOnUse" x="156" y="372" width="84" height="30">
<path d="M156.25 372H240V401.578H156.25V372Z" fill="white"/>
</mask>
<g mask="url(#mask1_1_366)">
<path d="M227.427 481.964H-19.7917C-20.6094 481.964 -21.4167 481.885 -22.2135 481.724C-23.0156 481.562 -23.7917 481.328 -24.5469 481.016C-25.3021 480.703 -26.0156 480.323 -26.6979 479.87C-27.375 479.417 -28 478.901 -28.5781 478.323C-29.1562 477.745 -29.6719 477.12 -30.125 476.438C-30.5781 475.76 -30.9583 475.047 -31.2708 474.292C-31.5833 473.536 -31.8229 472.76 -31.9792 471.958C-32.1406 471.161 -32.2188 470.349 -32.2188 469.536C-32.2188 468.719 -32.1406 467.911 -31.9792 467.109C-31.8229 466.307 -31.5833 465.531 -31.2708 464.781C-30.9583 464.026 -30.5781 463.307 -30.125 462.63C-29.6719 461.953 -29.1562 461.323 -28.5781 460.745C-28 460.172 -27.375 459.656 -26.6979 459.203C-26.0156 458.75 -25.3021 458.365 -24.5469 458.052C-23.7917 457.74 -23.0156 457.505 -22.2135 457.344C-21.4167 457.188 -20.6094 457.104 -19.7917 457.104H16.2188C16.7917 457.099 17.3594 457.036 17.9219 456.922C18.4844 456.802 19.0312 456.63 19.5573 456.406C20.0885 456.182 20.5885 455.911 21.0625 455.589C21.5365 455.266 21.9792 454.901 22.3802 454.49C22.7865 454.083 23.1458 453.641 23.4635 453.161C23.7812 452.682 24.0469 452.177 24.2656 451.646C24.4844 451.115 24.6458 450.568 24.7604 450.005C24.8698 449.438 24.9271 448.87 24.9271 448.297C24.9271 447.724 24.8698 447.156 24.7604 446.589C24.6458 446.026 24.4844 445.479 24.2656 444.948C24.0469 444.417 23.7812 443.911 23.4635 443.432C23.1458 442.958 22.7865 442.51 22.3802 442.104C21.9792 441.698 21.5365 441.328 21.0625 441.005C20.5885 440.688 20.0885 440.411 19.5573 440.188C19.0312 439.964 18.4844 439.792 17.9219 439.672C17.3594 439.557 16.7917 439.495 16.2188 439.49H-54.3542C-55.1667 439.484 -55.974 439.406 -56.776 439.245C-57.5781 439.089 -58.3542 438.849 -59.1042 438.536C-59.8594 438.224 -60.5729 437.844 -61.25 437.391C-61.9323 436.938 -62.5573 436.422 -63.1354 435.844C-63.7083 435.266 -64.224 434.641 -64.6771 433.958C-65.1302 433.281 -65.5104 432.568 -65.8229 431.812C-66.1354 431.057 -66.3698 430.281 -66.5312 429.484C-66.6875 428.682 -66.7708 427.875 -66.7708 427.057C-66.7708 426.245 -66.6875 425.438 -66.5312 424.635C-66.3698 423.839 -66.1354 423.057 -65.8229 422.307C-65.5104 421.552 -65.1302 420.839 -64.6771 420.156C-64.224 419.479 -63.7083 418.854 -63.1354 418.276C-62.5573 417.698 -61.9323 417.182 -61.25 416.729C-60.5729 416.276 -59.8594 415.891 -59.1042 415.578C-58.3542 415.266 -57.5781 415.031 -56.776 414.87C-55.974 414.714 -55.1667 414.63 -54.3542 414.63H-38C-37.4271 414.625 -36.8594 414.562 -36.2969 414.443C-35.7344 414.328 -35.1927 414.156 -34.6615 413.932C-34.1354 413.708 -33.6302 413.432 -33.1562 413.109C-32.6823 412.786 -32.2448 412.422 -31.8385 412.016C-31.4375 411.604 -31.0729 411.161 -30.7604 410.682C-30.4427 410.203 -30.1719 409.698 -29.9583 409.167C-29.7396 408.635 -29.5729 408.089 -29.4635 407.526C-29.349 406.964 -29.2969 406.396 -29.2969 405.823C-29.2969 405.245 -29.349 404.677 -29.4635 404.115C-29.5729 403.552 -29.7396 403.005 -29.9583 402.474C-30.1719 401.943 -30.4427 401.438 -30.7604 400.958C-31.0729 400.479 -31.4375 400.036 -31.8385 399.63C-32.2448 399.219 -32.6823 398.854 -33.1562 398.531C-33.6302 398.208 -34.1354 397.938 -34.6615 397.714C-35.1927 397.49 -35.7344 397.318 -36.2969 397.198C-36.8594 397.083 -37.4271 397.021 -38 397.01H-112.677C-113.49 397.005 -114.292 396.917 -115.083 396.75C-115.88 396.589 -116.651 396.349 -117.396 396.031C-118.146 395.714 -118.854 395.328 -119.526 394.875C-120.198 394.422 -120.818 393.906 -121.385 393.328C-121.958 392.75 -122.469 392.125 -122.917 391.448C-123.365 390.776 -123.74 390.062 -124.052 389.312C-124.359 388.562 -124.589 387.786 -124.75 386.995C-124.906 386.198 -124.984 385.396 -124.984 384.583C-124.984 383.771 -124.906 382.969 -124.75 382.172C-124.589 381.375 -124.359 380.604 -124.052 379.854C-123.74 379.104 -123.365 378.391 -122.917 377.714C-122.469 377.042 -121.958 376.411 -121.385 375.839C-120.818 375.26 -120.198 374.745 -119.526 374.292C-118.854 373.839 -118.146 373.453 -117.396 373.135C-116.651 372.818 -115.88 372.578 -115.083 372.411C-114.292 372.25 -113.49 372.161 -112.677 372.156H134.542C135.354 372.161 136.156 372.25 136.948 372.411C137.745 372.578 138.516 372.818 139.26 373.135C140.01 373.453 140.719 373.839 141.391 374.292C142.062 374.745 142.682 375.26 143.25 375.839C143.823 376.411 144.333 377.042 144.781 377.714C145.229 378.391 145.604 379.104 145.917 379.854C146.224 380.604 146.453 381.375 146.615 382.172C146.771 382.969 146.849 383.771 146.849 384.583C146.849 385.396 146.771 386.198 146.615 386.995C146.453 387.786 146.224 388.562 145.917 389.312C145.604 390.062 145.229 390.776 144.781 391.448C144.333 392.125 143.823 392.75 143.25 393.328C142.682 393.906 142.062 394.422 141.391 394.875C140.719 395.328 140.01 395.714 139.26 396.031C138.516 396.349 137.745 396.589 136.948 396.75C136.156 396.917 135.354 397.005 134.542 397.01H116.781C116.208 397.021 115.641 397.083 115.078 397.198C114.516 397.318 113.969 397.49 113.443 397.714C112.911 397.938 112.411 398.208 111.938 398.531C111.464 398.854 111.021 399.219 110.62 399.63C110.214 400.036 109.854 400.479 109.536 400.958C109.219 401.438 108.953 401.943 108.734 402.474C108.516 403.005 108.354 403.552 108.24 404.115C108.13 404.677 108.073 405.245 108.073 405.823C108.073 406.396 108.13 406.964 108.24 407.526C108.354 408.089 108.516 408.635 108.734 409.167C108.953 409.698 109.219 410.203 109.536 410.682C109.854 411.161 110.214 411.604 110.62 412.016C111.021 412.422 111.464 412.786 111.938 413.109C112.411 413.432 112.911 413.708 113.443 413.932C113.969 414.156 114.516 414.328 115.078 414.443C115.641 414.562 116.208 414.625 116.781 414.63H192.865C193.682 414.63 194.49 414.708 195.286 414.87C196.089 415.031 196.865 415.266 197.62 415.578C198.375 415.891 199.089 416.271 199.771 416.724C200.448 417.177 201.073 417.693 201.651 418.271C202.229 418.849 202.745 419.474 203.198 420.156C203.651 420.833 204.031 421.547 204.344 422.302C204.656 423.057 204.896 423.833 205.052 424.635C205.214 425.438 205.292 426.245 205.292 427.057C205.292 427.875 205.214 428.682 205.052 429.484C204.896 430.286 204.656 431.063 204.344 431.818C204.031 432.568 203.651 433.286 203.198 433.964C202.745 434.641 202.229 435.271 201.651 435.849C201.073 436.422 200.448 436.938 199.771 437.391C199.089 437.844 198.375 438.229 197.62 438.542C196.865 438.854 196.089 439.089 195.286 439.25C194.49 439.406 193.682 439.49 192.865 439.49H155.979C155.406 439.495 154.839 439.557 154.276 439.672C153.714 439.792 153.167 439.964 152.641 440.188C152.109 440.411 151.609 440.688 151.135 441.005C150.661 441.328 150.219 441.698 149.818 442.104C149.411 442.51 149.052 442.958 148.734 443.432C148.417 443.911 148.151 444.417 147.932 444.948C147.714 445.479 147.552 446.026 147.438 446.589C147.328 447.156 147.271 447.724 147.271 448.297C147.271 448.87 147.328 449.438 147.438 450.005C147.552 450.568 147.714 451.115 147.932 451.646C148.151 452.177 148.417 452.682 148.734 453.161C149.052 453.641 149.411 454.083 149.818 454.49C150.219 454.901 150.661 455.266 151.135 455.589C151.609 455.911 152.109 456.182 152.641 456.406C153.167 456.63 153.714 456.802 154.276 456.922C154.839 457.036 155.406 457.099 155.979 457.104H227.427C228.245 457.109 229.052 457.188 229.849 457.349C230.651 457.51 231.427 457.745 232.182 458.057C232.932 458.37 233.646 458.755 234.328 459.208C235.005 459.661 235.63 460.177 236.208 460.755C236.781 461.328 237.297 461.958 237.75 462.635C238.203 463.312 238.583 464.031 238.896 464.781C239.208 465.536 239.443 466.312 239.604 467.115C239.76 467.911 239.839 468.719 239.839 469.536C239.839 470.349 239.76 471.156 239.604 471.958C239.443 472.755 239.208 473.531 238.896 474.286C238.583 475.042 238.203 475.755 237.75 476.432C237.297 477.115 236.781 477.74 236.208 478.318C235.63 478.896 235.005 479.411 234.328 479.865C233.646 480.318 232.932 480.698 232.182 481.01C231.427 481.323 230.651 481.563 229.849 481.719C229.052 481.88 228.245 481.964 227.427 481.964ZM-19.7917 460.724C-20.3646 460.734 -20.9323 460.797 -21.4948 460.911C-22.0573 461.031 -22.6042 461.203 -23.1302 461.427C-23.6615 461.651 -24.1615 461.922 -24.6354 462.245C-25.1094 462.568 -25.5521 462.932 -25.9531 463.344C-26.3594 463.75 -26.7187 464.193 -27.0365 464.672C-27.349 465.151 -27.6198 465.656 -27.8385 466.188C-28.0521 466.719 -28.2187 467.266 -28.3281 467.828C-28.4427 468.391 -28.4948 468.964 -28.4948 469.536C-28.4948 470.109 -28.4427 470.677 -28.3281 471.24C-28.2187 471.807 -28.0521 472.354 -27.8385 472.885C-27.6198 473.411 -27.349 473.917 -27.0365 474.396C-26.7187 474.875 -26.3594 475.318 -25.9531 475.729C-25.5521 476.135 -25.1094 476.5 -24.6354 476.823C-24.1615 477.146 -23.6615 477.422 -23.1302 477.646C-22.6042 477.87 -22.0573 478.042 -21.4948 478.156C-20.9323 478.276 -20.3646 478.339 -19.7917 478.344H227.427C228.005 478.339 228.573 478.276 229.135 478.156C229.693 478.042 230.24 477.87 230.771 477.646C231.297 477.422 231.797 477.146 232.276 476.823C232.75 476.5 233.188 476.135 233.594 475.729C233.995 475.318 234.354 474.875 234.672 474.396C234.99 473.917 235.255 473.411 235.474 472.885C235.693 472.354 235.859 471.807 235.969 471.24C236.078 470.677 236.135 470.109 236.135 469.536C236.135 468.964 236.078 468.391 235.969 467.828C235.859 467.266 235.693 466.719 235.474 466.188C235.255 465.656 234.99 465.151 234.672 464.672C234.354 464.193 233.995 463.75 233.594 463.344C233.188 462.932 232.75 462.568 232.276 462.245C231.797 461.922 231.297 461.651 230.771 461.427C230.24 461.203 229.693 461.031 229.135 460.911C228.573 460.797 228.005 460.734 227.427 460.724H155.979C155.167 460.719 154.365 460.63 153.573 460.464C152.776 460.302 152.005 460.062 151.26 459.745C150.516 459.427 149.807 459.042 149.135 458.589C148.464 458.135 147.839 457.62 147.271 457.042C146.698 456.464 146.193 455.839 145.745 455.161C145.297 454.49 144.917 453.776 144.609 453.026C144.297 452.276 144.068 451.5 143.911 450.708C143.75 449.911 143.672 449.109 143.672 448.297C143.672 447.484 143.75 446.682 143.911 445.885C144.068 445.094 144.297 444.318 144.609 443.568C144.917 442.818 145.297 442.104 145.745 441.432C146.193 440.755 146.698 440.13 147.271 439.552C147.839 438.974 148.464 438.458 149.135 438.005C149.807 437.552 150.516 437.167 151.26 436.849C152.005 436.531 152.776 436.292 153.573 436.13C154.365 435.964 155.167 435.875 155.979 435.87H192.87C193.448 435.87 194.021 435.812 194.583 435.698C195.151 435.589 195.703 435.417 196.24 435.198C196.771 434.974 197.281 434.703 197.76 434.385C198.24 434.063 198.688 433.698 199.094 433.286C199.505 432.88 199.87 432.432 200.193 431.953C200.51 431.474 200.786 430.964 201.005 430.432C201.229 429.896 201.396 429.344 201.505 428.776C201.62 428.208 201.677 427.635 201.677 427.057C201.677 426.479 201.62 425.906 201.505 425.339C201.396 424.771 201.229 424.224 201.005 423.688C200.786 423.156 200.51 422.646 200.193 422.167C199.87 421.682 199.505 421.24 199.094 420.828C198.688 420.422 198.24 420.057 197.76 419.734C197.281 419.411 196.771 419.141 196.24 418.922C195.703 418.698 195.151 418.531 194.583 418.422C194.021 418.307 193.448 418.25 192.87 418.25H116.786C115.974 418.24 115.172 418.156 114.375 417.99C113.583 417.823 112.812 417.583 112.068 417.271C111.318 416.953 110.609 416.568 109.938 416.115C109.266 415.656 108.646 415.141 108.073 414.568C107.505 413.99 106.995 413.365 106.547 412.688C106.099 412.01 105.719 411.297 105.411 410.547C105.104 409.797 104.87 409.026 104.714 408.229C104.557 407.438 104.479 406.63 104.479 405.823C104.479 405.01 104.557 404.208 104.714 403.411C104.87 402.615 105.104 401.844 105.411 401.094C105.719 400.344 106.099 399.63 106.547 398.953C106.995 398.276 107.505 397.651 108.073 397.078C108.646 396.5 109.266 395.984 109.938 395.531C110.609 395.073 111.318 394.688 112.068 394.375C112.812 394.057 113.583 393.818 114.375 393.651C115.172 393.49 115.974 393.401 116.786 393.391H134.547C135.12 393.385 135.688 393.323 136.25 393.208C136.812 393.089 137.359 392.917 137.885 392.693C138.417 392.469 138.917 392.193 139.391 391.87C139.865 391.552 140.307 391.182 140.708 390.776C141.115 390.37 141.474 389.922 141.792 389.448C142.104 388.969 142.375 388.464 142.594 387.932C142.812 387.401 142.974 386.854 143.089 386.286C143.198 385.724 143.255 385.156 143.255 384.583C143.255 384.01 143.198 383.438 143.089 382.875C142.974 382.312 142.812 381.766 142.594 381.234C142.375 380.703 142.104 380.198 141.792 379.719C141.474 379.24 141.115 378.797 140.708 378.391C140.307 377.979 139.865 377.615 139.391 377.292C138.917 376.969 138.417 376.698 137.885 376.474C137.359 376.25 136.812 376.078 136.25 375.958C135.688 375.844 135.12 375.781 134.547 375.771H-112.677C-113.25 375.781 -113.818 375.844 -114.38 375.958C-114.943 376.078 -115.49 376.25 -116.016 376.474C-116.547 376.698 -117.047 376.969 -117.521 377.292C-118 377.615 -118.438 377.979 -118.839 378.391C-119.245 378.797 -119.604 379.24 -119.922 379.719C-120.24 380.198 -120.505 380.703 -120.724 381.234C-120.943 381.766 -121.109 382.312 -121.219 382.875C-121.328 383.438 -121.385 384.01 -121.385 384.583C-121.385 385.156 -121.328 385.724 -121.219 386.286C-121.109 386.854 -120.943 387.401 -120.724 387.932C-120.505 388.464 -120.24 388.969 -119.922 389.448C-119.604 389.922 -119.245 390.37 -118.839 390.776C-118.438 391.182 -118 391.552 -117.521 391.87C-117.047 392.193 -116.547 392.469 -116.016 392.693C-115.49 392.917 -114.943 393.089 -114.38 393.203C-113.818 393.323 -113.25 393.385 -112.677 393.391H-38C-37.1927 393.401 -36.3906 393.49 -35.5938 393.651C-34.8021 393.818 -34.0312 394.057 -33.2812 394.375C-32.5365 394.688 -31.8281 395.073 -31.1562 395.531C-30.4844 395.984 -29.8646 396.5 -29.2917 397.078C-28.724 397.651 -28.2135 398.276 -27.7656 398.953C-27.3177 399.63 -26.9375 400.344 -26.6302 401.094C-26.3229 401.844 -26.0885 402.615 -25.9323 403.411C-25.776 404.208 -25.6927 405.01 -25.6927 405.823C-25.6927 406.63 -25.776 407.438 -25.9323 408.229C-26.0885 409.026 -26.3229 409.797 -26.6302 410.547C-26.9375 411.297 -27.3177 412.01 -27.7656 412.688C-28.2135 413.365 -28.724 413.99 -29.2917 414.568C-29.8646 415.141 -30.4844 415.656 -31.1562 416.115C-31.8281 416.568 -32.5365 416.953 -33.2812 417.271C-34.0312 417.583 -34.8021 417.823 -35.5938 417.99C-36.3906 418.156 -37.1927 418.24 -38 418.25H-54.3542C-54.9323 418.25 -55.5052 418.307 -56.0729 418.422C-56.6406 418.531 -57.1875 418.698 -57.724 418.922C-58.2604 419.141 -58.7656 419.411 -59.2448 419.734C-59.7292 420.057 -60.1719 420.422 -60.5833 420.828C-60.9896 421.24 -61.3542 421.682 -61.6771 422.167C-62 422.646 -62.2708 423.156 -62.4896 423.688C-62.7135 424.224 -62.8802 424.771 -62.9948 425.339C-63.1042 425.906 -63.1615 426.479 -63.1615 427.057C-63.1615 427.635 -63.1042 428.208 -62.9948 428.776C-62.8802 429.344 -62.7135 429.896 -62.4896 430.432C-62.2708 430.964 -62 431.474 -61.6771 431.953C-61.3542 432.432 -60.9896 432.88 -60.5833 433.286C-60.1719 433.698 -59.7292 434.063 -59.2448 434.385C-58.7656 434.703 -58.2604 434.974 -57.724 435.198C-57.1875 435.417 -56.6406 435.589 -56.0729 435.698C-55.5052 435.812 -54.9323 435.87 -54.3542 435.87H16.224C17.0312 435.875 17.8333 435.964 18.6302 436.13C19.4219 436.292 20.1927 436.531 20.9427 436.849C21.6875 437.167 22.3958 437.552 23.0677 438.005C23.7396 438.458 24.3594 438.974 24.9323 439.552C25.5 440.13 26.0104 440.755 26.4583 441.432C26.9062 442.104 27.2865 442.818 27.5938 443.568C27.901 444.318 28.1354 445.094 28.2917 445.885C28.4479 446.682 28.526 447.484 28.526 448.297C28.526 449.109 28.4479 449.911 28.2917 450.708C28.1354 451.5 27.901 452.276 27.5938 453.026C27.2865 453.776 26.9062 454.49 26.4583 455.161C26.0104 455.839 25.5 456.464 24.9323 457.042C24.3594 457.62 23.7396 458.135 23.0677 458.589C22.3958 459.042 21.6875 459.427 20.9427 459.745C20.1927 460.062 19.4219 460.302 18.6302 460.464C17.8333 460.63 17.0312 460.719 16.224 460.724H-19.7917Z" fill="#6794B6"/>
</g>
<mask id="mask2_1_366" style="mask-type:luminance" maskUnits="userSpaceOnUse" x="161" y="370" width="27" height="28">
<path d="M161.334 370.578H188.001V397.333H161.334V370.578Z" fill="white"/>
</mask>
<g mask="url(#mask2_1_366)">
<path d="M174.72 396.698C173.866 396.698 173.017 396.615 172.178 396.448C171.335 396.281 170.517 396.036 169.725 395.708C168.934 395.38 168.184 394.979 167.47 394.5C166.757 394.026 166.1 393.484 165.491 392.875C164.887 392.271 164.345 391.615 163.871 390.901C163.392 390.188 162.991 389.432 162.663 388.641C162.335 387.849 162.09 387.036 161.923 386.193C161.751 385.354 161.668 384.505 161.668 383.646C161.668 382.792 161.751 381.943 161.923 381.104C162.09 380.26 162.335 379.443 162.663 378.651C162.991 377.859 163.392 377.109 163.871 376.396C164.345 375.682 164.887 375.026 165.491 374.417C166.1 373.812 166.757 373.271 167.47 372.797C168.184 372.318 168.934 371.917 169.725 371.589C170.517 371.26 171.335 371.016 172.178 370.849C173.017 370.677 173.866 370.594 174.72 370.594C175.579 370.594 176.428 370.677 177.267 370.849C178.111 371.016 178.923 371.26 179.72 371.589C180.512 371.917 181.262 372.318 181.975 372.797C182.689 373.271 183.345 373.812 183.954 374.417C184.559 375.026 185.1 375.682 185.574 376.396C186.053 377.109 186.454 377.859 186.783 378.651C187.111 379.443 187.355 380.26 187.522 381.099C187.689 381.943 187.777 382.792 187.777 383.646C187.772 384.505 187.689 385.354 187.522 386.193C187.355 387.031 187.105 387.849 186.777 388.641C186.449 389.432 186.048 390.182 185.569 390.896C185.095 391.609 184.553 392.266 183.949 392.875C183.34 393.479 182.684 394.021 181.97 394.495C181.257 394.974 180.507 395.375 179.715 395.703C178.923 396.031 178.111 396.281 177.267 396.448C176.428 396.615 175.579 396.698 174.72 396.698ZM174.72 374.214C174.105 374.214 173.491 374.276 172.882 374.396C172.272 374.516 171.684 374.693 171.111 374.932C170.538 375.167 169.996 375.458 169.48 375.802C168.965 376.146 168.491 376.536 168.053 376.974C167.611 377.417 167.22 377.891 166.876 378.406C166.533 378.922 166.241 379.464 166.007 380.036C165.767 380.609 165.59 381.198 165.47 381.807C165.345 382.417 165.288 383.026 165.288 383.646C165.288 384.266 165.345 384.88 165.47 385.49C165.59 386.094 165.767 386.688 166.007 387.255C166.241 387.828 166.533 388.375 166.876 388.891C167.22 389.406 167.611 389.88 168.048 390.318C168.486 390.755 168.965 391.146 169.48 391.49C169.996 391.839 170.538 392.125 171.111 392.365C171.684 392.599 172.272 392.781 172.882 392.901C173.486 393.021 174.1 393.083 174.72 393.083C175.34 393.083 175.954 393.021 176.564 392.901C177.168 392.781 177.762 392.599 178.329 392.365C178.902 392.125 179.449 391.839 179.965 391.495C180.475 391.146 180.954 390.755 181.392 390.318C181.829 389.88 182.22 389.406 182.564 388.891C182.908 388.375 183.199 387.833 183.439 387.26C183.673 386.688 183.855 386.094 183.975 385.49C184.095 384.88 184.158 384.266 184.158 383.646C184.158 383.031 184.095 382.417 183.975 381.807C183.85 381.203 183.673 380.609 183.434 380.036C183.199 379.469 182.908 378.922 182.564 378.406C182.22 377.896 181.829 377.417 181.392 376.979C180.954 376.542 180.475 376.151 179.96 375.807C179.449 375.464 178.902 375.172 178.329 374.932C177.762 374.698 177.168 374.516 176.564 374.396C175.954 374.271 175.34 374.214 174.72 374.214Z" fill="#6794B6"/>
</g>
<mask id="mask3_1_366" style="mask-type:luminance" maskUnits="userSpaceOnUse" x="197" y="370" width="29" height="28">
<path d="M197.334 370.578H225.334V397.333H197.334V370.578Z" fill="white"/>
</mask>
<g mask="url(#mask3_1_366)">
<path d="M211.689 396.698C210.829 396.698 209.98 396.615 209.142 396.448C208.298 396.281 207.486 396.036 206.694 395.708C205.902 395.38 205.147 394.974 204.434 394.5C203.725 394.026 203.064 393.484 202.46 392.875C201.85 392.271 201.314 391.609 200.835 390.901C200.361 390.188 199.96 389.432 199.632 388.641C199.303 387.849 199.053 387.036 198.887 386.193C198.72 385.354 198.637 384.505 198.637 383.646C198.637 382.792 198.72 381.943 198.887 381.099C199.053 380.26 199.303 379.443 199.632 378.651C199.96 377.859 200.361 377.109 200.835 376.396C201.314 375.682 201.855 375.026 202.46 374.417C203.064 373.812 203.725 373.271 204.439 372.797C205.152 372.318 205.902 371.917 206.694 371.589C207.486 371.26 208.303 371.016 209.142 370.844C209.986 370.677 210.829 370.594 211.689 370.594C212.548 370.594 213.397 370.677 214.236 370.849C215.074 371.016 215.892 371.26 216.684 371.589C217.475 371.917 218.225 372.318 218.939 372.797C219.652 373.271 220.314 373.812 220.918 374.417C221.522 375.026 222.064 375.682 222.543 376.396C223.017 377.109 223.418 377.859 223.746 378.651C224.074 379.443 224.324 380.26 224.491 381.104C224.658 381.943 224.741 382.792 224.741 383.646C224.741 384.505 224.658 385.354 224.486 386.193C224.319 387.031 224.074 387.849 223.741 388.641C223.413 389.432 223.012 390.182 222.538 390.896C222.059 391.609 221.517 392.266 220.913 392.875C220.309 393.479 219.647 394.021 218.934 394.495C218.225 394.974 217.47 395.375 216.678 395.703C215.887 396.031 215.074 396.281 214.23 396.448C213.392 396.615 212.543 396.698 211.689 396.698ZM211.689 374.214C211.069 374.214 210.454 374.276 209.845 374.396C209.241 374.516 208.647 374.693 208.079 374.932C207.507 375.167 206.96 375.458 206.444 375.802C205.928 376.146 205.454 376.536 205.017 376.979C204.579 377.417 204.189 377.891 203.845 378.406C203.501 378.922 203.21 379.464 202.97 380.036C202.736 380.609 202.553 381.198 202.434 381.807C202.314 382.417 202.251 383.026 202.251 383.646C202.251 384.266 202.314 384.88 202.434 385.49C202.553 386.094 202.736 386.688 202.97 387.26C203.21 387.828 203.501 388.375 203.845 388.891C204.189 389.406 204.579 389.88 205.017 390.318C205.454 390.755 205.928 391.146 206.444 391.495C206.96 391.839 207.507 392.125 208.079 392.365C208.647 392.599 209.241 392.781 209.845 392.901C210.454 393.021 211.069 393.083 211.689 393.083C212.309 393.083 212.918 393.021 213.527 392.901C214.137 392.781 214.725 392.599 215.298 392.365C215.871 392.125 216.413 391.839 216.928 391.495C217.444 391.146 217.918 390.755 218.361 390.318C218.798 389.88 219.189 389.406 219.533 388.891C219.876 388.375 220.168 387.828 220.402 387.26C220.642 386.688 220.819 386.094 220.939 385.49C221.059 384.88 221.121 384.266 221.121 383.646C221.121 383.026 221.059 382.417 220.939 381.807C220.819 381.198 220.637 380.609 220.402 380.036C220.163 379.469 219.871 378.922 219.527 378.406C219.184 377.891 218.793 377.417 218.355 376.979C217.918 376.542 217.444 376.151 216.928 375.802C216.413 375.458 215.871 375.172 215.298 374.932C214.725 374.693 214.137 374.516 213.527 374.396C212.918 374.271 212.309 374.214 211.689 374.214Z" fill="#6794B6"/>
</g>
<path d="M39.1621 213.472C36.2142 213.472 33.1309 212.732 29.9121 211.263C26.6882 209.779 23.7715 207.201 21.1621 203.534L23.1204 202.201C24.9538 204.815 27.0788 206.878 29.4954 208.388C31.9225 209.888 34.4121 210.821 36.9538 211.18C39.4954 211.529 41.9017 211.362 44.1829 210.68C46.459 210.003 48.4121 208.774 50.0371 206.992C51.6621 205.216 52.709 202.94 53.1829 200.159C53.7663 196.857 52.8392 193.696 50.4121 190.68C47.9954 187.67 44.6882 185.242 40.4954 183.409C40.2559 183.3 40.0215 183.17 39.7871 183.013C39.5475 182.862 39.2871 182.758 38.9954 182.701C37.6309 182.05 36.0059 181.222 34.1204 180.222C32.2298 179.211 30.3809 177.951 28.5788 176.451C26.7715 174.94 25.2767 173.133 24.0996 171.034C22.9173 168.94 22.3548 166.529 22.4121 163.805C22.4642 161.211 23.2038 158.899 24.6204 156.867C26.0475 154.826 27.8965 153.128 30.1621 151.763C32.4382 150.404 34.8496 149.487 37.3913 149.013C40.584 148.362 43.4017 148.347 45.8496 148.972C48.3079 149.586 50.36 150.571 52.0163 151.93C53.6829 153.295 54.8704 154.826 55.5788 156.534L53.3496 157.513C52.2923 155.045 50.7871 153.242 48.8288 152.117C46.8809 150.992 44.7559 150.446 42.4538 150.472C40.1465 150.503 37.9434 151.065 35.8496 152.159C33.7507 153.258 32.0059 154.815 30.6204 156.826C29.2298 158.826 28.4746 161.216 28.3496 163.992C28.2923 166.899 29.4746 169.357 31.8913 171.367C34.3184 173.367 37.5423 175.315 41.5579 177.201C42.0267 177.492 42.5007 177.732 42.9746 177.909C44.8757 178.8 46.8392 179.779 48.8704 180.847C50.9121 181.904 52.7715 183.201 54.4538 184.742C56.1465 186.284 57.4538 188.107 58.3704 190.201C59.2871 192.3 59.5371 194.795 59.1204 197.68C58.6465 201.295 57.0632 204.461 54.3704 207.18C51.6882 209.888 48.334 211.779 44.3079 212.847C43.485 213.081 42.7038 213.227 41.9538 213.284C41.2142 213.352 40.2871 213.414 39.1621 213.472Z" fill="#100F0D"/>
<path d="M78.9707 212.492V151.221H62.8457V148.825H101.137V151.221H85.0124V212.492H78.9707Z" fill="#100F0D"/>
<path d="M106.461 212.492V148.825H128.794C131.695 148.825 134.445 149.523 137.044 150.909C139.638 152.299 141.753 154.211 143.378 156.638C145.003 159.054 145.815 161.888 145.815 165.138C145.815 168.278 145.003 171.106 143.378 173.617C141.753 176.132 139.617 178.112 136.982 179.554C134.357 181.002 131.57 181.721 128.628 181.721L150.523 212.492H143.961L121.961 181.721H112.398V212.492H106.461ZM112.398 179.325H127.648C129.898 179.325 131.93 178.617 133.753 177.2C135.586 175.784 137.049 173.987 138.148 171.804C139.242 169.612 139.794 167.388 139.794 165.138C139.794 162.903 139.242 160.721 138.148 158.596C137.049 156.461 135.586 154.695 133.753 153.304C131.93 151.919 129.898 151.221 127.648 151.221H112.398V179.325Z" fill="#100F0D"/>
<path d="M178.171 213.471C174.088 213.471 170.343 212.705 166.942 211.179C163.551 209.638 160.848 207.388 158.838 204.429C156.838 201.471 155.838 197.862 155.838 193.596V148.825H161.775V191.742C161.775 195.773 162.51 199.159 163.984 201.909C165.468 204.648 167.447 206.711 169.921 208.096C172.406 209.487 175.156 210.179 178.171 210.179C181.182 210.179 184.067 209.606 186.817 208.45C189.567 207.299 191.822 205.382 193.588 202.7C195.364 200.007 196.255 196.356 196.255 191.742V148.825H198.65V193.784C198.65 200.106 196.755 204.966 192.963 208.367C189.182 211.773 184.255 213.471 178.171 213.471Z" fill="#100F0D"/>
<path d="M228.89 213.471C225.098 213.471 221.577 212.628 218.327 210.951C215.077 209.258 212.234 206.919 209.807 203.93C207.39 200.945 205.515 197.508 204.182 193.617C202.848 189.716 202.182 185.513 202.182 181.013C202.182 176.529 202.848 172.336 204.182 168.43C205.515 164.529 207.39 161.086 209.807 158.096C212.234 155.112 215.077 152.779 218.327 151.096C221.577 149.404 225.098 148.555 228.89 148.555C232.14 148.628 235.327 149.445 238.452 151.013C241.588 152.57 244.338 154.826 246.702 157.784L244.848 159.284C242.65 156.69 240.182 154.654 237.432 153.18C234.682 151.695 231.833 150.951 228.89 150.951C225.859 150.951 223.088 151.826 220.577 153.576C218.077 155.315 215.895 157.633 214.036 160.534C212.171 163.44 210.723 166.659 209.682 170.201C208.65 173.742 208.14 177.346 208.14 181.013C208.14 184.68 208.65 188.294 209.682 191.846C210.723 195.388 212.171 198.612 214.036 201.513C215.895 204.404 218.077 206.721 220.577 208.471C223.088 210.211 225.859 211.076 228.89 211.076C233.083 211.076 236.937 209.716 240.452 206.992C243.963 204.273 246.702 200.841 248.661 196.701L250.869 197.68C248.505 202.586 245.39 206.43 241.515 209.221C237.64 212.003 233.432 213.414 228.89 213.471Z" fill="#100F0D"/>
<path d="M270.541 212.492V151.221H254.416V148.825H292.708V151.221H276.583V212.492H270.541Z" fill="#100F0D"/>
<path d="M320.365 213.471C316.281 213.471 312.536 212.705 309.135 211.179C305.745 209.638 303.042 207.388 301.031 204.429C299.031 201.471 298.031 197.862 298.031 193.596V148.825H303.969V191.742C303.969 195.773 304.703 199.159 306.177 201.909C307.661 204.648 309.641 206.711 312.115 208.096C314.599 209.487 317.349 210.179 320.365 210.179C323.375 210.179 326.26 209.606 329.01 208.45C331.76 207.299 334.016 205.382 335.781 202.7C337.557 200.007 338.448 196.356 338.448 191.742V148.825H340.844V193.784C340.844 200.106 338.948 204.966 335.156 208.367C331.375 211.773 326.448 213.471 320.365 213.471Z" fill="#100F0D"/>
<path d="M346.168 212.492V148.825H368.501C371.402 148.825 374.152 149.523 376.751 150.909C379.345 152.299 381.46 154.211 383.085 156.638C384.71 159.054 385.522 161.888 385.522 165.138C385.522 168.278 384.71 171.106 383.085 173.617C381.46 176.132 379.324 178.112 376.689 179.554C374.064 181.002 371.277 181.721 368.335 181.721L390.23 212.492H383.668L361.668 181.721H352.105V212.492H346.168ZM352.105 179.325H367.355C369.605 179.325 371.637 178.617 373.46 177.2C375.293 175.784 376.757 173.987 377.855 171.804C378.949 169.612 379.501 167.388 379.501 165.138C379.501 162.903 378.949 160.721 377.855 158.596C376.757 156.461 375.293 154.695 373.46 153.304C371.637 151.919 369.605 151.221 367.355 151.221H352.105V179.325Z" fill="#100F0D"/>
<path d="M395.545 212.492V148.825H431.545V151.221H401.566V179.054H425.587V181.45H401.566V210.096H433.399V212.492H395.545Z" fill="#100F0D"/>
<path d="M267.385 415.626C263.604 415.626 260.093 414.782 256.843 413.105C253.593 411.412 250.749 409.079 248.322 406.105C245.906 403.121 244.031 399.678 242.697 395.772C241.364 391.871 240.697 387.678 240.697 383.188C240.697 378.704 241.364 374.511 242.697 370.605C244.031 366.704 245.906 363.261 248.322 360.272C250.749 357.287 253.593 354.954 256.843 353.272C260.093 351.595 263.604 350.751 267.385 350.751C270.635 350.808 273.822 351.621 276.947 353.188C280.083 354.761 282.833 357.017 285.197 359.959L283.322 361.48C281.14 358.871 278.676 356.829 275.926 355.355C273.176 353.886 270.327 353.147 267.385 353.147C264.369 353.147 261.604 354.022 259.093 355.772C256.577 357.511 254.39 359.829 252.531 362.73C250.666 365.621 249.218 368.834 248.176 372.376C247.145 375.918 246.635 379.522 246.635 383.188C246.635 386.855 247.145 390.459 248.176 394.001C249.218 397.543 250.666 400.767 252.531 403.668C254.39 406.558 256.577 408.876 259.093 410.626C261.604 412.366 264.369 413.23 267.385 413.23C271.577 413.23 275.432 411.876 278.947 409.168C282.458 406.449 285.187 403.017 287.135 398.876L289.364 399.855C286.999 404.761 283.885 408.6 280.01 411.376C276.135 414.157 271.926 415.569 267.385 415.626Z" fill="#100F0D"/>
<path d="M292.881 414.647V351.022H298.923V412.252H330.652V414.647H292.881Z" fill="#100F0D"/>
<path d="M335.939 414.647V351.022H341.981V414.647H335.939Z" fill="#100F0D"/>
<path d="M347.367 414.647V351.022H354.284L384.784 402.772V351.022H387.159V414.647H384.784V414.564L349.763 355.085V414.647H347.367Z" fill="#100F0D"/>
<path d="M392.463 414.647V351.022H398.505V414.647H392.463Z" fill="#100F0D"/>
<path d="M428.807 415.626C425.025 415.626 421.515 414.782 418.265 413.105C415.015 411.412 412.171 409.079 409.744 406.105C407.327 403.121 405.452 399.678 404.119 395.772C402.786 391.871 402.119 387.678 402.119 383.188C402.119 378.704 402.786 374.511 404.119 370.605C405.452 366.704 407.327 363.261 409.744 360.272C412.171 357.287 415.015 354.954 418.265 353.272C421.515 351.595 425.025 350.751 428.807 350.751C432.057 350.808 435.244 351.621 438.369 353.188C441.505 354.761 444.255 357.017 446.619 359.959L444.744 361.48C442.562 358.871 440.098 356.829 437.348 355.355C434.598 353.886 431.749 353.147 428.807 353.147C425.791 353.147 423.025 354.022 420.515 355.772C417.999 357.511 415.812 359.829 413.952 362.73C412.088 365.621 410.64 368.834 409.598 372.376C408.567 375.918 408.057 379.522 408.057 383.188C408.057 386.855 408.567 390.459 409.598 394.001C410.64 397.543 412.088 400.767 413.952 403.668C415.812 406.558 417.999 408.876 420.515 410.626C423.025 412.366 425.791 413.23 428.807 413.23C432.999 413.23 436.854 411.876 440.369 409.168C443.88 406.449 446.609 403.017 448.557 398.876L450.786 399.855C448.421 404.761 445.307 408.6 441.432 411.376C437.557 414.157 433.348 415.569 428.807 415.626Z" fill="#100F0D"/>
<path d="M470.533 415.627C467.575 415.627 464.481 414.887 461.262 413.418C458.038 411.934 455.127 409.356 452.533 405.689L454.492 404.377C456.325 406.976 458.45 409.033 460.867 410.543C463.294 412.043 465.773 412.976 468.304 413.335C470.846 413.684 473.252 413.517 475.533 412.835C477.809 412.158 479.762 410.934 481.387 409.168C483.012 407.392 484.059 405.116 484.533 402.335C485.127 399.017 484.21 395.856 481.783 392.856C479.367 389.845 476.059 387.418 471.867 385.585C471.627 385.46 471.393 385.33 471.158 385.189C470.919 385.038 470.648 384.934 470.346 384.877C468.997 384.226 467.372 383.397 465.471 382.397C463.58 381.387 461.731 380.127 459.929 378.627C458.137 377.116 456.648 375.309 455.471 373.21C454.288 371.116 453.726 368.71 453.783 366.002C453.835 363.392 454.575 361.074 455.992 359.043C457.408 357.002 459.252 355.304 461.533 353.939C463.809 352.58 466.221 351.663 468.762 351.189C471.955 350.538 474.773 350.522 477.221 351.147C479.679 351.772 481.731 352.767 483.387 354.127C485.038 355.476 486.221 357.012 486.929 358.731L484.721 359.71C483.648 357.226 482.137 355.418 480.179 354.293C478.231 353.168 476.106 352.621 473.804 352.647C471.497 352.679 469.294 353.241 467.2 354.335C465.101 355.434 463.356 356.991 461.971 359.002C460.58 361.002 459.83 363.392 459.721 366.168C459.663 369.074 460.846 371.533 463.262 373.543C465.679 375.543 468.898 377.491 472.929 379.377C473.398 379.668 473.872 379.908 474.346 380.085C476.231 380.976 478.189 381.955 480.221 383.022C482.262 384.08 484.122 385.377 485.804 386.918C487.497 388.449 488.804 390.262 489.721 392.356C490.637 394.455 490.887 396.955 490.471 399.856C489.997 403.455 488.413 406.616 485.721 409.335C483.038 412.043 479.689 413.934 475.679 415.002C474.846 415.236 474.059 415.382 473.325 415.439C472.585 415.507 471.658 415.569 470.533 415.627Z" fill="#100F0D"/>
<mask id="mask4_1_366" style="mask-type:luminance" maskUnits="userSpaceOnUse" x="294" y="225" width="85" height="31">
<path d="M294.51 225.333H378.275V255.765H294.51V225.333Z" fill="white"/>
</mask>
<g mask="url(#mask4_1_366)">
<path d="M365.692 336.151H118.473C117.656 336.151 116.848 336.073 116.046 335.911C115.244 335.755 114.468 335.521 113.713 335.208C112.963 334.896 112.244 334.51 111.567 334.057C110.89 333.604 110.26 333.089 109.682 332.51C109.104 331.938 108.593 331.307 108.135 330.63C107.682 329.953 107.301 329.234 106.989 328.479C106.676 327.724 106.442 326.948 106.281 326.151C106.124 325.349 106.041 324.542 106.041 323.724C106.041 322.906 106.124 322.099 106.281 321.302C106.442 320.5 106.676 319.724 106.989 318.969C107.301 318.214 107.682 317.5 108.135 316.818C108.593 316.141 109.104 315.516 109.682 314.938C110.26 314.359 110.89 313.844 111.567 313.391C112.244 312.938 112.963 312.552 113.713 312.245C114.468 311.932 115.244 311.693 116.046 311.536C116.848 311.375 117.656 311.297 118.473 311.297H154.479C155.057 311.292 155.624 311.229 156.187 311.109C156.744 310.99 157.291 310.823 157.822 310.594C158.348 310.37 158.848 310.099 159.327 309.776C159.801 309.453 160.239 309.089 160.645 308.682C161.046 308.271 161.406 307.828 161.723 307.349C162.041 306.87 162.307 306.365 162.525 305.833C162.744 305.302 162.911 304.755 163.02 304.193C163.13 303.63 163.187 303.062 163.187 302.484C163.187 301.911 163.13 301.344 163.02 300.781C162.911 300.219 162.744 299.672 162.525 299.141C162.307 298.609 162.041 298.104 161.723 297.625C161.406 297.146 161.046 296.703 160.645 296.292C160.239 295.885 159.801 295.521 159.327 295.198C158.848 294.875 158.348 294.599 157.822 294.375C157.291 294.151 156.744 293.979 156.187 293.865C155.624 293.745 155.057 293.682 154.479 293.677H83.9108C83.0931 293.677 82.2858 293.594 81.4837 293.438C80.6869 293.276 79.9108 293.042 79.1556 292.729C78.4056 292.417 77.6869 292.031 77.0098 291.578C76.3327 291.125 75.7025 290.609 75.1296 290.031C74.5514 289.453 74.0358 288.828 73.5827 288.151C73.1296 287.474 72.7494 286.755 72.4369 286C72.1244 285.25 71.89 284.474 71.7337 283.672C71.5723 282.87 71.4941 282.062 71.4941 281.25C71.4941 280.432 71.5723 279.625 71.7337 278.828C71.89 278.026 72.1244 277.25 72.4369 276.495C72.7494 275.74 73.1296 275.026 73.5827 274.349C74.0358 273.672 74.5514 273.042 75.1296 272.464C75.7025 271.885 76.3327 271.375 77.0098 270.922C77.6869 270.464 78.4056 270.083 79.1556 269.771C79.9108 269.458 80.6869 269.219 81.4837 269.062C82.2858 268.901 83.0931 268.823 83.9108 268.823H100.26C100.833 268.812 101.4 268.75 101.963 268.635C102.525 268.516 103.072 268.344 103.598 268.12C104.13 267.896 104.63 267.625 105.104 267.302C105.583 266.979 106.02 266.615 106.421 266.203C106.827 265.797 107.187 265.354 107.505 264.875C107.822 264.396 108.088 263.891 108.307 263.359C108.525 262.828 108.687 262.281 108.801 261.719C108.911 261.156 108.968 260.583 108.968 260.01C108.968 259.438 108.911 258.87 108.801 258.307C108.687 257.74 108.525 257.193 108.307 256.661C108.088 256.13 107.822 255.625 107.505 255.151C107.187 254.672 106.827 254.224 106.421 253.818C106.02 253.411 105.583 253.042 105.104 252.724C104.63 252.401 104.13 252.125 103.598 251.901C103.072 251.677 102.525 251.505 101.963 251.391C101.4 251.271 100.833 251.208 100.26 251.203H25.5827C24.7754 251.193 23.9681 251.104 23.1764 250.943C22.3848 250.776 21.6139 250.536 20.8639 250.219C20.1191 249.906 19.4108 249.521 18.7389 249.062C18.0671 248.609 17.4473 248.094 16.8743 247.516C16.3066 246.943 15.7962 246.318 15.3483 245.641C14.9004 244.964 14.5202 244.25 14.2129 243.5C13.9056 242.75 13.6712 241.979 13.515 241.182C13.3587 240.385 13.2754 239.583 13.2754 238.771C13.2754 237.964 13.3587 237.156 13.515 236.365C13.6712 235.568 13.9056 234.797 14.2129 234.047C14.5202 233.297 14.9004 232.583 15.3483 231.906C15.7962 231.229 16.3066 230.604 16.8743 230.026C17.4473 229.453 18.0671 228.938 18.7389 228.479C19.4108 228.026 20.1191 227.641 20.8639 227.323C21.6139 227.01 22.3848 226.771 23.1764 226.604C23.9681 226.438 24.7754 226.354 25.5827 226.344H272.807C273.614 226.354 274.416 226.438 275.213 226.604C276.005 226.771 276.775 227.01 277.525 227.323C278.27 227.641 278.979 228.026 279.65 228.479C280.322 228.938 280.942 229.453 281.515 230.026C282.083 230.604 282.593 231.229 283.041 231.906C283.489 232.583 283.869 233.297 284.176 234.047C284.484 234.797 284.718 235.568 284.874 236.365C285.031 237.156 285.109 237.964 285.109 238.771C285.109 239.583 285.031 240.385 284.874 241.182C284.718 241.979 284.484 242.75 284.176 243.5C283.869 244.25 283.489 244.964 283.041 245.641C282.593 246.318 282.083 246.943 281.515 247.516C280.942 248.094 280.322 248.609 279.65 249.062C278.979 249.521 278.27 249.906 277.525 250.219C276.775 250.536 276.005 250.776 275.213 250.943C274.416 251.104 273.614 251.193 272.807 251.203H255.041C254.468 251.208 253.9 251.271 253.338 251.391C252.775 251.505 252.234 251.677 251.702 251.901C251.176 252.125 250.671 252.401 250.197 252.724C249.723 253.042 249.286 253.411 248.88 253.818C248.479 254.224 248.119 254.672 247.801 255.151C247.484 255.625 247.213 256.13 246.999 256.661C246.781 257.193 246.614 257.74 246.505 258.307C246.39 258.87 246.338 259.438 246.338 260.01C246.338 260.583 246.39 261.156 246.505 261.719C246.614 262.281 246.781 262.828 246.999 263.359C247.213 263.891 247.484 264.396 247.801 264.875C248.119 265.354 248.479 265.797 248.88 266.203C249.286 266.615 249.723 266.979 250.197 267.302C250.671 267.625 251.176 267.896 251.702 268.12C252.234 268.344 252.775 268.516 253.338 268.635C253.9 268.75 254.468 268.812 255.041 268.823H331.124C331.942 268.823 332.749 268.901 333.551 269.057C334.348 269.219 335.13 269.453 335.88 269.766C336.635 270.078 337.354 270.464 338.031 270.917C338.708 271.37 339.338 271.885 339.916 272.458C340.489 273.036 341.005 273.667 341.458 274.344C341.911 275.021 342.296 275.74 342.609 276.495C342.921 277.245 343.156 278.026 343.317 278.823C343.473 279.625 343.551 280.432 343.551 281.25C343.551 282.062 343.473 282.875 343.317 283.672C343.156 284.474 342.921 285.25 342.609 286.005C342.296 286.76 341.911 287.474 341.458 288.151C341.005 288.833 340.489 289.458 339.916 290.036C339.338 290.615 338.708 291.13 338.031 291.583C337.354 292.036 336.635 292.417 335.88 292.729C335.13 293.042 334.348 293.281 333.551 293.438C332.749 293.599 331.942 293.677 331.124 293.677H294.239C293.666 293.682 293.098 293.745 292.536 293.865C291.973 293.979 291.432 294.151 290.9 294.375C290.374 294.599 289.869 294.875 289.395 295.198C288.921 295.521 288.484 295.885 288.077 296.292C287.676 296.703 287.312 297.146 286.999 297.625C286.682 298.104 286.411 298.609 286.197 299.141C285.979 299.672 285.812 300.219 285.702 300.781C285.588 301.344 285.536 301.911 285.536 302.484C285.536 303.062 285.588 303.63 285.702 304.193C285.812 304.755 285.979 305.302 286.197 305.833C286.411 306.365 286.682 306.87 286.999 307.349C287.312 307.828 287.676 308.271 288.077 308.682C288.484 309.089 288.921 309.453 289.395 309.776C289.869 310.099 290.374 310.37 290.9 310.594C291.432 310.823 291.973 310.99 292.536 311.109C293.098 311.229 293.666 311.292 294.239 311.297H365.692C366.505 311.297 367.312 311.38 368.114 311.536C368.911 311.698 369.687 311.932 370.442 312.245C371.197 312.562 371.911 312.943 372.588 313.396C373.265 313.849 373.89 314.365 374.468 314.943C375.046 315.521 375.557 316.146 376.01 316.823C376.463 317.505 376.848 318.219 377.156 318.974C377.468 319.724 377.702 320.5 377.864 321.302C378.025 322.104 378.104 322.911 378.104 323.724C378.104 324.542 378.025 325.349 377.864 326.146C377.702 326.948 377.468 327.724 377.156 328.474C376.848 329.229 376.463 329.948 376.01 330.625C375.557 331.302 375.046 331.927 374.468 332.505C373.89 333.083 373.265 333.599 372.588 334.052C371.911 334.505 371.197 334.891 370.442 335.203C369.687 335.516 368.911 335.75 368.114 335.911C367.312 336.073 366.505 336.151 365.692 336.151ZM118.473 314.917C117.895 314.922 117.327 314.984 116.765 315.104C116.208 315.219 115.661 315.391 115.13 315.615C114.604 315.839 114.104 316.115 113.624 316.438C113.15 316.76 112.713 317.125 112.307 317.531C111.906 317.943 111.546 318.385 111.229 318.865C110.911 319.344 110.645 319.849 110.426 320.375C110.208 320.906 110.041 321.458 109.932 322.021C109.822 322.583 109.765 323.151 109.765 323.724C109.765 324.297 109.822 324.87 109.932 325.432C110.041 325.995 110.208 326.542 110.426 327.073C110.645 327.604 110.911 328.109 111.229 328.589C111.546 329.068 111.906 329.51 112.307 329.917C112.713 330.328 113.15 330.693 113.624 331.016C114.104 331.339 114.604 331.609 115.13 331.833C115.661 332.057 116.208 332.229 116.765 332.349C117.327 332.464 117.895 332.526 118.473 332.536H365.692C366.265 332.526 366.833 332.464 367.395 332.349C367.958 332.229 368.505 332.057 369.031 331.833C369.557 331.609 370.062 331.339 370.536 331.016C371.01 330.693 371.452 330.328 371.854 329.917C372.26 329.51 372.619 329.068 372.937 328.589C373.249 328.109 373.52 327.604 373.739 327.073C373.952 326.542 374.119 325.995 374.229 325.432C374.343 324.87 374.395 324.297 374.395 323.724C374.395 323.151 374.343 322.583 374.229 322.021C374.119 321.458 373.952 320.906 373.739 320.375C373.52 319.849 373.249 319.344 372.937 318.865C372.619 318.385 372.26 317.943 371.854 317.531C371.452 317.125 371.01 316.76 370.536 316.438C370.062 316.115 369.557 315.839 369.031 315.615C368.505 315.391 367.958 315.219 367.395 315.104C366.833 314.984 366.265 314.922 365.692 314.917H294.239C293.432 314.906 292.63 314.823 291.833 314.656C291.041 314.49 290.27 314.25 289.52 313.932C288.775 313.62 288.067 313.234 287.395 312.776C286.723 312.323 286.104 311.807 285.531 311.229C284.963 310.656 284.452 310.031 284.005 309.354C283.557 308.677 283.176 307.964 282.869 307.214C282.562 306.464 282.327 305.693 282.171 304.896C282.015 304.099 281.937 303.297 281.937 302.484C281.937 301.677 282.015 300.875 282.171 300.078C282.327 299.281 282.562 298.51 282.869 297.76C283.176 297.01 283.557 296.297 284.005 295.62C284.452 294.943 284.963 294.318 285.531 293.74C286.104 293.167 286.723 292.651 287.395 292.193C288.067 291.74 288.775 291.354 289.52 291.042C290.27 290.724 291.041 290.484 291.833 290.318C292.63 290.151 293.432 290.068 294.239 290.057H331.13C331.708 290.057 332.281 290 332.848 289.891C333.416 289.776 333.968 289.609 334.499 289.385C335.036 289.167 335.541 288.896 336.025 288.573C336.505 288.25 336.947 287.885 337.359 287.479C337.765 287.068 338.135 286.625 338.452 286.141C338.775 285.661 339.046 285.156 339.27 284.62C339.489 284.083 339.656 283.536 339.77 282.969C339.88 282.401 339.937 281.828 339.937 281.25C339.937 280.672 339.88 280.099 339.77 279.531C339.656 278.964 339.489 278.411 339.27 277.88C339.046 277.344 338.775 276.833 338.452 276.354C338.135 275.875 337.765 275.427 337.359 275.021C336.947 274.609 336.505 274.245 336.025 273.922C335.541 273.604 335.036 273.333 334.499 273.109C333.968 272.891 333.416 272.724 332.848 272.609C332.281 272.495 331.708 272.438 331.13 272.438H255.046C254.234 272.432 253.432 272.344 252.64 272.182C251.843 272.016 251.072 271.776 250.327 271.458C249.583 271.141 248.874 270.755 248.202 270.302C247.531 269.849 246.906 269.333 246.338 268.755C245.765 268.182 245.26 267.552 244.812 266.88C244.359 266.203 243.984 265.49 243.676 264.74C243.364 263.99 243.135 263.219 242.979 262.422C242.817 261.625 242.739 260.823 242.739 260.01C242.739 259.198 242.817 258.396 242.979 257.599C243.135 256.807 243.364 256.031 243.676 255.281C243.984 254.531 244.359 253.818 244.812 253.146C245.26 252.469 245.765 251.844 246.338 251.266C246.906 250.688 247.531 250.172 248.202 249.719C248.874 249.266 249.583 248.88 250.327 248.562C251.072 248.245 251.843 248.005 252.64 247.844C253.432 247.677 254.234 247.589 255.046 247.583H272.807C273.38 247.573 273.952 247.516 274.51 247.396C275.072 247.276 275.619 247.104 276.145 246.88C276.676 246.656 277.176 246.385 277.656 246.062C278.13 245.74 278.567 245.375 278.973 244.964C279.374 244.557 279.734 244.115 280.051 243.635C280.369 243.156 280.635 242.651 280.854 242.12C281.072 241.589 281.239 241.042 281.348 240.479C281.458 239.917 281.515 239.349 281.515 238.771C281.515 238.198 281.458 237.63 281.348 237.068C281.239 236.505 281.072 235.958 280.854 235.427C280.635 234.896 280.369 234.391 280.051 233.911C279.734 233.432 279.374 232.99 278.973 232.578C278.567 232.172 278.13 231.807 277.656 231.484C277.176 231.161 276.676 230.885 276.145 230.661C275.619 230.438 275.072 230.266 274.51 230.151C273.952 230.031 273.38 229.969 272.807 229.964H25.5827C25.0098 229.969 24.4421 230.031 23.8796 230.151C23.3171 230.266 22.7754 230.438 22.2441 230.661C21.7181 230.885 21.2129 231.161 20.7389 231.484C20.265 231.807 19.8223 232.172 19.4212 232.578C19.015 232.99 18.6556 233.432 18.3379 233.911C18.0254 234.391 17.7546 234.896 17.5358 235.427C17.3223 235.958 17.1556 236.505 17.0462 237.068C16.9316 237.63 16.8796 238.198 16.8796 238.771C16.8796 239.349 16.9316 239.917 17.0462 240.479C17.1556 241.042 17.3223 241.589 17.5358 242.12C17.7546 242.651 18.0254 243.156 18.3379 243.635C18.6556 244.115 19.015 244.557 19.4212 244.964C19.8223 245.375 20.265 245.74 20.7389 246.062C21.2129 246.385 21.7181 246.656 22.2441 246.88C22.7754 247.104 23.3171 247.276 23.8796 247.396C24.4421 247.516 25.0098 247.573 25.5827 247.583H100.26C101.072 247.589 101.874 247.677 102.666 247.844C103.463 248.005 104.234 248.245 104.979 248.562C105.729 248.88 106.437 249.266 107.109 249.719C107.781 250.172 108.4 250.688 108.968 251.266C109.541 251.844 110.051 252.469 110.499 253.146C110.947 253.818 111.322 254.531 111.635 255.281C111.942 256.031 112.171 256.807 112.333 257.599C112.489 258.396 112.567 259.198 112.567 260.01C112.567 260.823 112.489 261.625 112.333 262.422C112.171 263.219 111.942 263.99 111.635 264.74C111.322 265.49 110.947 266.203 110.499 266.88C110.051 267.552 109.541 268.182 108.968 268.755C108.4 269.333 107.781 269.849 107.109 270.302C106.437 270.755 105.729 271.141 104.979 271.458C104.234 271.776 103.463 272.016 102.666 272.182C101.874 272.344 101.072 272.432 100.26 272.438H83.9108C83.3327 272.438 82.7598 272.495 82.1921 272.609C81.6244 272.724 81.0723 272.891 80.5358 273.109C80.0046 273.333 79.4941 273.604 79.015 273.922C78.5358 274.245 78.0879 274.609 77.6816 275.021C77.2702 275.427 76.9056 275.875 76.5827 276.354C76.265 276.833 75.9941 277.344 75.7702 277.88C75.5514 278.411 75.3796 278.964 75.2702 279.531C75.1556 280.099 75.0983 280.672 75.0983 281.25C75.0983 281.828 75.1556 282.401 75.2702 282.969C75.3796 283.536 75.5514 284.083 75.7702 284.62C75.9941 285.156 76.265 285.661 76.5827 286.141C76.9056 286.625 77.2702 287.068 77.6816 287.479C78.0879 287.885 78.5358 288.25 79.015 288.573C79.4941 288.896 80.0046 289.167 80.5358 289.385C81.0723 289.609 81.6244 289.776 82.1921 289.891C82.7598 290 83.3327 290.057 83.9108 290.057H154.484C155.296 290.068 156.098 290.151 156.89 290.318C157.687 290.484 158.458 290.724 159.202 291.042C159.947 291.354 160.661 291.74 161.333 292.193C161.999 292.651 162.624 293.167 163.192 293.74C163.765 294.318 164.275 294.943 164.723 295.62C165.171 296.297 165.546 297.01 165.854 297.76C166.166 298.51 166.395 299.281 166.557 300.078C166.713 300.875 166.791 301.677 166.791 302.484C166.791 303.297 166.713 304.099 166.557 304.896C166.395 305.693 166.166 306.464 165.854 307.214C165.546 307.964 165.171 308.677 164.723 309.354C164.275 310.031 163.765 310.656 163.192 311.229C162.624 311.807 161.999 312.323 161.333 312.776C160.661 313.234 159.947 313.62 159.202 313.932C158.458 314.25 157.687 314.49 156.89 314.656C156.098 314.823 155.296 314.906 154.484 314.917H118.473Z" fill="#6794B6"/>
</g>
<mask id="mask5_1_366" style="mask-type:luminance" maskUnits="userSpaceOnUse" x="298" y="224" width="29" height="28">
<path d="M298.666 224.766H326.666V252H298.666V224.766Z" fill="white"/>
</mask>
<g mask="url(#mask5_1_366)">
<path d="M312.984 250.89C312.124 250.89 311.275 250.807 310.437 250.64C309.598 250.474 308.781 250.224 307.989 249.896C307.197 249.567 306.442 249.166 305.734 248.692C305.02 248.213 304.359 247.672 303.755 247.067C303.15 246.458 302.609 245.802 302.13 245.088C301.656 244.375 301.255 243.625 300.926 242.833C300.598 242.041 300.348 241.224 300.182 240.385C300.015 239.541 299.932 238.692 299.932 237.838C299.932 236.979 300.015 236.13 300.182 235.291C300.348 234.453 300.598 233.635 300.926 232.843C301.255 232.052 301.656 231.297 302.13 230.588C302.609 229.875 303.15 229.213 303.755 228.609C304.359 228 305.02 227.463 305.734 226.984C306.442 226.51 307.197 226.104 307.989 225.781C308.781 225.453 309.598 225.203 310.437 225.036C311.275 224.869 312.124 224.786 312.984 224.786C313.838 224.786 314.687 224.869 315.531 225.036C316.369 225.203 317.187 225.453 317.979 225.781C318.77 226.104 319.52 226.51 320.234 226.984C320.947 227.463 321.609 228 322.213 228.609C322.817 229.213 323.359 229.875 323.838 230.588C324.312 231.297 324.713 232.052 325.041 232.843C325.369 233.635 325.619 234.453 325.786 235.291C325.952 236.13 326.036 236.979 326.036 237.838C326.036 238.692 325.952 239.541 325.781 240.385C325.614 241.224 325.364 242.036 325.036 242.828C324.708 243.619 324.307 244.375 323.833 245.083C323.354 245.797 322.812 246.458 322.208 247.062C321.604 247.666 320.942 248.208 320.234 248.687C319.52 249.161 318.765 249.562 317.973 249.89C317.187 250.218 316.369 250.468 315.531 250.635C314.687 250.802 313.838 250.89 312.984 250.89ZM312.984 228.401C312.364 228.401 311.749 228.463 311.145 228.583C310.536 228.703 309.947 228.885 309.374 229.119C308.801 229.359 308.255 229.651 307.739 229.994C307.229 230.338 306.749 230.729 306.312 231.166C305.874 231.604 305.484 232.078 305.14 232.593C304.796 233.109 304.505 233.656 304.265 234.224C304.031 234.797 303.848 235.39 303.729 235.994C303.609 236.604 303.546 237.218 303.546 237.838C303.546 238.458 303.609 239.067 303.729 239.677C303.848 240.286 304.031 240.875 304.265 241.448C304.505 242.021 304.791 242.562 305.135 243.078C305.484 243.593 305.874 244.067 306.312 244.51C306.749 244.948 307.223 245.338 307.739 245.682C308.255 246.026 308.801 246.317 309.369 246.552C309.942 246.791 310.536 246.968 311.14 247.088C311.749 247.213 312.364 247.271 312.984 247.271C313.604 247.271 314.213 247.213 314.822 247.088C315.432 246.968 316.02 246.791 316.593 246.552C317.166 246.317 317.708 246.026 318.223 245.682C318.739 245.338 319.213 244.948 319.65 244.51C320.093 244.073 320.484 243.593 320.827 243.078C321.171 242.562 321.463 242.021 321.697 241.448C321.937 240.875 322.114 240.286 322.234 239.677C322.354 239.073 322.416 238.458 322.416 237.838C322.416 237.218 322.354 236.604 322.234 236C322.114 235.39 321.932 234.802 321.697 234.229C321.458 233.656 321.166 233.114 320.822 232.599C320.479 232.083 320.088 231.604 319.65 231.166C319.213 230.729 318.739 230.338 318.223 229.994C317.708 229.651 317.166 229.359 316.593 229.125C316.02 228.885 315.432 228.703 314.822 228.583C314.218 228.463 313.604 228.401 312.984 228.401Z" fill="#6794B6"/>
</g>
<mask id="mask6_1_366" style="mask-type:luminance" maskUnits="userSpaceOnUse" x="336" y="224" width="28" height="28">
<path d="M336 224.766H364V252H336V224.766Z" fill="white"/>
</mask>
<g mask="url(#mask6_1_366)">
<path d="M349.949 250.89C349.094 250.89 348.245 250.807 347.402 250.64C346.563 250.474 345.745 250.224 344.954 249.896C344.162 249.567 343.412 249.166 342.699 248.687C341.985 248.213 341.329 247.672 340.719 247.067C340.115 246.458 339.574 245.802 339.1 245.088C338.62 244.375 338.219 243.625 337.891 242.833C337.563 242.041 337.318 241.224 337.146 240.385C336.98 239.541 336.896 238.692 336.896 237.838C336.896 236.979 336.98 236.13 337.146 235.291C337.318 234.448 337.563 233.635 337.891 232.843C338.219 232.052 338.62 231.297 339.1 230.583C339.574 229.875 340.115 229.213 340.719 228.609C341.329 228 341.985 227.458 342.699 226.984C343.412 226.51 344.162 226.104 344.954 225.776C345.745 225.453 346.563 225.203 347.407 225.036C348.245 224.869 349.094 224.786 349.949 224.786C350.808 224.786 351.657 224.869 352.495 225.036C353.339 225.203 354.152 225.453 354.943 225.781C355.735 226.109 356.49 226.51 357.204 226.984C357.912 227.463 358.574 228 359.178 228.609C359.787 229.213 360.329 229.875 360.803 230.588C361.277 231.297 361.683 232.052 362.011 232.843C362.339 233.635 362.584 234.453 362.751 235.291C362.917 236.13 363.001 236.979 363.001 237.838C363.001 238.692 362.917 239.541 362.751 240.385C362.584 241.224 362.334 242.041 362.006 242.828C361.678 243.619 361.277 244.375 360.798 245.088C360.324 245.797 359.782 246.458 359.178 247.062C358.568 247.666 357.912 248.208 357.199 248.687C356.485 249.161 355.735 249.562 354.943 249.89C354.152 250.218 353.334 250.468 352.495 250.635C351.657 250.802 350.808 250.89 349.949 250.89ZM349.949 228.401C349.329 228.401 348.714 228.463 348.11 228.583C347.501 228.703 346.912 228.885 346.339 229.119C345.766 229.359 345.225 229.651 344.709 229.994C344.193 230.338 343.714 230.729 343.277 231.166C342.839 231.604 342.449 232.083 342.105 232.593C341.761 233.109 341.469 233.656 341.235 234.229C340.995 234.802 340.818 235.39 340.699 235.994C340.574 236.604 340.516 237.218 340.516 237.838C340.516 238.458 340.574 239.073 340.699 239.677C340.818 240.286 340.995 240.875 341.235 241.448C341.469 242.021 341.761 242.562 342.105 243.078C342.449 243.593 342.839 244.073 343.277 244.51C343.714 244.948 344.193 245.338 344.709 245.682C345.225 246.026 345.766 246.317 346.339 246.552C346.912 246.791 347.501 246.968 348.11 247.088C348.714 247.213 349.329 247.271 349.949 247.271C350.568 247.271 351.183 247.213 351.792 247.088C352.396 246.968 352.985 246.791 353.558 246.552C354.131 246.317 354.678 246.026 355.188 245.682C355.704 245.338 356.183 244.948 356.62 244.51C357.058 244.073 357.449 243.593 357.792 243.078C358.136 242.562 358.428 242.021 358.667 241.448C358.902 240.875 359.084 240.286 359.204 239.677C359.324 239.073 359.386 238.458 359.386 237.838C359.381 237.218 359.324 236.604 359.199 235.994C359.079 235.39 358.902 234.802 358.662 234.229C358.428 233.656 358.136 233.114 357.792 232.599C357.449 232.083 357.058 231.604 356.62 231.166C356.183 230.729 355.704 230.338 355.188 229.994C354.673 229.651 354.131 229.359 353.558 229.119C352.985 228.885 352.396 228.703 351.787 228.583C351.183 228.463 350.568 228.401 349.949 228.401Z" fill="#6794B6"/>
</g>
</svg>
