<svg width="50" height="50" viewBox="0 0 50 50" fill="none" xmlns="http://www.w3.org/2000/svg">
<path d="M25 0C11.2077 0 0 11.2077 0 25C0 38.7923 11.2077 50 25 50C26.4645 50 27.8912 49.8469 29.2871 49.6045L27.085 47.4023C26.3982 47.4656 25.7038 47.5 25 47.5C19.4513 47.5 14.3887 45.4886 10.4688 42.168L10.7178 42.0898L12.7197 41.5381L14.751 41.0693L16.792 40.6836L17.3682 40.542L17.9248 40.3076L18.4277 39.9902L18.877 39.5898L19.2529 39.1309L19.5557 38.6084L19.7754 38.0518L19.8926 37.4658L19.9268 36.8701L19.8584 36.2744L19.6973 35.6982L19.4482 35.1562L19.1211 34.6631L18.7256 34.1113L18.3838 33.54L17.6855 32.1387L17.0654 30.6982L16.5234 29.2334L16.0596 27.7344L15.6836 26.2158L15.3857 24.6777L15.1709 23.1299L15.0391 21.5723L15 20.0049L15.0488 19.0234L15.1953 18.0518L15.4297 17.0996L15.7617 16.1768L16.1816 15.2881L16.6846 14.4482L17.2705 13.6572L17.9248 12.9297L18.6572 12.2705L19.4434 11.6846L20.2881 11.1865L21.1768 10.7617L22.0996 10.4346L23.0469 10.1953L24.0186 10.0488L25 10L25.9814 10.0488L26.9531 10.1953L27.9004 10.4346L28.8232 10.7617L29.7168 11.1865L30.5566 11.6846L31.3428 12.2705L32.0752 12.9297L32.7295 13.6572L33.3154 14.4482L33.8184 15.2881L34.2383 16.1768L34.5703 17.0996L34.8096 18.0518L34.9561 19.0234L35 20.0049L34.9609 21.5723L34.8291 23.1299L34.6143 24.6777L34.3213 26.2158L33.9404 27.7344L33.4766 29.2334L32.9346 30.6982L32.3145 32.1387L31.6162 33.54L31.2744 34.1113L30.8789 34.6631L30.5518 35.1562L30.3027 35.6982L30.1416 36.2744L30.0732 36.8701L30.1074 37.4658L30.2295 38.0518L30.4443 38.6084L30.7471 39.1309L31.1279 39.5898L31.5723 39.9902L32.0752 40.3076L32.6318 40.542L33.208 40.6836L35.249 41.0693L35.9521 41.2305L38.0273 39.1553L37.8906 39.1162L35.7666 38.623L33.6182 38.2178L33.3057 38.125L33.0322 37.9541L32.8125 37.7197L32.6562 37.4365L32.583 37.1191L32.5879 36.8018L32.6758 36.4893L32.8418 36.2109L33.3691 35.4834L33.8232 34.7119L34.585 33.1885L35.2588 31.6309L35.8496 30.0342L36.3525 28.4033L36.7627 26.7578L37.085 25.0879L37.3145 23.3984L37.4561 21.7041L37.5 20.0049L37.4561 18.916L37.3096 17.832L37.0752 16.7676L36.7432 15.7275L36.3281 14.7217L35.8252 13.75L35.2441 12.832L34.5752 11.9678L33.8428 11.1621L33.0322 10.4297L32.1729 9.76562L31.25 9.1748L30.2832 8.67188L29.2773 8.25684L28.2373 7.9248L27.168 7.69043L26.0889 7.54883L25 7.5L23.9111 7.54883L22.832 7.69043L21.7627 7.9248L20.7227 8.25684L19.7168 8.67188L18.75 9.1748L17.832 9.76562L16.9678 10.4297L16.1572 11.1621L15.4248 11.9678L14.7607 12.832L14.1748 13.75L13.6719 14.7217L13.2568 15.7275L12.9248 16.7676L12.6904 17.832L12.5488 18.916L12.5 20.0049L12.5439 21.7041L12.6855 23.3984L12.915 25.0879L13.2373 26.7578L13.6475 28.4033L14.1504 30.0342L14.7461 31.6309L15.415 33.1885L16.1768 34.7119L16.6309 35.4834L17.1582 36.2109L17.3242 36.4893L17.4121 36.8018L17.4219 37.1191L17.3438 37.4365L17.1875 37.7197L16.9678 37.9541L16.6943 38.125L16.3818 38.2178L14.2383 38.623L12.1094 39.1162L10.0049 39.6973L8.4375 40.2002C4.76144 36.1964 2.5 30.8735 2.5 25C2.5 12.5588 12.5588 2.5 25 2.5C37.4412 2.5 47.5 12.5588 47.5 25C47.5 26.9253 47.2335 28.7816 46.7773 30.5615C47.3359 30.2158 47.9758 30.0087 48.6426 29.9902C48.9302 29.9823 49.2005 30.0445 49.4727 30.1025C49.8155 28.4544 50 26.7488 50 25C50 11.2077 38.7923 0 25 0ZM48.7109 32.4902C48.3865 32.4992 48.0784 32.6341 47.8516 32.8662L33.7354 46.9824L27.1191 40.3662C25.941 39.1392 24.1245 40.9557 25.3516 42.1338L32.8516 49.6338C33.3397 50.1217 34.131 50.1217 34.6191 49.6338L49.6191 34.6338C50.4323 33.8388 49.8477 32.4591 48.7109 32.4902Z" fill="white"/>
</svg>
