<svg width="141" height="80" viewBox="0 0 141 80" fill="none" xmlns="http://www.w3.org/2000/svg">
<mask id="mask0_237_8932" style="mask-type:luminance" maskUnits="userSpaceOnUse" x="12" y="22" width="121" height="38">
<path d="M12.2495 22.8359H132.948V59.6556H12.2495V22.8359Z" fill="white"/>
</mask>
<g mask="url(#mask0_237_8932)">
<path d="M128.558 59.6556H74.1127C73.8241 59.6556 73.5386 59.6275 73.2563 59.5714C72.9724 59.5152 72.6979 59.431 72.4311 59.3218C72.1644 59.211 71.9117 59.0753 71.6715 58.9147C71.4312 58.754 71.2097 58.573 71.0054 58.3687C70.801 58.1644 70.6201 57.9428 70.4594 57.7026C70.2988 57.4624 70.163 57.2097 70.0538 56.943C69.9431 56.6762 69.8589 56.4017 69.8027 56.1178C69.7466 55.8354 69.7185 55.55 69.7185 55.2614C69.7185 54.9728 69.7466 54.6874 69.8027 54.4035C69.8589 54.1211 69.9431 53.8466 70.0538 53.5798C70.163 53.3131 70.2988 53.0588 70.4594 52.8202C70.6201 52.5799 70.801 52.3569 71.0054 52.1541C71.2097 51.9497 71.4312 51.7672 71.6715 51.6066C71.9117 51.4475 72.1644 51.3118 72.4311 51.201C72.6979 51.0902 72.9724 51.0076 73.2563 50.9514C73.5386 50.8953 73.8241 50.8672 74.1127 50.8672H84.0601C84.2317 50.8672 84.4017 50.85 84.5702 50.8157C84.7387 50.7829 84.9025 50.733 85.06 50.6675C85.2191 50.602 85.3689 50.5209 85.5124 50.4257C85.6543 50.3306 85.7869 50.2229 85.9086 50.1013C86.0303 49.9796 86.1379 49.8486 86.233 49.7051C86.3282 49.5631 86.4093 49.4118 86.4748 49.2527C86.5403 49.0951 86.5903 48.9314 86.623 48.7629C86.6573 48.5944 86.6729 48.4244 86.6729 48.2528C86.6729 48.0812 86.6573 47.9112 86.623 47.7443C86.5903 47.5758 86.5403 47.412 86.4748 47.2529C86.4093 47.0954 86.3282 46.9441 86.233 46.8021C86.1379 46.6586 86.0303 46.5276 85.9086 46.4059C85.7869 46.2842 85.6543 46.1766 85.5124 46.0814C85.3689 45.9847 85.2191 45.9052 85.06 45.8397C84.9025 45.7741 84.7387 45.7242 84.5702 45.6899C84.4017 45.6571 84.2317 45.64 84.0601 45.64H37.0543C36.7658 45.64 36.4803 45.6119 36.198 45.5558C35.9141 45.4996 35.6395 45.4169 35.3728 45.3062C35.106 45.1954 34.8533 45.0597 34.6131 44.9006C34.3729 44.7399 34.1514 44.5574 33.947 44.3531C33.7427 44.1487 33.5618 43.9272 33.4011 43.687C33.2404 43.4468 33.1047 43.1941 32.9955 42.9273C32.8848 42.6606 32.8005 42.3861 32.7444 42.1037C32.6882 41.8198 32.6601 41.5344 32.6601 41.2458C32.6601 40.9572 32.6882 40.6717 32.7444 40.3878C32.8005 40.1055 32.8848 39.831 32.9955 39.5642C33.1047 39.2975 33.2404 39.0448 33.4011 38.8045C33.5618 38.5643 33.7427 38.3428 33.947 38.1385C34.1514 37.9341 34.3729 37.7516 34.6131 37.5925C34.8533 37.4318 35.106 37.2961 35.3728 37.1854C35.6395 37.0746 35.9141 36.992 36.198 36.9358C36.4803 36.8796 36.7658 36.8516 37.0543 36.8516H47.0018C47.1734 36.8516 47.3434 36.8344 47.5119 36.8016C47.6803 36.7673 47.8441 36.7174 48.0017 36.6519C48.1608 36.5864 48.3105 36.5068 48.454 36.4101C48.596 36.315 48.7286 36.2073 48.8502 36.0857C48.9704 35.964 49.0796 35.833 49.1747 35.6894C49.2699 35.5475 49.351 35.3962 49.4165 35.2386C49.482 35.0795 49.5319 34.9157 49.5647 34.7473C49.599 34.5804 49.6146 34.4103 49.6146 34.2387C49.6146 34.0672 49.599 33.8971 49.5647 33.7287C49.5319 33.5602 49.482 33.3964 49.4165 33.2389C49.351 33.0797 49.2699 32.9284 49.1747 32.7865C49.0796 32.6445 48.9704 32.5119 48.8502 32.3903C48.7286 32.2686 48.596 32.161 48.454 32.0658C48.3105 31.9707 48.1608 31.8895 48.0017 31.824C47.8441 31.7585 47.6803 31.7086 47.5119 31.6758C47.3434 31.6415 47.1734 31.6259 47.0018 31.6259H16.6603C16.3717 31.6259 16.0863 31.5978 15.8024 31.5401C15.52 31.484 15.2455 31.4013 14.9788 31.2905C14.712 31.1798 14.4593 31.0456 14.2191 30.885C13.9789 30.7243 13.7574 30.5418 13.553 30.3375C13.3487 30.1347 13.1662 29.9116 13.0071 29.6714C12.8464 29.4327 12.7107 29.1785 12.5999 28.9117C12.4892 28.6465 12.4065 28.3704 12.3503 28.0881C12.2942 27.8042 12.2661 27.5187 12.2661 27.2302C12.2661 26.9416 12.2942 26.6561 12.3503 26.3738C12.4065 26.0899 12.4892 25.8153 12.5999 25.5486C12.7107 25.2818 12.8464 25.0291 13.0071 24.7889C13.1662 24.5487 13.3487 24.3272 13.553 24.1228C13.7574 23.9185 13.9789 23.7376 14.2191 23.5769C14.4593 23.4162 14.712 23.2805 14.9788 23.1698C15.2455 23.0606 15.52 22.9763 15.8024 22.9202C16.0863 22.864 16.3717 22.8359 16.6603 22.8359H71.1052C71.3938 22.8359 71.6808 22.864 71.9632 22.9202C72.2455 22.9763 72.5216 23.0606 72.7883 23.1698C73.0535 23.2805 73.3078 23.4162 73.548 23.5769C73.7867 23.7376 74.0097 23.9185 74.2141 24.1228C74.4169 24.3272 74.5994 24.5487 74.76 24.7889C74.9207 25.0291 75.0549 25.2818 75.1656 25.5486C75.2764 25.8153 75.359 26.0899 75.4168 26.3738C75.4729 26.6561 75.501 26.9416 75.501 27.2302C75.501 27.5187 75.4729 27.8042 75.4168 28.0881C75.359 28.3704 75.2764 28.6465 75.1656 28.9117C75.0549 29.1785 74.9207 29.4327 74.76 29.6714C74.5994 29.9116 74.4169 30.1347 74.2141 30.3375C74.0097 30.5418 73.7867 30.7243 73.548 30.885C73.3078 31.0456 73.0535 31.1798 72.7883 31.2905C72.5216 31.4013 72.2455 31.484 71.9632 31.5401C71.6808 31.5978 71.3938 31.6259 71.1052 31.6259H60.8084C60.6368 31.6259 60.4668 31.6415 60.2983 31.6758C60.1298 31.7086 59.9676 31.7585 59.8085 31.824C59.6494 31.8895 59.4996 31.9707 59.3561 32.0658C59.2142 32.161 59.0816 32.2686 58.9599 32.3903C58.8398 32.5119 58.7306 32.6445 58.6354 32.7865C58.5403 32.9284 58.4592 33.0797 58.3937 33.2389C58.3281 33.3964 58.2782 33.5602 58.2455 33.7287C58.2127 33.8971 58.1956 34.0672 58.1956 34.2387C58.1956 34.4103 58.2127 34.5788 58.247 34.7473C58.2813 34.9157 58.3313 35.078 58.3968 35.2371C58.4623 35.3946 58.5434 35.5444 58.6386 35.6879C58.7337 35.8298 58.8429 35.9609 58.963 36.0825C59.0847 36.2042 59.2173 36.3118 59.3592 36.407C59.5012 36.5037 59.6525 36.5833 59.81 36.6488C59.9676 36.7158 60.1314 36.7658 60.2999 36.7985C60.4668 36.8328 60.6368 36.85 60.8084 36.8516H108.164C108.452 36.8516 108.739 36.8796 109.021 36.9358C109.305 36.992 109.58 37.0746 109.847 37.1854C110.112 37.2961 110.366 37.4318 110.606 37.5925C110.845 37.7516 111.068 37.9341 111.272 38.1385C111.475 38.3428 111.658 38.5643 111.818 38.8045C111.979 39.0448 112.113 39.2975 112.224 39.5642C112.335 39.831 112.419 40.1055 112.475 40.3878C112.531 40.6717 112.559 40.9572 112.559 41.2458C112.559 41.5344 112.531 41.8198 112.475 42.1037C112.419 42.3861 112.335 42.6606 112.224 42.9273C112.113 43.1941 111.979 43.4468 111.818 43.687C111.658 43.9272 111.475 44.1487 111.272 44.3531C111.068 44.5574 110.845 44.7399 110.606 44.9006C110.366 45.0597 110.112 45.1954 109.847 45.3062C109.58 45.4169 109.305 45.4996 109.021 45.5558C108.739 45.6119 108.452 45.64 108.164 45.64H97.8667C97.6951 45.64 97.5251 45.6571 97.3566 45.6899C97.1882 45.7242 97.0259 45.7741 96.8668 45.8397C96.7077 45.9052 96.558 45.9847 96.4145 46.0814C96.2725 46.1766 96.1399 46.2842 96.0182 46.4059C95.8981 46.5276 95.7889 46.6586 95.6938 46.8021C95.5986 46.9441 95.5175 47.0954 95.452 47.2529C95.3865 47.412 95.3366 47.5758 95.3038 47.7443C95.2711 47.9112 95.2539 48.0812 95.2539 48.2528C95.2539 48.4244 95.2711 48.5944 95.3054 48.7629C95.3397 48.9314 95.3896 49.0936 95.4551 49.2527C95.5206 49.4102 95.6018 49.56 95.6969 49.7035C95.7921 49.8455 95.8997 49.978 96.0214 50.0982C96.143 50.2198 96.2741 50.3275 96.4176 50.4242C96.5595 50.5193 96.7093 50.5989 96.8684 50.666C97.0259 50.7315 97.1897 50.7814 97.3582 50.8141C97.5251 50.8485 97.6951 50.8656 97.8667 50.8672H128.558C128.846 50.8672 129.132 50.8953 129.416 50.9514C129.698 51.0076 129.972 51.0902 130.239 51.201C130.506 51.3118 130.759 51.4475 130.999 51.6066C131.239 51.7672 131.461 51.9497 131.665 52.1541C131.869 52.3569 132.052 52.5799 132.211 52.8202C132.372 53.0588 132.507 53.3131 132.618 53.5798C132.729 53.8466 132.811 54.1211 132.868 54.4035C132.924 54.6874 132.952 54.9728 132.952 55.2614C132.952 55.55 132.924 55.8354 132.868 56.1178C132.811 56.4017 132.729 56.6762 132.618 56.943C132.507 57.2097 132.372 57.4624 132.211 57.7026C132.052 57.9428 131.869 58.1644 131.665 58.3687C131.461 58.573 131.239 58.754 130.999 58.9147C130.759 59.0753 130.506 59.211 130.239 59.3218C129.972 59.431 129.698 59.5152 129.416 59.5714C129.132 59.6275 128.846 59.6556 128.558 59.6556ZM128.558 51.9934H97.8667C97.6218 51.9934 97.3785 51.9685 97.1367 51.9201C96.8965 51.8718 96.6625 51.8 96.4363 51.7064C96.2085 51.6128 95.9933 51.4974 95.7889 51.3601C95.5846 51.2244 95.3958 51.07 95.2227 50.8953C95.0496 50.7221 94.8936 50.5334 94.7563 50.329C94.6206 50.1262 94.5051 49.911 94.41 49.6832C94.3148 49.457 94.2431 49.2231 94.1947 48.9828C94.1464 48.7426 94.1214 48.4993 94.1199 48.2528C94.1214 48.0079 94.1448 47.7646 94.1932 47.5228C94.2415 47.281 94.3133 47.047 94.4069 46.8208C94.5005 46.5931 94.6159 46.3778 94.7532 46.1735C94.8904 45.9691 95.0449 45.7788 95.2196 45.6057C95.3927 45.431 95.5815 45.2765 95.7858 45.1393C95.9902 45.0036 96.207 44.8866 96.4332 44.793C96.6609 44.6994 96.8949 44.6276 97.1367 44.5793C97.3769 44.5309 97.6202 44.5059 97.8667 44.5059H108.164C108.379 44.5059 108.591 44.4857 108.802 44.4436C109.012 44.4014 109.216 44.339 109.415 44.2579C109.613 44.1752 109.8 44.0754 109.979 43.9553C110.157 43.8368 110.322 43.701 110.474 43.5497C110.625 43.3984 110.761 43.2331 110.879 43.0552C110.999 42.8759 111.099 42.6887 111.182 42.4906C111.265 42.2925 111.325 42.0881 111.368 41.8775C111.41 41.6669 111.43 41.4548 111.43 41.2395C111.43 41.0258 111.41 40.8137 111.368 40.6031C111.325 40.3925 111.265 40.1882 111.182 39.9901C111.099 39.792 110.999 39.6032 110.879 39.4254C110.761 39.2476 110.625 39.0822 110.474 38.9309C110.322 38.778 110.157 38.6439 109.979 38.5238C109.8 38.4052 109.613 38.3038 109.415 38.2227C109.216 38.14 109.012 38.0776 108.802 38.0371C108.591 37.995 108.379 37.9731 108.164 37.9731H60.8084C60.5619 37.9731 60.3186 37.9482 60.0783 37.8998C59.8366 37.8514 59.6026 37.7797 59.3764 37.6861C59.1486 37.5909 58.9334 37.4755 58.729 37.3398C58.5247 37.2025 58.3359 37.0465 58.1612 36.8734C57.9881 36.6987 57.8321 36.5099 57.6964 36.3056C57.5591 36.1013 57.4437 35.886 57.3501 35.6582C57.2549 35.4321 57.1832 35.1981 57.1348 34.9563C57.0865 34.7161 57.0631 34.4727 57.0615 34.2263C57.0631 33.9798 57.0865 33.7365 57.1348 33.4962C57.1832 33.2545 57.2549 33.0205 57.3485 32.7943C57.4421 32.5665 57.5576 32.3513 57.6948 32.1469C57.8321 31.9426 57.9865 31.7538 58.1612 31.5791C58.3344 31.406 58.5231 31.25 58.7275 31.1143C58.9334 30.977 59.1486 30.8616 59.3748 30.768C59.6026 30.6728 59.8366 30.6026 60.0783 30.5543C60.3186 30.5059 60.5619 30.481 60.8084 30.481H71.1052C71.3205 30.481 71.5326 30.4607 71.7432 30.4186C71.9538 30.3765 72.1581 30.3156 72.3563 30.2329C72.5544 30.1503 72.7415 30.0504 72.9209 29.9303C73.0988 29.8118 73.2641 29.6761 73.4154 29.5248C73.5667 29.3734 73.7024 29.2081 73.821 29.0303C73.9411 28.8509 74.0409 28.6637 74.1236 28.4656C74.2063 28.2675 74.2671 28.0631 74.3092 27.8525C74.3513 27.642 74.3716 27.4298 74.3716 27.2146C74.3716 27.0008 74.3513 26.7887 74.3092 26.5781C74.2671 26.3675 74.2063 26.1632 74.1236 25.9651C74.0409 25.767 73.9411 25.5782 73.821 25.4004C73.7024 25.2226 73.5667 25.0572 73.4154 24.9059C73.2641 24.7546 73.0988 24.6189 72.9209 24.4988C72.7415 24.3802 72.5544 24.2804 72.3563 24.1977C72.1581 24.115 71.9538 24.0542 71.7432 24.0121C71.5326 23.97 71.3205 23.9481 71.1052 23.9481H16.6603C16.4451 23.9481 16.2329 23.97 16.0223 24.0121C15.8133 24.0542 15.609 24.115 15.4109 24.1977C15.2127 24.2804 15.024 24.3802 14.8462 24.4988C14.6668 24.6189 14.503 24.7546 14.3501 24.9059C14.1988 25.0572 14.0631 25.2226 13.9446 25.4004C13.826 25.5782 13.7246 25.767 13.6419 25.9651C13.5608 26.1632 13.4984 26.3675 13.4563 26.5781C13.4142 26.7887 13.3939 27.0008 13.3939 27.2146C13.3939 27.4298 13.4142 27.642 13.4563 27.8525C13.4984 28.0631 13.5608 28.2675 13.6419 28.4656C13.7246 28.6637 13.826 28.8509 13.9446 29.0303C14.0631 29.2081 14.1988 29.3734 14.3501 29.5248C14.503 29.6761 14.6668 29.8118 14.8462 29.9303C15.024 30.0504 15.2127 30.1503 15.4109 30.2329C15.609 30.3156 15.8133 30.3765 16.0223 30.4186C16.2329 30.4607 16.4451 30.481 16.6603 30.481H47.0018C47.2482 30.481 47.4916 30.5059 47.7334 30.5527C47.9736 30.6011 48.2091 30.6728 48.4353 30.7664C48.6631 30.86 48.8783 30.9754 49.0827 31.1127C49.2886 31.25 49.4773 31.4044 49.6505 31.5791C49.8252 31.7523 49.9796 31.941 50.1169 32.1469C50.2541 32.3513 50.3696 32.5665 50.4632 32.7943C50.5568 33.0205 50.6285 33.256 50.6769 33.4962C50.7237 33.738 50.7486 33.9814 50.7486 34.2278C50.7486 34.4743 50.7237 34.7176 50.6769 34.9579C50.6285 35.1996 50.5568 35.4336 50.4632 35.6614C50.3696 35.8891 50.2541 36.1044 50.1169 36.3087C49.9796 36.5131 49.8252 36.7018 49.6505 36.8765C49.4773 37.0497 49.2886 37.2057 49.0827 37.3429C48.8783 37.4786 48.6631 37.5941 48.4353 37.6892C48.2091 37.7828 47.9736 37.853 47.7334 37.9014C47.4916 37.9497 47.2482 37.9731 47.0018 37.9731H37.0543C36.8406 37.9731 36.6285 37.995 36.4179 38.0371C36.2073 38.0776 36.003 38.14 35.8049 38.2227C35.6068 38.3038 35.418 38.4052 35.2402 38.5238C35.0624 38.6439 34.897 38.778 34.7457 38.9309C34.5928 39.0822 34.4587 39.2476 34.3386 39.4254C34.22 39.6032 34.1186 39.792 34.0375 39.9901C33.9548 40.1882 33.8924 40.3925 33.8519 40.6031C33.8098 40.8137 33.7879 41.0258 33.7879 41.2395C33.7879 41.4548 33.8098 41.6669 33.8519 41.8775C33.8924 42.0881 33.9548 42.2925 34.0375 42.4906C34.1186 42.6887 34.22 42.8759 34.3386 43.0552C34.4587 43.2331 34.5928 43.3984 34.7457 43.5497C34.897 43.701 35.0624 43.8368 35.2402 43.9553C35.418 44.0754 35.6068 44.1752 35.8049 44.2579C36.003 44.339 36.2073 44.4014 36.4179 44.4436C36.6285 44.4857 36.8406 44.5059 37.0543 44.5059H84.0601C84.3066 44.5059 84.5499 44.5309 84.7917 44.5777C85.0319 44.6261 85.2675 44.6978 85.4937 44.7914C85.7214 44.885 85.9367 45.0004 86.141 45.1377C86.3469 45.2734 86.5357 45.4294 86.7088 45.6041C86.8835 45.7773 87.0379 45.966 87.1752 46.1703C87.3125 46.3763 87.4279 46.5915 87.5215 46.8193C87.6151 47.0454 87.6869 47.2794 87.7352 47.5212C87.782 47.763 87.807 48.0063 87.807 48.2528C87.807 48.4977 87.782 48.7426 87.7352 48.9828C87.6869 49.2246 87.6151 49.4586 87.5215 49.6863C87.4279 49.9125 87.3125 50.1294 87.1752 50.3337C87.0379 50.538 86.8835 50.7268 86.7088 50.9015C86.5357 51.0746 86.3469 51.2306 86.141 51.3663C85.9367 51.5036 85.7214 51.619 85.4937 51.7126C85.2675 51.8078 85.0319 51.878 84.7917 51.9263C84.5499 51.9747 84.3066 51.9981 84.0601 51.9981H74.1127C73.899 51.9981 73.6868 52.0199 73.4762 52.0605C73.2657 52.1026 73.0613 52.165 72.8632 52.2477C72.6651 52.3288 72.4764 52.4302 72.2985 52.5487C72.1207 52.6673 71.9554 52.803 71.804 52.9543C71.6527 53.1072 71.517 53.271 71.3969 53.4504C71.2784 53.6282 71.177 53.8169 71.0959 54.015C71.0132 54.2131 70.9523 54.4175 70.9102 54.6281C70.8681 54.8371 70.8463 55.0508 70.8463 55.2645C70.8463 55.4798 70.8681 55.6919 70.9102 55.9025C70.9523 56.1115 71.0132 56.3159 71.0959 56.514C71.177 56.7121 71.2784 56.9008 71.3969 57.0787C71.517 57.2581 71.6527 57.4218 71.804 57.5747C71.9554 57.726 72.1207 57.8617 72.2985 57.9803C72.4764 58.0988 72.6651 58.2002 72.8632 58.2829C73.0613 58.364 73.2657 58.4264 73.4762 58.4685C73.6868 58.5106 73.899 58.5309 74.1127 58.5309H128.558C128.773 58.5309 128.985 58.5106 129.196 58.4685C129.405 58.4264 129.609 58.364 129.807 58.2829C130.005 58.2002 130.194 58.0988 130.372 57.9803C130.551 57.8617 130.715 57.726 130.868 57.5747C131.019 57.4218 131.155 57.2581 131.273 57.0787C131.392 56.9008 131.493 56.7121 131.576 56.514C131.657 56.3159 131.719 56.1115 131.762 55.9025C131.804 55.6919 131.824 55.4798 131.824 55.2645C131.824 55.0508 131.804 54.8371 131.762 54.6281C131.719 54.4175 131.657 54.2131 131.576 54.015C131.493 53.8169 131.392 53.6282 131.273 53.4504C131.155 53.271 131.019 53.1072 130.868 52.9543C130.715 52.803 130.551 52.6673 130.372 52.5487C130.194 52.4302 130.005 52.3288 129.807 52.2477C129.609 52.165 129.405 52.1026 129.196 52.0605C128.985 52.0199 128.773 51.9981 128.558 51.9981V51.9934ZM44.1737 51.2353H60.4059C60.6727 51.2306 60.9378 51.2525 61.1999 51.3008C61.4635 51.3492 61.7193 51.4225 61.9674 51.5223C62.2154 51.6206 62.4509 51.7438 62.674 51.8889C62.8986 52.0355 63.1045 52.2024 63.2964 52.3896C63.4867 52.5768 63.6567 52.7812 63.8065 53.0027C63.9562 53.2226 64.0826 53.4566 64.1855 53.7031C64.2885 53.9495 64.3665 54.2038 64.4195 54.4659C64.4726 54.7279 64.4991 54.9915 64.4991 55.2598C64.4991 55.5266 64.4726 55.7902 64.4195 56.0523C64.3665 56.3143 64.2885 56.5686 64.1855 56.815C64.0826 57.0615 63.9562 57.2955 63.8065 57.517C63.6567 57.7369 63.4867 57.9413 63.2964 58.1285C63.1045 58.3157 62.8986 58.4826 62.674 58.6292C62.4509 58.7743 62.2154 58.8975 61.9674 58.9958C61.7193 59.0956 61.4635 59.1689 61.1999 59.2173C60.9378 59.2656 60.6727 59.2875 60.4059 59.2828H44.1737C43.9069 59.2875 43.6418 59.2656 43.3797 59.2173C43.1161 59.1689 42.8618 59.0956 42.6138 58.9958C42.3642 58.8975 42.1287 58.7743 41.9056 58.6292C41.681 58.4826 41.4751 58.3157 41.2848 58.1285C41.0929 57.9413 40.9229 57.7369 40.7731 57.517C40.6234 57.2955 40.497 57.0615 40.3941 56.815C40.2911 56.5686 40.2131 56.3143 40.1601 56.0523C40.1071 55.7902 40.0805 55.5266 40.0805 55.2598C40.0805 54.9915 40.1071 54.7279 40.1601 54.4659C40.2131 54.2038 40.2911 53.9495 40.3941 53.7031C40.497 53.4566 40.6234 53.2226 40.7731 53.0027C40.9229 52.7812 41.0929 52.5768 41.2848 52.3896C41.4751 52.2024 41.681 52.0355 41.9056 51.8889C42.1287 51.7438 42.3642 51.6206 42.6138 51.5223C42.8618 51.4225 43.1161 51.3492 43.3797 51.3008C43.6418 51.2525 43.9069 51.2306 44.1737 51.2353ZM42.1302 57.3064C42.4001 57.5778 42.7136 57.7869 43.0677 57.9335C43.4218 58.0801 43.79 58.1519 44.1737 58.1503H60.4059C60.5978 58.155 60.7881 58.1394 60.9784 58.1051C61.1671 58.0708 61.3512 58.0193 61.5306 57.9475C61.7084 57.8773 61.8785 57.7884 62.0407 57.6839C62.2014 57.5794 62.3511 57.4593 62.4884 57.3251C62.6256 57.191 62.7489 57.0428 62.8565 56.8837C62.9641 56.7246 63.0562 56.5577 63.1311 56.3798C63.2044 56.202 63.2621 56.0195 63.2995 55.8308C63.337 55.642 63.3557 55.4517 63.3557 55.2598C63.3557 55.0664 63.337 54.8761 63.2995 54.6874C63.2621 54.4986 63.2044 54.3161 63.1311 54.1383C63.0562 53.962 62.9641 53.7935 62.8565 53.6344C62.7489 53.4753 62.6256 53.3287 62.4884 53.193C62.3511 53.0588 62.2014 52.9387 62.0407 52.8342C61.8785 52.7297 61.7084 52.6423 61.5306 52.5706C61.3512 52.5004 61.1671 52.4474 60.9784 52.413C60.7881 52.3787 60.5978 52.3631 60.4059 52.3678H44.1737C43.8882 52.3678 43.6075 52.4084 43.3329 52.491C43.0584 52.5737 42.8025 52.6938 42.5654 52.8529C42.3268 53.012 42.1162 53.2023 41.9352 53.4238C41.7527 53.6453 41.6077 53.8871 41.4985 54.1523C41.3877 54.4175 41.3191 54.692 41.2926 54.9775C41.2645 55.2614 41.2785 55.5453 41.3347 55.8261C41.3908 56.1069 41.486 56.372 41.6217 56.6247C41.7574 56.8774 41.9274 57.1036 42.1302 57.3064Z" fill="#100F0D"/>
</g>
<mask id="mask1_237_8932" style="mask-type:luminance" maskUnits="userSpaceOnUse" x="40" y="66" width="26" height="10">
<path d="M40.4604 66.9336H65.5435V75.7922H40.4604V66.9336Z" fill="white"/>
</mask>
<g mask="url(#mask1_237_8932)">
<path d="M61.7774 99.8677H-12.2644C-12.5093 99.8677 -12.7511 99.8443 -12.9898 99.7959C-13.23 99.7475 -13.4624 99.6773 -13.6886 99.5838C-13.9148 99.4902 -14.1285 99.3763 -14.3328 99.2406C-14.5356 99.1049 -14.7228 98.9504 -14.8959 98.7773C-15.0691 98.6041 -15.2235 98.417 -15.3592 98.2126C-15.4949 98.0098 -15.6088 97.7961 -15.7024 97.5699C-15.796 97.3438 -15.8678 97.1113 -15.9146 96.8711C-15.9629 96.6324 -15.9863 96.3891 -15.9863 96.1458C-15.9863 95.9009 -15.9629 95.6591 -15.9146 95.4188C-15.8678 95.1786 -15.796 94.9462 -15.7024 94.7216C-15.6088 94.4954 -15.4949 94.2801 -15.3592 94.0773C-15.2235 93.8746 -15.0691 93.6858 -14.8959 93.5127C-14.7228 93.3411 -14.5356 93.1866 -14.3328 93.0509C-14.1285 92.9152 -13.9148 92.7998 -13.6886 92.7062C-13.4624 92.6126 -13.23 92.5424 -12.9898 92.4941C-12.7511 92.4473 -12.5093 92.4223 -12.2644 92.4223H-1.47932C-1.30773 92.4207 -1.1377 92.402 -0.969231 92.3677C-0.800762 92.3318 -0.636974 92.2803 -0.479424 92.2133C-0.320316 92.1462 -0.170567 92.0651 -0.0286179 91.9684C0.113335 91.8717 0.245926 91.7625 0.366035 91.6392C0.487709 91.5176 0.595341 91.385 0.690495 91.2415C0.785648 91.0979 0.8652 90.9466 0.930717 90.7875C0.996231 90.6284 1.04459 90.4646 1.07891 90.2962C1.11166 90.1261 1.12882 89.9561 1.12882 89.7845C1.12882 89.6129 1.11166 89.4429 1.07891 89.2729C1.04459 89.1044 0.996231 88.9406 0.930717 88.7815C0.8652 88.6224 0.785648 88.4711 0.690495 88.3276C0.595341 88.1856 0.487709 88.0515 0.366035 87.9298C0.245926 87.8081 0.113335 87.6974 -0.0286179 87.6007C-0.170567 87.5055 -0.320316 87.4228 -0.479424 87.3558C-0.636974 87.2887 -0.800762 87.2372 -0.969231 87.2013C-1.1377 87.167 -1.30773 87.1483 -1.47932 87.1467H-22.6158C-22.8592 87.1452 -23.101 87.1218 -23.3412 87.0734C-23.5814 87.0266 -23.8138 86.9549 -24.0385 86.8613C-24.2646 86.7677 -24.4784 86.6538 -24.6811 86.5181C-24.8855 86.3824 -25.0727 86.228 -25.2458 86.0548C-25.4174 85.8817 -25.5718 85.6945 -25.7075 85.4901C-25.8433 85.2874 -25.9571 85.0736 -26.0507 84.8475C-26.1443 84.6213 -26.2145 84.3889 -26.2629 84.1502C-26.3097 83.91 -26.3346 83.6682 -26.3346 83.4233C-26.3346 83.1799 -26.3097 82.9382 -26.2629 82.6979C-26.2145 82.4593 -26.1443 82.2253 -26.0507 82.0007C-25.9571 81.7745 -25.8433 81.5608 -25.7075 81.3564C-25.5718 81.1536 -25.4174 80.9665 -25.2458 80.7933C-25.0727 80.6202 -24.8855 80.4657 -24.6811 80.33C-24.4784 80.1943 -24.2646 80.0789 -24.0385 79.9853C-23.8138 79.8917 -23.5814 79.8215 -23.3412 79.7731C-23.101 79.7263 -22.8592 79.7014 -22.6158 79.7014H-17.7178C-17.5462 79.6998 -17.3762 79.6811 -17.2077 79.6452C-17.0392 79.6109 -16.877 79.5594 -16.7179 79.4924C-16.5603 79.4253 -16.409 79.3426 -16.2671 79.2459C-16.1251 79.1492 -15.9941 79.04 -15.8724 78.9183C-15.7523 78.7951 -15.6431 78.6625 -15.5495 78.519C-15.4544 78.3755 -15.3733 78.2242 -15.3093 78.0651C-15.2438 77.9059 -15.1939 77.7422 -15.1611 77.5737C-15.1268 77.4052 -15.1112 77.2352 -15.1112 77.0636C-15.1112 76.8905 -15.1268 76.7204 -15.1611 76.552C-15.1939 76.3835 -15.2438 76.2197 -15.3093 76.0606C-15.3733 75.9015 -15.4544 75.7502 -15.5495 75.6067C-15.6431 75.4632 -15.7523 75.3306 -15.8724 75.2089C-15.9941 75.0857 -16.1251 74.9765 -16.2671 74.8798C-16.409 74.783 -16.5603 74.7019 -16.7179 74.6349C-16.877 74.5678 -17.0392 74.5163 -17.2077 74.4804C-17.3762 74.4461 -17.5462 74.4274 -17.7178 74.4243H-40.0835C-40.3269 74.4227 -40.5671 74.3962 -40.8042 74.3463C-41.0428 74.2979 -41.2737 74.2262 -41.4968 74.131C-41.7214 74.0359 -41.9335 73.9204 -42.1348 73.7847C-42.336 73.649 -42.5216 73.4946 -42.6916 73.3214C-42.8632 73.1483 -43.0161 72.9611 -43.1503 72.7583C-43.2844 72.5571 -43.3967 72.3434 -43.4903 72.1188C-43.5823 71.8941 -43.651 71.6617 -43.6993 71.4246C-43.7461 71.1859 -43.7695 70.9457 -43.7695 70.7024C-43.7695 70.459 -43.7461 70.2188 -43.6993 69.9801C-43.651 69.7415 -43.5823 69.5106 -43.4903 69.286C-43.3967 69.0614 -43.2844 68.8477 -43.1503 68.6449C-43.0161 68.4436 -42.8632 68.2549 -42.6916 68.0833C-42.5216 67.9102 -42.336 67.7557 -42.1348 67.62C-41.9335 67.4843 -41.7214 67.3689 -41.4968 67.2737C-41.2737 67.1786 -41.0428 67.1068 -40.8042 67.0569C-40.5671 67.0085 -40.3269 66.982 -40.0835 66.9805H33.9583C34.2016 66.982 34.4419 67.0085 34.679 67.0569C34.9176 67.1068 35.1485 67.1786 35.3716 67.2737C35.5962 67.3689 35.8083 67.4843 36.0096 67.62C36.2108 67.7557 36.3964 67.9102 36.5664 68.0833C36.738 68.2549 36.8909 68.4436 37.025 68.6449C37.1592 68.8477 37.2715 69.0614 37.3651 69.286C37.4571 69.5106 37.5258 69.7415 37.5741 69.9801C37.6209 70.2188 37.6443 70.459 37.6443 70.7024C37.6443 70.9457 37.6209 71.1859 37.5741 71.4246C37.5258 71.6617 37.4571 71.8941 37.3651 72.1188C37.2715 72.3434 37.1592 72.5571 37.025 72.7583C36.8909 72.9611 36.738 73.1483 36.5664 73.3214C36.3964 73.4946 36.2108 73.649 36.0096 73.7847C35.8083 73.9204 35.5962 74.0359 35.3716 74.131C35.1485 74.2262 34.9176 74.2979 34.679 74.3463C34.4419 74.3962 34.2016 74.4227 33.9583 74.4243H28.6391C28.4675 74.4274 28.2974 74.4461 28.129 74.4804C27.9605 74.5163 27.7967 74.5678 27.6392 74.6349C27.4801 74.7019 27.3303 74.783 27.1884 74.8798C27.0464 74.9765 26.9138 75.0857 26.7937 75.2089C26.672 75.3306 26.5644 75.4632 26.4693 75.6067C26.3741 75.7502 26.2945 75.9015 26.229 76.0606C26.1635 76.2197 26.1152 76.3835 26.0808 76.552C26.0481 76.7204 26.0309 76.8905 26.0309 77.0636C26.0309 77.2352 26.0481 77.4052 26.0808 77.5737C26.1152 77.7422 26.1635 77.9059 26.229 78.0651C26.2945 78.2242 26.3741 78.3755 26.4693 78.519C26.5644 78.6625 26.672 78.7951 26.7937 78.9183C26.9138 79.04 27.0464 79.1492 27.1884 79.2459C27.3303 79.3426 27.4801 79.4253 27.6392 79.4924C27.7967 79.5594 27.9605 79.6109 28.129 79.6452C28.2974 79.6811 28.4675 79.6998 28.6391 79.7014H51.426C51.6709 79.7014 51.9126 79.7248 52.1513 79.7731C52.3915 79.8215 52.624 79.8917 52.8501 79.9853C53.0763 80.0789 53.29 80.1927 53.4944 80.3285C53.6972 80.4642 53.8843 80.6186 54.0575 80.7917C54.2306 80.9649 54.3851 81.1521 54.5208 81.3564C54.6565 81.5592 54.7704 81.7729 54.864 81.9991C54.9576 82.2253 55.0293 82.4577 55.0761 82.6979C55.1245 82.9382 55.1479 83.1799 55.1479 83.4233C55.1479 83.6682 55.1245 83.91 55.0761 84.1502C55.0293 84.3904 54.9576 84.6228 54.864 84.849C54.7704 85.0736 54.6565 85.2889 54.5208 85.4917C54.3851 85.6945 54.2306 85.8832 54.0575 86.0564C53.8843 86.228 53.6972 86.3824 53.4944 86.5181C53.29 86.6538 53.0763 86.7692 52.8501 86.8628C52.624 86.9564 52.3915 87.0266 52.1513 87.075C51.9126 87.1218 51.6709 87.1467 51.426 87.1467H40.3788C40.2072 87.1483 40.0372 87.167 39.8687 87.2013C39.7003 87.2372 39.5365 87.2887 39.3789 87.3558C39.2198 87.4228 39.0701 87.5055 38.9281 87.6007C38.7862 87.6974 38.6536 87.8081 38.5335 87.9298C38.4118 88.0515 38.3042 88.1856 38.209 88.3276C38.1138 88.4711 38.0343 88.6224 37.9688 88.7815C37.9033 88.9406 37.8549 89.1044 37.8206 89.2729C37.7878 89.4429 37.7707 89.6129 37.7707 89.7845C37.7707 89.9561 37.7878 90.1261 37.8206 90.2962C37.8549 90.4646 37.9033 90.6284 37.9688 90.7875C38.0343 90.9466 38.1138 91.0979 38.209 91.2415C38.3042 91.385 38.4118 91.5176 38.5335 91.6392C38.6536 91.7625 38.7862 91.8717 38.9281 91.9684C39.0701 92.0651 39.2198 92.1462 39.3789 92.2133C39.5365 92.2803 39.7003 92.3318 39.8687 92.3677C40.0372 92.402 40.2072 92.4207 40.3788 92.4223H61.7774C62.0223 92.4239 62.2641 92.4473 62.5027 92.4956C62.743 92.544 62.9754 92.6142 63.2016 92.7078C63.4262 92.8013 63.6399 92.9168 63.8443 93.0525C64.047 93.1882 64.2342 93.3426 64.4074 93.5158C64.579 93.6874 64.7334 93.8761 64.8691 94.0789C65.0048 94.2817 65.1187 94.497 65.2123 94.7216C65.3059 94.9478 65.3761 95.1802 65.4244 95.4204C65.4712 95.6591 65.4946 95.9009 65.4946 96.1458C65.4946 96.3891 65.4712 96.6309 65.4244 96.8711C65.3761 97.1098 65.3059 97.3422 65.2123 97.5684C65.1187 97.7946 65.0048 98.0083 64.8691 98.2111C64.7334 98.4154 64.579 98.6026 64.4074 98.7757C64.2342 98.9489 64.047 99.1033 63.8443 99.239C63.6399 99.3747 63.4262 99.4886 63.2016 99.5822C62.9754 99.6758 62.743 99.7475 62.5027 99.7943C62.2641 99.8427 62.0223 99.8677 61.7774 99.8677ZM-12.2644 93.5064C-12.436 93.5095 -12.606 93.5283 -12.7745 93.5626C-12.943 93.5985 -13.1067 93.6499 -13.2643 93.717C-13.4234 93.7841 -13.5732 93.8652 -13.7151 93.9619C-13.8571 94.0586 -13.9896 94.1678 -14.1098 94.291C-14.2314 94.4127 -14.3391 94.5453 -14.4342 94.6888C-14.5278 94.8323 -14.6089 94.9836 -14.6744 95.1427C-14.7384 95.3019 -14.7883 95.4656 -14.8211 95.6341C-14.8554 95.8026 -14.871 95.9742 -14.871 96.1458C-14.871 96.3173 -14.8554 96.4874 -14.8211 96.6558C-14.7883 96.8259 -14.7384 96.9897 -14.6744 97.1488C-14.6089 97.3063 -14.5278 97.4576 -14.4342 97.6011C-14.3391 97.7446 -14.2314 97.8772 -14.1098 98.0005C-13.9896 98.1221 -13.8571 98.2313 -13.7151 98.328C-13.5732 98.4248 -13.4234 98.5074 -13.2643 98.5745C-13.1067 98.6416 -12.943 98.6931 -12.7745 98.7274C-12.606 98.7633 -12.436 98.782 -12.2644 98.7835H61.7774C61.9505 98.782 62.1206 98.7633 62.289 98.7274C62.456 98.6931 62.6197 98.6416 62.7788 98.5745C62.9364 98.5074 63.0862 98.4248 63.2297 98.328C63.3716 98.2313 63.5026 98.1221 63.6243 98.0005C63.7444 97.8772 63.8521 97.7446 63.9472 97.6011C64.0424 97.4576 64.1219 97.3063 64.1874 97.1488C64.2529 96.9897 64.3029 96.8259 64.3356 96.6558C64.3684 96.4874 64.3855 96.3173 64.3855 96.1458C64.3855 95.9742 64.3684 95.8026 64.3356 95.6341C64.3029 95.4656 64.2529 95.3019 64.1874 95.1427C64.1219 94.9836 64.0424 94.8323 63.9472 94.6888C63.8521 94.5453 63.7444 94.4127 63.6243 94.291C63.5026 94.1678 63.3716 94.0586 63.2297 93.9619C63.0862 93.8652 62.9364 93.7841 62.7788 93.717C62.6197 93.6499 62.456 93.5985 62.289 93.5626C62.1206 93.5283 61.9505 93.5095 61.7774 93.5064H40.3788C40.1355 93.5049 39.8952 93.4783 39.6581 93.4284C39.4195 93.3801 39.1886 93.3083 38.9655 93.2132C38.7425 93.118 38.5303 93.0026 38.3291 92.8669C38.1279 92.7312 37.9407 92.5767 37.7707 92.4036C37.5991 92.2304 37.4478 92.0432 37.3136 91.8405C37.1795 91.6392 37.0656 91.4255 36.9736 91.2009C36.88 90.9763 36.8113 90.7439 36.7645 90.5067C36.7162 90.2681 36.6928 90.0279 36.6928 89.7845C36.6928 89.5412 36.7162 89.301 36.7645 89.0623C36.8113 88.8252 36.88 88.5928 36.9736 88.3681C37.0656 88.1435 37.1795 87.9298 37.3136 87.7286C37.4478 87.5258 37.5991 87.3386 37.7707 87.1655C37.9407 86.9923 38.1279 86.8379 38.3291 86.7022C38.5303 86.5665 38.7425 86.451 38.9655 86.3559C39.1886 86.2607 39.4195 86.189 39.6581 86.1406C39.8952 86.0907 40.1355 86.0642 40.3788 86.0626H51.4275C51.6007 86.0626 51.7723 86.0455 51.9407 86.0111C52.1108 85.9784 52.2761 85.9269 52.4368 85.8614C52.5959 85.7943 52.7487 85.7132 52.8923 85.618C53.0358 85.5213 53.1699 85.4121 53.2916 85.2889C53.4148 85.1672 53.524 85.0331 53.6207 84.8896C53.7159 84.7461 53.7986 84.5932 53.8641 84.4341C53.9311 84.2734 53.9811 84.1081 54.0138 83.938C54.0481 83.768 54.0653 83.5964 54.0653 83.4233C54.0653 83.2501 54.0481 83.0785 54.0138 82.9085C53.9811 82.7385 53.9311 82.5747 53.8641 82.414C53.7986 82.2549 53.7159 82.1021 53.6207 81.9585C53.524 81.8135 53.4148 81.6809 53.2916 81.5577C53.1699 81.436 53.0358 81.3268 52.8923 81.2301C52.7487 81.1334 52.5959 81.0522 52.4368 80.9867C52.2761 80.9197 52.1108 80.8697 51.9407 80.837C51.7723 80.8027 51.6007 80.7855 51.4275 80.7855H28.6406C28.3973 80.7824 28.1571 80.7574 27.9184 80.7075C27.6813 80.6576 27.4504 80.5858 27.2274 80.4922C27.0027 80.3971 26.7906 80.2817 26.5894 80.146C26.3881 80.0087 26.2025 79.8543 26.0309 79.6827C25.8609 79.5095 25.708 79.3223 25.5739 79.1195C25.4397 78.9168 25.3259 78.7031 25.2338 78.4784C25.1418 78.2538 25.0716 78.0229 25.0248 77.7843C24.978 77.5472 24.9546 77.3054 24.9546 77.0636C24.9546 76.8203 24.978 76.58 25.0248 76.3414C25.0716 76.1027 25.1418 75.8718 25.2338 75.6472C25.3259 75.4226 25.4397 75.2089 25.5739 75.0061C25.708 74.8033 25.8609 74.6161 26.0309 74.4445C26.2025 74.2714 26.3881 74.117 26.5894 73.9813C26.7906 73.844 27.0027 73.7286 27.2274 73.635C27.4504 73.5398 27.6813 73.4681 27.9184 73.4181C28.1571 73.3698 28.3973 73.3433 28.6406 73.3401H33.9599C34.1314 73.3386 34.3015 73.3199 34.4699 73.2855C34.6384 73.2497 34.8022 73.1982 34.9597 73.1311C35.1189 73.064 35.2686 72.9814 35.4106 72.8847C35.5525 72.7895 35.6851 72.6788 35.8052 72.5571C35.9269 72.4354 36.0345 72.3013 36.1297 72.1593C36.2233 72.0158 36.3044 71.8645 36.3699 71.7054C36.4354 71.5463 36.4838 71.3825 36.5181 71.2125C36.5508 71.044 36.568 70.874 36.568 70.7024C36.568 70.5308 36.5508 70.3592 36.5181 70.1907C36.4838 70.0223 36.4354 69.8585 36.3699 69.6994C36.3044 69.5403 36.2233 69.3889 36.1297 69.2454C36.0345 69.1019 35.9269 68.9693 35.8052 68.8477C35.6851 68.7244 35.5525 68.6152 35.4106 68.5185C35.2686 68.4218 35.1189 68.3407 34.9597 68.2736C34.8022 68.2065 34.6384 68.1551 34.4699 68.1192C34.3015 68.0849 34.1314 68.0662 33.9599 68.063H-40.0835C-40.2551 68.0662 -40.4251 68.0849 -40.5936 68.1192C-40.7621 68.1551 -40.9258 68.2065 -41.0834 68.2736C-41.2425 68.3407 -41.3923 68.4218 -41.5342 68.5185C-41.6777 68.6152 -41.8087 68.7244 -41.9289 68.8477C-42.0505 68.9693 -42.1582 69.1019 -42.2533 69.2454C-42.3485 69.3889 -42.428 69.5403 -42.4935 69.6994C-42.5591 69.8585 -42.609 70.0223 -42.6417 70.1907C-42.6745 70.3592 -42.6916 70.5308 -42.6916 70.7024C-42.6916 70.874 -42.6745 71.044 -42.6417 71.2125C-42.609 71.3825 -42.5591 71.5463 -42.4935 71.7054C-42.428 71.8645 -42.3485 72.0158 -42.2533 72.1593C-42.1582 72.3013 -42.0505 72.4354 -41.9289 72.5571C-41.8087 72.6788 -41.6777 72.7895 -41.5342 72.8847C-41.3923 72.9814 -41.2425 73.064 -41.0834 73.1311C-40.9258 73.1982 -40.7621 73.2497 -40.5936 73.284C-40.4251 73.3199 -40.2551 73.3386 -40.0835 73.3401H-17.7178C-17.476 73.3433 -17.2358 73.3698 -16.9971 73.4181C-16.76 73.4681 -16.5291 73.5398 -16.3045 73.635C-16.0815 73.7286 -15.8693 73.844 -15.6681 73.9813C-15.4669 74.117 -15.2812 74.2714 -15.1096 74.4445C-14.9396 74.6161 -14.7867 74.8033 -14.6526 75.0061C-14.5184 75.2089 -14.4046 75.4226 -14.3125 75.6472C-14.2205 75.8718 -14.1503 76.1027 -14.1035 76.3414C-14.0567 76.58 -14.0318 76.8203 -14.0318 77.0636C-14.0318 77.3054 -14.0567 77.5472 -14.1035 77.7843C-14.1503 78.0229 -14.2205 78.2538 -14.3125 78.4784C-14.4046 78.7031 -14.5184 78.9168 -14.6526 79.1195C-14.7867 79.3223 -14.9396 79.5095 -15.1096 79.6827C-15.2812 79.8543 -15.4669 80.0087 -15.6681 80.146C-15.8693 80.2817 -16.0815 80.3971 -16.3045 80.4922C-16.5291 80.5858 -16.76 80.6576 -16.9971 80.7075C-17.2358 80.7574 -17.476 80.7824 -17.7178 80.7855H-22.6158C-22.789 80.7855 -22.9606 80.8027 -23.1306 80.837C-23.3006 80.8697 -23.4644 80.9197 -23.6251 80.9867C-23.7858 81.0522 -23.9371 81.1334 -24.0806 81.2301C-24.2257 81.3268 -24.3582 81.436 -24.4815 81.5577C-24.6031 81.6809 -24.7123 81.8135 -24.8091 81.9585C-24.9058 82.1021 -24.9869 82.2549 -25.0524 82.414C-25.1195 82.5747 -25.1694 82.7385 -25.2037 82.9085C-25.2365 83.0785 -25.2536 83.2501 -25.2536 83.4233C-25.2536 83.5964 -25.2365 83.768 -25.2037 83.938C-25.1694 84.1081 -25.1195 84.2734 -25.0524 84.4341C-24.9869 84.5932 -24.9058 84.7461 -24.8091 84.8896C-24.7123 85.0331 -24.6031 85.1672 -24.4815 85.2889C-24.3582 85.4121 -24.2257 85.5213 -24.0806 85.618C-23.9371 85.7132 -23.7858 85.7943 -23.6251 85.8614C-23.4644 85.9269 -23.3006 85.9784 -23.1306 86.0111C-22.9606 86.0455 -22.789 86.0626 -22.6158 86.0626H-1.47776C-1.23597 86.0642 -0.99575 86.0907 -0.757088 86.1406C-0.519981 86.189 -0.28912 86.2607 -0.0644951 86.3559C0.158569 86.451 0.370716 86.5665 0.571941 86.7022C0.773167 86.8379 0.958794 86.9923 1.13038 87.1655C1.30041 87.3386 1.45328 87.5258 1.58743 87.7286C1.72158 87.9298 1.83545 88.1435 1.92749 88.3681C2.01952 88.5928 2.08971 88.8252 2.13651 89.0623C2.18331 89.301 2.20671 89.5412 2.20671 89.7845C2.20671 90.0279 2.18331 90.2681 2.13651 90.5067C2.08971 90.7439 2.01952 90.9763 1.92749 91.2009C1.83545 91.4255 1.72158 91.6392 1.58743 91.8405C1.45328 92.0432 1.30041 92.2304 1.13038 92.4036C0.958794 92.5767 0.773167 92.7312 0.571941 92.8669C0.370716 93.0026 0.158569 93.118 -0.0644951 93.2132C-0.28912 93.3083 -0.519981 93.3801 -0.757088 93.4284C-0.99575 93.4783 -1.23597 93.5049 -1.47776 93.5064H-12.2644Z" fill="#100F0D"/>
</g>
<mask id="mask2_237_8932" style="mask-type:luminance" maskUnits="userSpaceOnUse" x="41" y="66" width="9" height="9">
<path d="M41.9819 66.5078H49.9686V74.521H41.9819V66.5078Z" fill="white"/>
</mask>
<g mask="url(#mask2_237_8932)">
<path d="M45.9901 74.3318C45.7343 74.3318 45.4801 74.3069 45.2289 74.257C44.9762 74.2071 44.7313 74.1337 44.4942 74.0355C44.2571 73.9372 44.0325 73.8171 43.8188 73.6736C43.6051 73.5316 43.4085 73.3694 43.226 73.1869C43.0451 73.0059 42.8828 72.8094 42.7409 72.5957C42.5974 72.382 42.4773 72.1558 42.379 71.9187C42.2807 71.6816 42.2074 71.4382 42.1575 71.1855C42.106 70.9344 42.0811 70.6801 42.0811 70.4228C42.0811 70.1669 42.106 69.9127 42.1575 69.6615C42.2074 69.4088 42.2807 69.1639 42.379 68.9268C42.4773 68.6897 42.5974 68.4651 42.7409 68.2514C42.8828 68.0377 43.0451 67.8411 43.226 67.6586C43.4085 67.4777 43.6051 67.3155 43.8188 67.1735C44.0325 67.03 44.2571 66.9099 44.4942 66.8116C44.7313 66.7133 44.9762 66.64 45.2289 66.5901C45.4801 66.5386 45.7343 66.5137 45.9901 66.5137C46.2475 66.5137 46.5018 66.5386 46.7529 66.5901C47.0056 66.64 47.249 66.7133 47.4876 66.8116C47.7247 66.9099 47.9494 67.03 48.1631 67.1735C48.3768 67.3155 48.5733 67.4777 48.7558 67.6586C48.9368 67.8411 49.099 68.0377 49.241 68.2514C49.3845 68.4651 49.5046 68.6897 49.6029 68.9268C49.7011 69.1639 49.7744 69.4088 49.8244 69.66C49.8743 69.9127 49.9008 70.1669 49.9008 70.4228C49.8992 70.6801 49.8743 70.9344 49.8244 71.1855C49.7744 71.4367 49.6996 71.6816 49.6013 71.9187C49.503 72.1558 49.3829 72.3804 49.2394 72.5941C49.0974 72.8078 48.9352 73.0044 48.7543 73.1869C48.5718 73.3678 48.3752 73.5301 48.1615 73.672C47.9478 73.8155 47.7232 73.9356 47.4861 74.0339C47.249 74.1322 47.0056 74.2071 46.7529 74.257C46.5018 74.3069 46.2475 74.3318 45.9901 74.3318ZM45.9901 67.5978C45.8061 67.5978 45.622 67.6165 45.4395 67.6524C45.257 67.6883 45.0807 67.7413 44.9091 67.8131C44.7375 67.8833 44.5753 67.9706 44.4209 68.0736C44.2665 68.1765 44.1245 68.2935 43.9935 68.4245C43.8609 68.5571 43.7439 68.6991 43.6409 68.8535C43.538 69.0079 43.4506 69.1702 43.3804 69.3418C43.3087 69.5133 43.2557 69.6896 43.2198 69.8721C43.1823 70.0546 43.1652 70.2371 43.1652 70.4228C43.1652 70.6084 43.1823 70.7925 43.2198 70.975C43.2557 71.1559 43.3087 71.3337 43.3804 71.5038C43.4506 71.6754 43.538 71.8391 43.6409 71.9936C43.7439 72.148 43.8609 72.2899 43.9919 72.421C44.123 72.552 44.2665 72.669 44.4209 72.772C44.5753 72.8765 44.7375 72.9623 44.9091 73.034C45.0807 73.1042 45.257 73.1588 45.4395 73.1947C45.6204 73.2306 45.8045 73.2493 45.9901 73.2493C46.1758 73.2493 46.3598 73.2306 46.5423 73.1947C46.7233 73.1588 46.9011 73.1042 47.0711 73.034C47.2427 72.9623 47.4065 72.8765 47.561 72.7735C47.7138 72.669 47.8573 72.552 47.9884 72.421C48.1194 72.2899 48.2364 72.148 48.3393 71.9936C48.4423 71.8391 48.5296 71.6769 48.6014 71.5053C48.6716 71.3337 48.7262 71.1559 48.7621 70.975C48.7979 70.7925 48.8167 70.6084 48.8167 70.4228C48.8167 70.2387 48.7979 70.0546 48.7621 69.8721C48.7246 69.6912 48.6716 69.5133 48.5998 69.3418C48.5296 69.1717 48.4423 69.0079 48.3393 68.8535C48.2364 68.7006 48.1194 68.5571 47.9884 68.4261C47.8573 68.2951 47.7138 68.1781 47.5594 68.0751C47.4065 67.9722 47.2427 67.8848 47.0711 67.8131C46.9011 67.7429 46.7233 67.6883 46.5423 67.6524C46.3598 67.615 46.1758 67.5978 45.9901 67.5978Z" fill="#100F0D"/>
</g>
<mask id="mask3_237_8932" style="mask-type:luminance" maskUnits="userSpaceOnUse" x="52" y="66" width="10" height="9">
<path d="M52.7651 66.5078H61.1511V74.521H52.7651V66.5078Z" fill="white"/>
</mask>
<g mask="url(#mask3_237_8932)">
<path d="M57.0624 74.3318C56.805 74.3318 56.5508 74.3069 56.2996 74.257C56.0469 74.2071 55.8036 74.1337 55.5665 74.0355C55.3294 73.9372 55.1032 73.8155 54.8895 73.6736C54.6773 73.5316 54.4792 73.3694 54.2983 73.1869C54.1158 73.0059 53.9551 72.8078 53.8116 72.5957C53.6696 72.382 53.5495 72.1558 53.4513 71.9187C53.353 71.6816 53.2781 71.4382 53.2282 71.1855C53.1783 70.9344 53.1533 70.6801 53.1533 70.4228C53.1533 70.1669 53.1783 69.9127 53.2282 69.66C53.2781 69.4088 53.353 69.1639 53.4513 68.9268C53.5495 68.6897 53.6696 68.4651 53.8116 68.2514C53.9551 68.0377 54.1173 67.8411 54.2983 67.6586C54.4792 67.4777 54.6773 67.3155 54.891 67.1735C55.1047 67.03 55.3294 66.9099 55.5665 66.8116C55.8036 66.7133 56.0485 66.64 56.2996 66.5885C56.5523 66.5386 56.805 66.5137 57.0624 66.5137C57.3198 66.5137 57.5741 66.5386 57.8252 66.5901C58.0763 66.64 58.3212 66.7133 58.5583 66.8116C58.7954 66.9099 59.0201 67.03 59.2338 67.1735C59.4475 67.3155 59.6456 67.4777 59.8265 67.6586C60.0075 67.8411 60.1697 68.0377 60.3132 68.2514C60.4552 68.4651 60.5753 68.6897 60.6736 68.9268C60.7718 69.1639 60.8467 69.4088 60.8966 69.6615C60.9465 69.9127 60.9715 70.1669 60.9715 70.4228C60.9715 70.6801 60.9465 70.9344 60.8951 71.1855C60.8451 71.4367 60.7718 71.6816 60.672 71.9187C60.5737 72.1558 60.4536 72.3804 60.3117 72.5941C60.1682 72.8078 60.0059 73.0044 59.825 73.1869C59.644 73.3678 59.4459 73.5301 59.2322 73.672C59.0201 73.8155 58.7939 73.9356 58.5568 74.0339C58.3197 74.1322 58.0763 74.2071 57.8236 74.257C57.5725 74.3069 57.3182 74.3318 57.0624 74.3318ZM57.0624 67.5978C56.8768 67.5978 56.6927 67.6165 56.5102 67.6524C56.3293 67.6883 56.1514 67.7413 55.9814 67.8131C55.8098 67.8833 55.646 67.9706 55.4916 68.0736C55.3372 68.1765 55.1952 68.2935 55.0642 68.4261C54.9332 68.5571 54.8162 68.6991 54.7132 68.8535C54.6103 69.0079 54.5229 69.1702 54.4511 69.3418C54.381 69.5133 54.3264 69.6896 54.2905 69.8721C54.2546 70.0546 54.2359 70.2371 54.2359 70.4228C54.2359 70.6084 54.2546 70.7925 54.2905 70.975C54.3264 71.1559 54.381 71.3337 54.4511 71.5053C54.5229 71.6754 54.6103 71.8391 54.7132 71.9936C54.8162 72.148 54.9332 72.2899 55.0642 72.421C55.1952 72.552 55.3372 72.669 55.4916 72.7735C55.646 72.8765 55.8098 72.9623 55.9814 73.034C56.1514 73.1042 56.3293 73.1588 56.5102 73.1947C56.6927 73.2306 56.8768 73.2493 57.0624 73.2493C57.248 73.2493 57.4305 73.2306 57.613 73.1947C57.7956 73.1588 57.9718 73.1042 58.1434 73.034C58.315 72.9623 58.4772 72.8765 58.6317 72.7735C58.7861 72.669 58.928 72.552 59.0606 72.421C59.1917 72.2899 59.3087 72.148 59.4116 71.9936C59.5146 71.8391 59.6019 71.6754 59.6721 71.5053C59.7439 71.3337 59.7969 71.1559 59.8328 70.975C59.8687 70.7925 59.8874 70.6084 59.8874 70.4228C59.8874 70.2371 59.8687 70.0546 59.8328 69.8721C59.7969 69.6896 59.7423 69.5133 59.6721 69.3418C59.6004 69.1717 59.513 69.0079 59.41 68.8535C59.3071 68.6991 59.1901 68.5571 59.0591 68.4261C58.928 68.2951 58.7861 68.1781 58.6317 68.0736C58.4772 67.9706 58.315 67.8848 58.1434 67.8131C57.9718 67.7413 57.7956 67.6883 57.613 67.6524C57.4305 67.615 57.248 67.5978 57.0624 67.5978Z" fill="#100F0D"/>
</g>
<path d="M5.39098 19.4548C4.50809 19.4548 3.58463 19.2333 2.62062 18.7934C1.65504 18.3489 0.781505 17.5767 0 16.4786L0.586519 16.0792C1.1356 16.8623 1.77204 17.48 2.49583 17.9324C3.22274 18.3816 3.96836 18.6609 4.72959 18.7685C5.49082 18.873 6.21149 18.8231 6.89472 18.6187C7.57639 18.416 8.16135 18.0478 8.64804 17.5143C9.13472 16.9824 9.44826 16.3007 9.59021 15.4678C9.76492 14.4788 9.48726 13.5319 8.76035 12.6288C8.03656 11.7271 7.04603 11.0002 5.79032 10.4511C5.71856 10.4184 5.64837 10.3794 5.57817 10.3326C5.50642 10.2874 5.42842 10.2562 5.34107 10.239C4.93238 10.044 4.44569 9.796 3.88101 9.4965C3.31477 9.19388 2.76101 8.81638 2.22129 8.36714C1.68 7.91477 1.23231 7.37348 0.879779 6.74485C0.525683 6.11777 0.357215 5.39554 0.374374 4.57972C0.389973 3.80289 0.611477 3.1103 1.03577 2.50194C1.46318 1.89047 2.01694 1.38194 2.69549 0.973249C3.37716 0.566118 4.09939 0.291577 4.86062 0.149627C5.81683 -0.0453595 6.66074 -0.0500393 7.39389 0.137148C8.13015 0.321215 8.74475 0.616034 9.2408 1.02317C9.73996 1.43186 10.0956 1.89047 10.3078 2.40211L9.64013 2.69537C9.32347 1.95598 8.87266 1.41626 8.28614 1.07932C7.70274 0.742386 7.06631 0.578597 6.37684 0.586396C5.6858 0.595756 5.02597 0.764224 4.39889 1.0918C3.77026 1.42094 3.24769 1.88735 2.83276 2.48946C2.41627 3.08846 2.19009 3.80445 2.15265 4.63587C2.13549 5.50629 2.48959 6.24256 3.21338 6.84468C3.94029 7.44368 4.90586 8.02708 6.10853 8.59176C6.24893 8.67911 6.39087 8.75087 6.53282 8.8039C7.10219 9.07065 7.69026 9.36391 8.29862 9.68368C8.9101 10.0003 9.46698 10.3888 9.97083 10.8505C10.4778 11.3122 10.8693 11.8582 11.1439 12.4852C11.4184 13.1139 11.4933 13.8611 11.3685 14.7253C11.2265 15.8078 10.7523 16.7562 9.94587 17.5705C9.14252 18.3816 8.13795 18.9479 6.93216 19.2677C6.68569 19.3379 6.45171 19.3815 6.22709 19.3987C6.00558 19.419 5.72792 19.4377 5.39098 19.4548Z" fill="#100F0D"/>
<path d="M17.3138 19.1619V0.8113H12.4844V0.09375H23.9527V0.8113H19.1233V19.1619H17.3138Z" fill="#100F0D"/>
<path d="M25.5469 19.1619V0.09375H32.2357C33.1045 0.09375 33.9282 0.302776 34.7066 0.717707C35.4834 1.1342 36.1167 1.70668 36.6034 2.43359C37.0901 3.15738 37.3334 4.00596 37.3334 4.97933C37.3334 5.91994 37.0901 6.76696 36.6034 7.51883C36.1167 8.27226 35.4771 8.86502 34.6878 9.29711C33.9017 9.73076 33.0671 9.94602 32.1858 9.94602L38.7436 19.1619H36.7781L30.1891 9.94602H27.3252V19.1619H25.5469ZM27.3252 9.22847H31.8925C32.5664 9.22847 33.1747 9.01633 33.7207 8.59204C34.2698 8.16775 34.7081 7.62958 35.0373 6.97599C35.3648 6.31928 35.5302 5.6532 35.5302 4.97933C35.5302 4.31014 35.3648 3.65654 35.0373 3.02011C34.7081 2.38055 34.2698 1.85175 33.7207 1.43526C33.1747 1.02033 32.5664 0.8113 31.8925 0.8113H27.3252V9.22847Z" fill="#100F0D"/>
<path d="M47.0243 19.4551C45.8013 19.4551 44.6797 19.2258 43.6611 18.7688C42.6456 18.307 41.8361 17.6332 41.2339 16.7472C40.6349 15.8611 40.3354 14.7801 40.3354 13.5026V0.09375H42.1137V12.9473C42.1137 14.1546 42.3337 15.1685 42.7751 15.9922C43.2197 16.8127 43.8124 17.4304 44.5534 17.8453C45.2975 18.2618 46.1211 18.4693 47.0243 18.4693C47.9259 18.4693 48.7901 18.2977 49.6137 17.9514C50.4373 17.6067 51.1127 17.0326 51.6415 16.2293C52.1735 15.4228 52.4402 14.3293 52.4402 12.9473V0.09375H53.1578V13.5587C53.1578 15.4524 52.59 16.9078 51.4544 17.9264C50.3219 18.9466 48.8462 19.4551 47.0243 19.4551Z" fill="#100F0D"/>
<path d="M62.214 19.4542C61.0784 19.4542 60.0239 19.2015 59.0505 18.6992C58.0771 18.1923 57.2254 17.4919 56.4985 16.5965C55.7747 15.7027 55.2132 14.6731 54.8138 13.5079C54.4145 12.3395 54.2148 11.0807 54.2148 9.73296C54.2148 8.3899 54.4145 7.13418 54.8138 5.96426C55.2132 4.79591 55.7747 3.76482 56.4985 2.86944C57.2254 1.97562 58.0771 1.27679 59.0505 0.772946C60.0239 0.265981 61.0784 0.0117188 62.214 0.0117188C63.1873 0.033557 64.142 0.27846 65.0779 0.747988C66.017 1.2144 66.8406 1.88983 67.5488 2.77585L66.9935 3.2251C66.3352 2.44827 65.5958 1.83835 64.7722 1.3969C63.9486 0.952333 63.0953 0.729269 62.214 0.729269C61.3061 0.729269 60.4762 0.991331 59.7244 1.51545C58.9756 2.03646 58.322 2.73061 57.7652 3.59947C57.2067 4.46989 56.7731 5.4339 56.4611 6.49463C56.1522 7.55535 55.9994 8.6348 55.9994 9.73296C55.9994 10.8311 56.1522 11.9137 56.4611 12.9775C56.7731 14.0383 57.2067 15.0038 57.7652 15.8727C58.322 16.7384 58.9756 17.4326 59.7244 17.9567C60.4762 18.4777 61.3061 18.7367 62.214 18.7367C63.4697 18.7367 64.624 18.3295 65.6769 17.5137C66.7283 16.6994 67.5488 15.6715 68.1353 14.4314L68.7967 14.7246C68.0885 16.194 67.1557 17.3452 65.9951 18.1813C64.8346 19.0143 63.5742 19.437 62.214 19.4542Z" fill="#100F0D"/>
<path d="M74.6888 19.1619V0.8113H69.8594V0.09375H81.3277V0.8113H76.4983V19.1619H74.6888Z" fill="#100F0D"/>
<path d="M89.6107 19.4551C88.3877 19.4551 87.2662 19.2258 86.2476 18.7688C85.2321 18.307 84.4225 17.6332 83.8204 16.7472C83.2214 15.8611 82.9219 14.7801 82.9219 13.5026V0.09375H84.7002V12.9473C84.7002 14.1546 84.9201 15.1685 85.3615 15.9922C85.8061 16.8127 86.3989 17.4304 87.1398 17.8453C87.8839 18.2618 88.7075 18.4693 89.6107 18.4693C90.5123 18.4693 91.3765 18.2977 92.2001 17.9514C93.0237 17.6067 93.6992 17.0326 94.228 16.2293C94.7599 15.4228 95.0266 14.3293 95.0266 12.9473V0.09375H95.7442V13.5587C95.7442 15.4524 95.1764 16.9078 94.0408 17.9264C92.9083 18.9466 91.4326 19.4551 89.6107 19.4551Z" fill="#100F0D"/>
<path d="M97.3394 19.1619V0.09375H104.028C104.897 0.09375 105.721 0.302776 106.499 0.717707C107.276 1.1342 107.909 1.70668 108.396 2.43359C108.883 3.15738 109.126 4.00596 109.126 4.97933C109.126 5.91994 108.883 6.76696 108.396 7.51883C107.909 8.27226 107.27 8.86502 106.48 9.29711C105.694 9.73076 104.86 9.94602 103.978 9.94602L110.536 19.1619H108.571L101.982 9.94602H99.1176V19.1619H97.3394ZM99.1176 9.22847H103.685C104.359 9.22847 104.967 9.01633 105.513 8.59204C106.062 8.16775 106.501 7.62958 106.83 6.97599C107.157 6.31928 107.323 5.6532 107.323 4.97933C107.323 4.31014 107.157 3.65654 106.83 3.02011C106.501 2.38055 106.062 1.85175 105.513 1.43526C104.967 1.02033 104.359 0.8113 103.685 0.8113H99.1176V9.22847Z" fill="#100F0D"/>
<path d="M112.128 19.1619V0.09375H122.91V0.8113H113.932V9.14736H121.126V9.86491H113.932V18.4443H123.466V19.1619H112.128Z" fill="#100F0D"/>
<path d="M73.7443 80.0003C72.6119 80.0003 71.5605 79.7476 70.5871 79.2453C69.6138 78.7384 68.7621 78.0395 68.0351 77.1488C67.3114 76.255 66.7498 75.2239 66.3505 74.054C65.9511 72.8857 65.7515 71.6299 65.7515 70.2853C65.7515 68.9422 65.9511 67.6865 66.3505 66.5166C66.7498 65.3483 67.3114 64.3172 68.0351 63.4218C68.7621 62.528 69.6138 61.8291 70.5871 61.3253C71.5605 60.823 72.6119 60.5703 73.7443 60.5703C74.7177 60.5875 75.6724 60.8308 76.6083 61.3003C77.5474 61.7714 78.371 62.4469 79.0792 63.3282L78.5176 63.7837C77.864 63.0022 77.1262 62.3907 76.3026 61.9493C75.4789 61.5094 74.6257 61.2879 73.7443 61.2879C72.8412 61.2879 72.0129 61.5499 71.261 62.074C70.5076 62.5951 69.8524 63.2892 69.2955 64.1581C68.7371 65.0238 68.3034 65.9863 67.9915 67.047C67.6826 68.1077 67.5297 69.1872 67.5297 70.2853C67.5297 71.3835 67.6826 72.4629 67.9915 73.5236C68.3034 74.5844 68.7371 75.5499 69.2955 76.4188C69.8524 77.2845 70.5076 77.9787 71.261 78.5028C72.0129 79.0238 72.8412 79.2828 73.7443 79.2828C75.0001 79.2828 76.1544 78.8772 77.2073 78.0661C78.2587 77.2518 79.0761 76.2238 79.6595 74.9837L80.3271 75.277C79.6189 76.7464 78.6861 77.896 77.5255 78.7274C76.365 79.5604 75.1046 79.9832 73.7443 80.0003Z" fill="#100F0D"/>
<path d="M81.3789 79.708V60.6523H83.1884V78.9904H92.6912V79.708H81.3789Z" fill="#100F0D"/>
<path d="M94.2759 79.708V60.6523H96.0854V79.708H94.2759Z" fill="#100F0D"/>
<path d="M97.6992 79.708V60.6523H99.7708L108.905 76.1514V60.6523H109.617V79.708H108.905V79.683L98.4168 61.8691V79.708H97.6992Z" fill="#100F0D"/>
<path d="M111.203 79.708V60.6523H113.013V79.708H111.203Z" fill="#100F0D"/>
<path d="M122.09 80.0003C120.958 80.0003 119.906 79.7476 118.933 79.2453C117.959 78.7384 117.108 78.0395 116.381 77.1488C115.657 76.255 115.095 75.2239 114.696 74.054C114.297 72.8857 114.097 71.6299 114.097 70.2853C114.097 68.9422 114.297 67.6865 114.696 66.5166C115.095 65.3483 115.657 64.3172 116.381 63.4218C117.108 62.528 117.959 61.8291 118.933 61.3253C119.906 60.823 120.958 60.5703 122.09 60.5703C123.063 60.5875 124.018 60.8308 124.954 61.3003C125.893 61.7714 126.717 62.4469 127.425 63.3282L126.863 63.7837C126.21 63.0022 125.472 62.3907 124.648 61.9493C123.825 61.5094 122.971 61.2879 122.09 61.2879C121.187 61.2879 120.359 61.5499 119.607 62.074C118.853 62.5951 118.198 63.2892 117.641 64.1581C117.083 65.0238 116.649 65.9863 116.337 67.047C116.028 68.1077 115.875 69.1872 115.875 70.2853C115.875 71.3835 116.028 72.4629 116.337 73.5236C116.649 74.5844 117.083 75.5499 117.641 76.4188C118.198 77.2845 118.853 77.9787 119.607 78.5028C120.359 79.0238 121.187 79.2828 122.09 79.2828C123.346 79.2828 124.5 78.8772 125.553 78.0661C126.604 77.2518 127.422 76.2238 128.005 74.9837L128.673 75.277C127.965 76.7464 127.032 77.896 125.871 78.7274C124.711 79.5604 123.45 79.9832 122.09 80.0003Z" fill="#100F0D"/>
<path d="M134.586 79.9994C133.7 79.9994 132.774 79.7779 131.81 79.338C130.844 78.8934 129.972 78.1213 129.195 77.0231L129.782 76.63C130.331 77.4084 130.967 78.0246 131.691 78.4769C132.418 78.9262 133.161 79.2054 133.919 79.313C134.68 79.4175 135.401 79.3676 136.084 79.1633C136.765 78.9605 137.35 78.5939 137.837 78.0651C138.324 77.5332 138.637 76.8515 138.779 76.0185C138.957 75.0249 138.683 74.078 137.956 73.1795C137.232 72.2779 136.241 71.551 134.986 71.0019C134.914 70.9645 134.844 70.9255 134.773 70.8834C134.702 70.8381 134.621 70.8069 134.53 70.7898C134.126 70.5948 133.639 70.3468 133.07 70.0473C132.504 69.7447 131.95 69.3672 131.41 68.9179C130.874 68.4655 130.428 67.9243 130.075 67.2956C129.721 66.6686 129.553 65.9479 129.57 65.1367C129.585 64.3552 129.807 63.6611 130.231 63.0527C130.655 62.4412 131.208 61.9327 131.891 61.524C132.572 61.1169 133.295 60.8424 134.056 60.7004C135.012 60.5054 135.856 60.5007 136.589 60.6879C137.325 60.8751 137.94 61.1731 138.436 61.5802C138.931 61.9842 139.285 62.4444 139.497 62.9591L138.835 63.2524C138.514 62.5083 138.062 61.967 137.475 61.6301C136.892 61.2932 136.255 61.1294 135.566 61.1372C134.875 61.1465 134.215 61.315 133.588 61.6426C132.959 61.9717 132.437 62.4381 132.022 63.0402C131.605 63.6392 131.381 64.3552 131.348 65.1867C131.331 66.0571 131.685 66.7933 132.409 67.3955C133.132 67.9945 134.096 68.5779 135.304 69.1425C135.444 69.2299 135.586 69.3016 135.728 69.3547C136.293 69.6214 136.879 69.9147 137.488 70.2345C138.099 70.5511 138.656 70.9395 139.16 71.4013C139.667 71.8599 140.058 72.4027 140.333 73.0298C140.607 73.6584 140.682 74.4072 140.558 75.276C140.416 76.3539 139.941 77.3008 139.135 78.115C138.332 78.9262 137.329 79.4924 136.127 79.8122C135.878 79.8824 135.642 79.9261 135.422 79.9432C135.201 79.9635 134.923 79.9822 134.586 79.9994Z" fill="#100F0D"/>
<mask id="mask4_237_8932" style="mask-type:luminance" maskUnits="userSpaceOnUse" x="81" y="23" width="26" height="10">
<path d="M81.8687 23.0078H106.956V32.1223H81.8687V23.0078Z" fill="white"/>
</mask>
<g mask="url(#mask4_237_8932)">
<path d="M103.186 56.1977H29.1444C28.8995 56.1977 28.6577 56.1743 28.4175 56.126C28.1772 56.0792 27.9448 56.009 27.7186 55.9154C27.494 55.8218 27.2787 55.7064 27.076 55.5707C26.8732 55.4349 26.6844 55.2805 26.5113 55.1074C26.3381 54.9358 26.1853 54.747 26.048 54.5443C25.9123 54.3415 25.7984 54.1262 25.7048 53.9C25.6112 53.6738 25.541 53.4414 25.4927 53.2027C25.4459 52.9625 25.4209 52.7207 25.4209 52.4758C25.4209 52.2309 25.4459 51.9891 25.4927 51.7505C25.541 51.5103 25.6112 51.2778 25.7048 51.0517C25.7984 50.8255 25.9123 50.6118 26.048 50.4074C26.1853 50.2046 26.3381 50.0174 26.5113 49.8443C26.6844 49.6712 26.8732 49.5167 27.076 49.381C27.2787 49.2453 27.494 49.1299 27.7186 49.0378C27.9448 48.9442 28.1772 48.8725 28.4175 48.8257C28.6577 48.7773 28.8995 48.7539 29.1444 48.7539H39.9279C40.1011 48.7524 40.2711 48.7337 40.4396 48.6978C40.6065 48.6619 40.7702 48.612 40.9294 48.5433C41.0869 48.4763 41.2367 48.3952 41.3802 48.2984C41.5221 48.2017 41.6531 48.0925 41.7748 47.9709C41.8949 47.8476 42.0026 47.715 42.0977 47.5715C42.1929 47.428 42.2724 47.2767 42.3379 47.1176C42.4035 46.9585 42.4534 46.7947 42.4861 46.6262C42.5189 46.4578 42.536 46.2877 42.536 46.1146C42.536 45.943 42.5189 45.773 42.4861 45.6045C42.4534 45.436 42.4035 45.2723 42.3379 45.1131C42.2724 44.954 42.1929 44.8027 42.0977 44.6592C42.0026 44.5157 41.8949 44.3831 41.7748 44.2599C41.6531 44.1382 41.5221 44.029 41.3802 43.9323C41.2367 43.8356 41.0869 43.7529 40.9294 43.6858C40.7702 43.6188 40.6065 43.5673 40.4396 43.533C40.2711 43.4971 40.1011 43.4784 39.9279 43.4768H18.7929C18.548 43.4768 18.3063 43.4519 18.066 43.4051C17.8274 43.3567 17.5949 43.2865 17.3688 43.1929C17.1441 43.0993 16.9289 42.9839 16.7261 42.8482C16.5233 42.7125 16.3346 42.558 16.163 42.3849C15.9898 42.2118 15.8354 42.0246 15.6997 41.8218C15.564 41.619 15.4501 41.4037 15.3565 41.1775C15.2629 40.9529 15.1927 40.7205 15.1459 40.4803C15.0976 40.24 15.0742 39.9983 15.0742 39.7549C15.0742 39.51 15.0976 39.2682 15.1459 39.0296C15.1927 38.7893 15.2629 38.5569 15.3565 38.3307C15.4501 38.1046 15.564 37.8909 15.6997 37.6881C15.8354 37.4853 15.9898 37.2965 16.163 37.1234C16.3346 36.9502 16.5233 36.7974 16.7261 36.6617C16.9289 36.5244 17.1441 36.4105 17.3688 36.3169C17.5949 36.2233 17.8274 36.1516 18.066 36.1048C18.3063 36.0564 18.548 36.033 18.7929 36.033H23.6894C23.861 36.0299 24.0311 36.0112 24.1995 35.9769C24.368 35.941 24.5318 35.8895 24.6893 35.8224C24.8484 35.7554 24.9982 35.6742 25.1401 35.5775C25.2836 35.4808 25.4147 35.3716 25.5348 35.2484C25.6565 35.1267 25.7641 34.9941 25.8592 34.8506C25.9544 34.7071 26.034 34.5558 26.0995 34.3967C26.165 34.2376 26.2133 34.0738 26.2477 33.9053C26.2804 33.7369 26.2976 33.5653 26.2976 33.3937C26.2976 33.2221 26.2804 33.0521 26.2477 32.8836C26.2133 32.7136 26.165 32.5498 26.0995 32.3907C26.034 32.2316 25.9544 32.0803 25.8592 31.9383C25.7641 31.7948 25.6565 31.6606 25.5348 31.539C25.4147 31.4173 25.2836 31.3065 25.1401 31.2114C24.9982 31.1147 24.8484 31.032 24.6893 30.9649C24.5318 30.8979 24.368 30.8464 24.1995 30.8121C24.0311 30.7762 23.861 30.7575 23.6894 30.7559H1.32372C1.08194 30.7528 0.840152 30.7263 0.603049 30.6779C0.365945 30.628 0.135082 30.5562 -0.0895426 30.4611C-0.312607 30.3675 -0.524752 30.2521 -0.725978 30.1148C-0.927205 29.9791 -1.11283 29.8247 -1.28442 29.6515C-1.45445 29.4799 -1.60732 29.2927 -1.74147 29.0899C-1.87562 28.8872 -1.98949 28.6735 -2.08152 28.4488C-2.17356 28.2242 -2.24375 27.9933 -2.29055 27.7547C-2.33735 27.516 -2.3623 27.2758 -2.3623 27.0324C-2.3623 26.7907 -2.33735 26.5489 -2.29055 26.3118C-2.24375 26.0731 -2.17356 25.8423 -2.08152 25.6176C-1.98949 25.393 -1.87562 25.1793 -1.74147 24.9765C-1.60732 24.7737 -1.45445 24.5865 -1.28442 24.4134C-1.11283 24.2418 -0.927205 24.0874 -0.725978 23.9501C-0.524752 23.8144 -0.312607 23.699 -0.0895426 23.6038C0.135082 23.5102 0.365945 23.4385 0.603049 23.3885C0.840152 23.3386 1.08194 23.3137 1.32372 23.3105H75.3671C75.6089 23.3137 75.8491 23.3386 76.0877 23.3885C76.3249 23.4385 76.5557 23.5102 76.7803 23.6038C77.0034 23.699 77.2155 23.8144 77.4168 23.9501C77.618 24.0874 77.8036 24.2418 77.9752 24.4134C78.1452 24.5865 78.2981 24.7737 78.4323 24.9765C78.5664 25.1793 78.6803 25.393 78.7723 25.6176C78.8644 25.8423 78.9345 26.0731 78.9813 26.3118C79.0281 26.5489 79.0515 26.7907 79.0515 27.0324C79.0515 27.2758 79.0281 27.516 78.9813 27.7547C78.9345 27.9933 78.8644 28.2242 78.7723 28.4488C78.6803 28.6735 78.5664 28.8872 78.4323 29.0899C78.2981 29.2927 78.1452 29.4799 77.9752 29.6515C77.8036 29.8247 77.618 29.9791 77.4168 30.1148C77.2155 30.2521 77.0034 30.3675 76.7803 30.4611C76.5557 30.5562 76.3249 30.628 76.0877 30.6779C75.8491 30.7263 75.6089 30.7528 75.3671 30.7559H70.0463C69.8747 30.7575 69.7047 30.7762 69.5362 30.8121C69.3677 30.8464 69.2055 30.8979 69.0464 30.9649C68.8888 31.032 68.7375 31.1147 68.5956 31.2114C68.4536 31.3065 68.3226 31.4173 68.2009 31.539C68.0808 31.6606 67.9732 31.7948 67.878 31.9383C67.7829 32.0803 67.7018 32.2316 67.6378 32.3907C67.5723 32.5498 67.5224 32.7136 67.4896 32.8836C67.4553 33.0521 67.4397 33.2221 67.4397 33.3937C67.4397 33.5653 67.4553 33.7369 67.4896 33.9053C67.5224 34.0738 67.5723 34.2376 67.6378 34.3967C67.7018 34.5558 67.7829 34.7071 67.878 34.8506C67.9732 34.9941 68.0808 35.1267 68.2009 35.2484C68.3226 35.3716 68.4536 35.4808 68.5956 35.5775C68.7375 35.6742 68.8888 35.7554 69.0464 35.8224C69.2055 35.8895 69.3677 35.941 69.5362 35.9769C69.7047 36.0112 69.8747 36.0299 70.0463 36.033H92.8332C93.0781 36.033 93.3199 36.0564 93.5601 36.1032C93.7988 36.1516 94.0327 36.2218 94.2574 36.3154C94.4835 36.409 94.6988 36.5244 94.9016 36.6601C95.1044 36.7958 95.2931 36.9502 95.4663 37.1218C95.6379 37.295 95.7923 37.4837 95.928 37.6865C96.0637 37.8893 96.1791 38.1046 96.2727 38.3307C96.3663 38.5554 96.4365 38.7893 96.4849 39.028C96.5317 39.2682 96.5551 39.51 96.5551 39.7549C96.5551 39.9983 96.5317 40.2416 96.4849 40.4803C96.4365 40.7205 96.3663 40.9529 96.2727 41.1791C96.1791 41.4053 96.0637 41.619 95.928 41.8218C95.7923 42.0261 95.6379 42.2133 95.4663 42.3865C95.2931 42.5596 95.1044 42.714 94.9016 42.8497C94.6988 42.9855 94.4835 43.0993 94.2574 43.1929C94.0327 43.2865 93.7988 43.3583 93.5601 43.4051C93.3199 43.4534 93.0781 43.4768 92.8332 43.4768H81.786C81.6144 43.4784 81.4444 43.4971 81.2759 43.533C81.1075 43.5673 80.9453 43.6188 80.7861 43.6858C80.6286 43.7529 80.4773 43.8356 80.3353 43.9323C80.1934 44.029 80.0623 44.1382 79.9407 44.2599C79.8206 44.3831 79.7114 44.5157 79.6178 44.6592C79.5226 44.8027 79.4415 44.954 79.3776 45.1131C79.312 45.2723 79.2621 45.436 79.2294 45.6045C79.1951 45.773 79.1795 45.943 79.1795 46.1146C79.1795 46.2877 79.1951 46.4578 79.2294 46.6262C79.2621 46.7947 79.312 46.9585 79.3776 47.1176C79.4415 47.2767 79.5226 47.428 79.6178 47.5715C79.7114 47.715 79.8206 47.8476 79.9407 47.9709C80.0623 48.0925 80.1934 48.2017 80.3353 48.2984C80.4773 48.3952 80.6286 48.4763 80.7861 48.5433C80.9453 48.612 81.1075 48.6619 81.2759 48.6978C81.4444 48.7337 81.6144 48.7524 81.786 48.7539H103.186C103.43 48.7539 103.671 48.7789 103.912 48.8257C104.15 48.874 104.383 48.9442 104.609 49.0378C104.835 49.133 105.049 49.2469 105.251 49.3826C105.454 49.5183 105.641 49.6727 105.815 49.8459C105.988 50.019 106.141 50.2062 106.276 50.409C106.412 50.6133 106.527 50.827 106.619 51.0532C106.713 51.2778 106.783 51.5103 106.832 51.7505C106.88 51.9907 106.903 52.2325 106.903 52.4758C106.903 52.7207 106.88 52.9625 106.832 53.2012C106.783 53.4414 106.713 53.6738 106.619 53.8985C106.527 54.1246 106.412 54.3399 106.276 54.5427C106.141 54.7455 105.988 54.9327 105.815 55.1058C105.641 55.279 105.454 55.4334 105.251 55.5691C105.049 55.7048 104.835 55.8202 104.609 55.9138C104.383 56.0074 104.15 56.0776 103.912 56.126C103.671 56.1743 103.43 56.1977 103.186 56.1977ZM29.1444 49.8381C28.9712 49.8396 28.8012 49.8583 28.6327 49.8942C28.4658 49.9285 28.302 49.98 28.1429 50.0471C27.9854 50.1142 27.8356 50.1968 27.6921 50.2935C27.5502 50.3903 27.4191 50.4995 27.2975 50.6211C27.1774 50.7444 27.0697 50.8769 26.9746 51.0205C26.8794 51.164 26.7999 51.3153 26.7343 51.4728C26.6688 51.6319 26.6189 51.7973 26.5862 51.9657C26.5534 52.1342 26.5362 52.3042 26.5362 52.4758C26.5362 52.6474 26.5534 52.819 26.5862 52.9875C26.6189 53.1559 26.6688 53.3197 26.7343 53.4788C26.7999 53.638 26.8794 53.7893 26.9746 53.9328C27.0697 54.0763 27.1774 54.2089 27.2975 54.3305C27.4191 54.4538 27.5502 54.563 27.6921 54.6597C27.8356 54.7564 27.9854 54.8375 28.1429 54.9046C28.302 54.9717 28.4658 55.0231 28.6327 55.059C28.8012 55.0933 28.9712 55.112 29.1444 55.1152H103.186C103.358 55.112 103.528 55.0933 103.696 55.059C103.865 55.0231 104.029 54.9717 104.186 54.9046C104.344 54.8375 104.495 54.7564 104.637 54.6597C104.779 54.563 104.911 54.4538 105.032 54.3305C105.153 54.2089 105.261 54.0763 105.356 53.9328C105.45 53.7893 105.531 53.638 105.596 53.4788C105.66 53.3197 105.71 53.1559 105.743 52.9875C105.777 52.819 105.793 52.6474 105.793 52.4758C105.793 52.3042 105.777 52.1342 105.743 51.9657C105.71 51.7973 105.66 51.6319 105.596 51.4728C105.531 51.3153 105.45 51.164 105.356 51.0205C105.261 50.8769 105.153 50.7444 105.032 50.6211C104.911 50.4995 104.779 50.3903 104.637 50.2935C104.495 50.1968 104.344 50.1142 104.186 50.0471C104.029 49.98 103.865 49.9285 103.696 49.8942C103.528 49.8583 103.358 49.8396 103.186 49.8381H81.786C81.5443 49.8349 81.304 49.81 81.0654 49.7601C80.8283 49.7101 80.5974 49.6384 80.3728 49.5432C80.1497 49.4496 79.9376 49.3342 79.7363 49.1969C79.5351 49.0612 79.3495 48.9068 79.1779 48.7337C79.0079 48.5621 78.855 48.3749 78.7208 48.1721C78.5867 47.9693 78.4728 47.7556 78.3808 47.531C78.2888 47.3064 78.2186 47.0755 78.1718 46.8368C78.125 46.5982 78.1016 46.3579 78.1016 46.1146C78.1016 45.8728 78.125 45.6326 78.1718 45.3939C78.2186 45.1553 78.2888 44.9244 78.3808 44.6998C78.4728 44.4752 78.5867 44.2614 78.7208 44.0587C78.855 43.8559 79.0079 43.6687 79.1779 43.4955C79.3495 43.324 79.5351 43.1695 79.7363 43.0323C79.9376 42.8965 80.1497 42.7811 80.3728 42.6875C80.5974 42.5924 80.8283 42.5206 81.0654 42.4707C81.304 42.4208 81.5443 42.3958 81.786 42.3927H92.8347C93.0079 42.3927 93.1795 42.3755 93.3495 42.3428C93.5195 42.3085 93.6849 42.2585 93.844 42.1915C94.0047 42.126 94.156 42.0448 94.301 41.9481C94.4445 41.8514 94.5771 41.7422 94.7004 41.6206C94.822 41.4973 94.9328 41.3647 95.0279 41.2197C95.1247 41.0761 95.2058 40.9248 95.2729 40.7642C95.3384 40.6035 95.3883 40.4397 95.4226 40.2697C95.4554 40.0997 95.4725 39.9281 95.4725 39.7549C95.4725 39.5818 95.4554 39.4102 95.4226 39.2402C95.3883 39.0701 95.3384 38.9048 95.2729 38.7457C95.2058 38.585 95.1247 38.4321 95.0279 38.2886C94.9328 38.1451 94.822 38.011 94.7004 37.8893C94.5771 37.7661 94.4445 37.6569 94.301 37.5602C94.156 37.465 94.0047 37.3839 93.844 37.3168C93.6849 37.2513 93.5195 37.2014 93.3495 37.1671C93.1795 37.1327 93.0079 37.1156 92.8347 37.1156H70.0479C69.8045 37.114 69.5643 37.0875 69.3272 37.0392C69.0885 36.9892 68.8577 36.9175 68.6346 36.8223C68.4115 36.7272 68.1994 36.6117 67.9982 36.476C67.7969 36.3403 67.6097 36.1859 67.4397 36.0127C67.2681 35.8412 67.1168 35.6524 66.9827 35.4512C66.847 35.2484 66.7346 35.0347 66.6426 34.8101C66.549 34.5854 66.4804 34.3546 66.4336 34.1159C66.3852 33.8773 66.3618 33.637 66.3618 33.3937C66.3618 33.1503 66.3852 32.9101 66.4336 32.6715C66.4804 32.4344 66.549 32.2019 66.6426 31.9773C66.7346 31.7527 66.847 31.539 66.9827 31.3377C67.1168 31.135 67.2681 30.9478 67.4397 30.7746C67.6097 30.6015 67.7969 30.447 67.9982 30.3113C68.1994 30.1756 68.4115 30.0602 68.6346 29.965C68.8577 29.8699 69.0885 29.7981 69.3272 29.7498C69.5643 29.6999 69.8045 29.6733 70.0479 29.6718H75.3671C75.5387 29.6687 75.7103 29.6515 75.8772 29.6156C76.0456 29.5797 76.2094 29.5283 76.367 29.4612C76.5261 29.3941 76.6758 29.313 76.8193 29.2163C76.9613 29.1196 77.0923 29.0104 77.214 28.8872C77.3341 28.7655 77.4417 28.6329 77.5369 28.4894C77.632 28.3459 77.7116 28.1946 77.7771 28.0355C77.8426 27.8763 77.8925 27.7126 77.9253 27.5441C77.9581 27.3756 77.9752 27.2056 77.9752 27.0324C77.9752 26.8609 77.9581 26.6908 77.9253 26.5224C77.8925 26.3539 77.8426 26.1901 77.7771 26.031C77.7116 25.8719 77.632 25.7206 77.5369 25.5771C77.4417 25.4336 77.3341 25.301 77.214 25.1777C77.0923 25.0561 76.9613 24.9469 76.8193 24.8502C76.6758 24.7534 76.5261 24.6708 76.367 24.6037C76.2094 24.5366 76.0456 24.4851 75.8772 24.4508C75.7103 24.415 75.5387 24.3962 75.3671 24.3947H1.32372C1.15213 24.3962 0.982102 24.415 0.813634 24.4508C0.645166 24.4851 0.482937 24.5366 0.323828 24.6037C0.166279 24.6708 0.0149696 24.7534 -0.12698 24.8502C-0.26893 24.9469 -0.401521 25.0561 -0.521633 25.1777C-0.643304 25.301 -0.750937 25.4336 -0.84609 25.5771C-0.939684 25.7206 -1.0208 25.8719 -1.08631 26.031C-1.15027 26.1901 -1.20019 26.3539 -1.23294 26.5224C-1.26726 26.6908 -1.28286 26.8609 -1.28286 27.0324C-1.28286 27.2056 -1.26726 27.3756 -1.23294 27.5441C-1.20019 27.7126 -1.15027 27.8763 -1.08631 28.0355C-1.0208 28.1946 -0.939684 28.3459 -0.84609 28.4894C-0.750937 28.6329 -0.643304 28.7655 -0.521633 28.8872C-0.401521 29.0104 -0.26893 29.1196 -0.12698 29.2163C0.0149696 29.313 0.166279 29.3941 0.323828 29.4612C0.482937 29.5283 0.645166 29.5797 0.813634 29.6156C0.982102 29.6515 1.15213 29.6687 1.32372 29.6718H23.6894C23.9328 29.6733 24.173 29.6999 24.4101 29.7498C24.6488 29.7981 24.8796 29.8699 25.1027 29.965C25.3273 30.0602 25.5395 30.1756 25.7407 30.3113C25.9419 30.447 26.1276 30.6015 26.2976 30.7746C26.4692 30.9478 26.622 31.135 26.7562 31.3377C26.8903 31.539 27.0026 31.7527 27.0962 31.9773C27.1883 32.2019 27.2569 32.4344 27.3053 32.6715C27.3521 32.9101 27.3755 33.1503 27.3755 33.3937C27.3755 33.637 27.3521 33.8773 27.3053 34.1159C27.2569 34.3546 27.1883 34.5854 27.0962 34.8101C27.0026 35.0347 26.8903 35.2484 26.7562 35.4512C26.622 35.6524 26.4692 35.8412 26.2976 36.0127C26.1276 36.1859 25.9419 36.3403 25.7407 36.476C25.5395 36.6117 25.3273 36.7272 25.1027 36.8223C24.8796 36.9175 24.6488 36.9892 24.4101 37.0392C24.173 37.0875 23.9328 37.114 23.6894 37.1156H18.7929C18.6198 37.1156 18.4482 37.1327 18.2782 37.1671C18.1081 37.2014 17.9428 37.2513 17.7821 37.3168C17.623 37.3839 17.4702 37.465 17.3266 37.5602C17.1831 37.6569 17.049 37.7661 16.9273 37.8893C16.8041 38.011 16.6949 38.1451 16.5982 38.2886C16.503 38.4321 16.4219 38.585 16.3548 38.7457C16.2893 38.9048 16.2378 39.0701 16.2051 39.2402C16.1708 39.4102 16.1536 39.5818 16.1536 39.7549C16.1536 39.9281 16.1708 40.0997 16.2051 40.2697C16.2378 40.4397 16.2893 40.6035 16.3548 40.7642C16.4219 40.9248 16.503 41.0761 16.5982 41.2197C16.6949 41.3647 16.8041 41.4973 16.9273 41.6206C17.049 41.7422 17.1831 41.8514 17.3266 41.9481C17.4702 42.0448 17.623 42.126 17.7821 42.1915C17.9428 42.2585 18.1081 42.3085 18.2782 42.3428C18.4482 42.3755 18.6198 42.3927 18.7929 42.3927H39.9295C40.1728 42.3958 40.413 42.4208 40.6501 42.4707C40.8888 42.5206 41.1197 42.5924 41.3427 42.6875C41.5658 42.7811 41.7795 42.8965 41.9807 43.0323C42.1804 43.1695 42.3676 43.324 42.5376 43.4955C42.7092 43.6687 42.8621 43.8559 42.9962 44.0587C43.1304 44.2614 43.2427 44.4752 43.3347 44.6998C43.4283 44.9244 43.4969 45.1553 43.5453 45.3939C43.5921 45.6326 43.6155 45.8728 43.6155 46.1146C43.6155 46.3579 43.5921 46.5982 43.5453 46.8368C43.4969 47.0755 43.4283 47.3064 43.3347 47.531C43.2427 47.7556 43.1304 47.9693 42.9962 48.1721C42.8621 48.3749 42.7092 48.5621 42.5376 48.7337C42.3676 48.9068 42.1804 49.0612 41.9807 49.1969C41.7795 49.3342 41.5658 49.4496 41.3427 49.5432C41.1197 49.6384 40.8888 49.7101 40.6501 49.7601C40.413 49.81 40.1728 49.8349 39.9295 49.8381H29.1444Z" fill="#100F0D"/>
</g>
<mask id="mask5_237_8932" style="mask-type:luminance" maskUnits="userSpaceOnUse" x="83" y="22" width="9" height="9">
<path d="M83.1118 22.8359H91.4978V30.9926H83.1118V22.8359Z" fill="white"/>
</mask>
<g mask="url(#mask5_237_8932)">
<path d="M87.4003 30.66C87.1429 30.66 86.8887 30.635 86.6375 30.5851C86.3864 30.5352 86.1415 30.4603 85.9044 30.362C85.6673 30.2638 85.4411 30.1436 85.2289 30.0017C85.0152 29.8582 84.8171 29.696 84.6362 29.515C84.4552 29.3325 84.293 29.136 84.1495 28.9223C84.0075 28.7085 83.8874 28.4839 83.7892 28.2468C83.6909 28.0097 83.616 27.7648 83.5661 27.5137C83.5162 27.261 83.4912 27.0067 83.4912 26.7509C83.4912 26.4935 83.5162 26.2392 83.5661 25.9881C83.616 25.737 83.6909 25.4921 83.7892 25.2549C83.8874 25.0178 84.0075 24.7917 84.1495 24.5795C84.293 24.3658 84.4552 24.1677 84.6362 23.9868C84.8171 23.8042 85.0152 23.6436 85.2289 23.5001C85.4411 23.3581 85.6673 23.2364 85.9044 23.1397C86.1415 23.0415 86.3864 22.9666 86.6375 22.9167C86.8887 22.8668 87.1429 22.8418 87.4003 22.8418C87.6561 22.8418 87.9104 22.8668 88.1631 22.9167C88.4142 22.9666 88.6591 23.0415 88.8962 23.1397C89.1333 23.2364 89.358 23.3581 89.5717 23.5001C89.7854 23.6436 89.9835 23.8042 90.1644 23.9868C90.3454 24.1677 90.5076 24.3658 90.6511 24.5795C90.7931 24.7917 90.9132 25.0178 91.0114 25.2549C91.1097 25.4921 91.1846 25.737 91.2345 25.9881C91.2844 26.2392 91.3094 26.4935 91.3094 26.7509C91.3094 27.0067 91.2844 27.261 91.233 27.5137C91.183 27.7648 91.1082 28.0082 91.0099 28.2453C90.9116 28.4824 90.7915 28.7085 90.6496 28.9207C90.506 29.1344 90.3438 29.3325 90.1629 29.5135C89.9819 29.6944 89.7838 29.8566 89.5717 30.0001C89.358 30.1421 89.1318 30.2622 88.8947 30.3605C88.6591 30.4587 88.4142 30.5336 88.1631 30.5835C87.9104 30.6335 87.6561 30.66 87.4003 30.66ZM87.4003 23.9244C87.2147 23.9244 87.0306 23.9431 86.8497 23.979C86.6671 24.0148 86.4909 24.0694 86.3193 24.1396C86.1477 24.2114 85.9839 24.2987 85.8295 24.4017C85.6766 24.5046 85.5331 24.6216 85.4021 24.7527C85.271 24.8837 85.1541 25.0256 85.0511 25.1801C84.9481 25.3345 84.8608 25.4983 84.789 25.6683C84.7188 25.8399 84.6642 26.0177 84.6284 26.1987C84.5925 26.3812 84.5738 26.5653 84.5738 26.7509C84.5738 26.9365 84.5925 27.119 84.6284 27.3015C84.6642 27.484 84.7188 27.6603 84.789 27.8319C84.8608 28.0035 84.9466 28.1657 85.0495 28.3201C85.1541 28.4746 85.271 28.6165 85.4021 28.7491C85.5331 28.8801 85.6751 28.9971 85.8295 29.1001C85.9839 29.203 86.1477 29.2904 86.3177 29.3606C86.4893 29.4323 86.6671 29.4854 86.8481 29.5213C87.0306 29.5587 87.2147 29.5758 87.4003 29.5758C87.5859 29.5758 87.7684 29.5587 87.9509 29.5213C88.1334 29.4854 88.3097 29.4323 88.4813 29.3606C88.6529 29.2904 88.8151 29.203 88.9695 29.1001C89.124 28.9971 89.2659 28.8801 89.397 28.7491C89.5296 28.6181 89.6465 28.4746 89.7495 28.3201C89.8524 28.1657 89.9398 28.0035 90.01 27.8319C90.0818 27.6603 90.1348 27.484 90.1707 27.3015C90.2065 27.1206 90.2253 26.9365 90.2253 26.7509C90.2253 26.5653 90.2065 26.3812 90.1707 26.2002C90.1348 26.0177 90.0802 25.8415 90.01 25.6699C89.9382 25.4983 89.8509 25.3361 89.7479 25.1816C89.645 25.0272 89.528 24.8837 89.397 24.7527C89.2659 24.6216 89.124 24.5046 88.9695 24.4017C88.8151 24.2987 88.6529 24.2114 88.4813 24.1412C88.3097 24.0694 88.1334 24.0148 87.9509 23.979C87.77 23.9431 87.5859 23.9244 87.4003 23.9244Z" fill="#100F0D"/>
</g>
<mask id="mask6_237_8932" style="mask-type:luminance" maskUnits="userSpaceOnUse" x="94" y="22" width="9" height="9">
<path d="M94.2935 22.8359H102.679V30.9926H94.2935V22.8359Z" fill="white"/>
</mask>
<g mask="url(#mask6_237_8932)">
<path d="M98.4706 30.66C98.2148 30.66 97.9605 30.635 97.7078 30.5851C97.4567 30.5352 97.2118 30.4603 96.9747 30.362C96.7376 30.2638 96.5129 30.1436 96.2992 30.0001C96.0855 29.8582 95.889 29.696 95.7065 29.515C95.5255 29.3325 95.3633 29.136 95.2214 28.9223C95.0778 28.7085 94.9577 28.4839 94.8595 28.2468C94.7612 28.0097 94.6879 27.7648 94.6364 27.5137C94.5865 27.261 94.5615 27.0067 94.5615 26.7509C94.5615 26.4935 94.5865 26.2392 94.6364 25.9881C94.6879 25.7354 94.7612 25.4921 94.8595 25.2549C94.9577 25.0178 95.0778 24.7917 95.2214 24.578C95.3633 24.3658 95.5255 24.1677 95.7065 23.9868C95.889 23.8042 96.0855 23.642 96.2992 23.5001C96.5129 23.3581 96.7376 23.2364 96.9747 23.1382C97.2118 23.0415 97.4567 22.9666 97.7094 22.9167C97.9605 22.8668 98.2148 22.8418 98.4706 22.8418C98.728 22.8418 98.9823 22.8668 99.2334 22.9167C99.4861 22.9666 99.7294 23.0415 99.9665 23.1397C100.204 23.238 100.43 23.3581 100.644 23.5001C100.856 23.6436 101.054 23.8042 101.235 23.9868C101.417 24.1677 101.579 24.3658 101.721 24.5795C101.863 24.7917 101.985 25.0178 102.083 25.2549C102.182 25.4921 102.255 25.737 102.305 25.9881C102.355 26.2392 102.38 26.4935 102.38 26.7509C102.38 27.0067 102.355 27.261 102.305 27.5137C102.255 27.7648 102.18 28.0097 102.082 28.2453C101.983 28.4824 101.863 28.7085 101.72 28.9223C101.578 29.1344 101.416 29.3325 101.235 29.5135C101.052 29.6944 100.856 29.8566 100.642 30.0001C100.428 30.1421 100.204 30.2622 99.9665 30.3605C99.7294 30.4587 99.4845 30.5336 99.2334 30.5835C98.9823 30.6335 98.728 30.66 98.4706 30.66ZM98.4706 23.9244C98.285 23.9244 98.1009 23.9431 97.92 23.979C97.7375 24.0148 97.5612 24.0694 97.3896 24.1396C97.218 24.2114 97.0558 24.2987 96.9014 24.4017C96.7469 24.5046 96.6034 24.6216 96.4724 24.7527C96.3414 24.8837 96.2244 25.0272 96.1214 25.1801C96.0185 25.3345 95.9311 25.4983 95.8609 25.6699C95.7892 25.8415 95.7361 26.0177 95.7002 26.1987C95.6628 26.3812 95.6456 26.5653 95.6456 26.7509C95.6456 26.9365 95.6628 27.1206 95.7002 27.3015C95.7361 27.484 95.7892 27.6603 95.8609 27.8319C95.9311 28.0035 96.0185 28.1657 96.1214 28.3201C96.2244 28.4746 96.3414 28.6181 96.4724 28.7491C96.6034 28.8801 96.7469 28.9971 96.9014 29.1001C97.0558 29.203 97.218 29.2904 97.3896 29.3606C97.5612 29.4323 97.7375 29.4854 97.92 29.5213C98.1009 29.5587 98.285 29.5758 98.4706 29.5758C98.6562 29.5758 98.8403 29.5587 99.0228 29.5213C99.2038 29.4854 99.38 29.4323 99.5516 29.3606C99.7232 29.2904 99.887 29.203 100.04 29.1001C100.194 28.9971 100.338 28.8801 100.469 28.7491C100.6 28.6181 100.717 28.4746 100.82 28.3201C100.923 28.1657 101.01 28.0035 101.082 27.8319C101.152 27.6603 101.207 27.484 101.243 27.3015C101.278 27.1206 101.297 26.9365 101.297 26.7509C101.296 26.5653 101.278 26.3812 101.241 26.1987C101.205 26.0177 101.152 25.8415 101.08 25.6699C101.01 25.4983 100.923 25.3361 100.82 25.1816C100.717 25.0272 100.6 24.8837 100.469 24.7527C100.338 24.6216 100.194 24.5046 100.04 24.4017C99.8854 24.2987 99.7232 24.2114 99.5516 24.1396C99.38 24.0694 99.2038 24.0148 99.0213 23.979C98.8403 23.9431 98.6562 23.9244 98.4706 23.9244Z" fill="#100F0D"/>
</g>
</svg>
